<svg width="27" height="27" stroke="#1E1E1E" viewBox="0 0 27 27" fill="none" xmlns="http://www.w3.org/2000/svg">
<path d="M9 9V5.85C9 4.58988 9 3.95982 9.24524 3.47852C9.46095 3.05516 9.80516 2.71095 10.2285 2.49524C10.7098 2.25 11.3399 2.25 12.6 2.25H21.15C22.4101 2.25 23.0402 2.25 23.5215 2.49524C23.9448 2.71095 24.289 3.05516 24.5048 3.47852C24.75 3.95982 24.75 4.58988 24.75 5.85V14.4C24.75 15.6601 24.75 16.2902 24.5048 16.7715C24.289 17.1948 23.9448 17.539 23.5215 17.7548C23.0402 18 22.4101 18 21.15 18H18M5.85 24.75H14.4C15.6601 24.75 16.2902 24.75 16.7715 24.5048C17.1948 24.289 17.539 23.9448 17.7548 23.5215C18 23.0402 18 22.4101 18 21.15V12.6C18 11.3399 18 10.7098 17.7548 10.2285C17.539 9.80516 17.1948 9.46095 16.7715 9.24524C16.2902 9 15.6601 9 14.4 9H5.85C4.58988 9 3.95982 9 3.47852 9.24524C3.05516 9.46095 2.71095 9.80516 2.49524 10.2285C2.25 10.7098 2.25 11.3399 2.25 12.6V21.15C2.25 22.4101 2.25 23.0402 2.49524 23.5215C2.71095 23.9448 3.05516 24.289 3.47852 24.5048C3.95982 24.75 4.58988 24.75 5.85 24.75Z"  stroke-width="2" stroke-linecap="round" stroke-linejoin="round"/>
</svg>
