<svg width="344" height="140" viewBox="0 0 344 140" fill="none" xmlns="http://www.w3.org/2000/svg">
<path d="M8.85653 109.79V91.7713L61.9347 7.90909H76.9602V33.5625H67.7983L32.0668 90.1832V91.1605H106.156V109.79H8.85653ZM68.5312 133V104.293L68.7756 96.2301V7.90909H90.1534V133H68.5312Z" fill="#1E1E1E"/>
<path d="M237.857 109.79V91.7713L290.935 7.90909H305.96V33.5625H296.798L261.067 90.1832V91.1605H335.156V109.79H237.857ZM297.531 133V104.293L297.776 96.2301V7.90909H319.153V133H297.531Z" fill="#1E1E1E"/>
<path d="M219.874 68C222.207 123.2 191.68 136 173.209 136C154.738 136 124.502 121.2 126.058 68C127.613 14.8 156.196 7 173.209 7C190.221 7 217.54 12.8 219.874 68Z" fill="#2962FF"/>
<mask id="mask0_6819_13213" style="mask-type:alpha" maskUnits="userSpaceOnUse" x="126" y="7" width="94" height="129">
<path d="M219.874 68C222.207 123.2 191.68 136 173.209 136C154.738 136 124.502 121.2 126.058 68C127.613 14.8 156.196 7 173.209 7C190.221 7 217.54 12.8 219.874 68Z" fill="#2962FF"/>
</mask>
<g mask="url(#mask0_6819_13213)">
<rect x="133.768" y="65.3956" width="65.8724" height="65.8724" rx="32.9362" transform="rotate(-10.1682 133.768 65.3956)" fill="#F3F5FB"/>
<rect x="178.238" y="76.252" width="6.8617" height="6.8617" rx="3.43085" transform="rotate(-10.1682 178.238 76.252)" fill="#2962FF"/>
<rect x="161.479" y="72.2409" width="6.8617" height="6.8617" rx="3.43085" transform="rotate(-10.1682 161.479 72.2409)" fill="#2962FF"/>
<path fill-rule="evenodd" clip-rule="evenodd" d="M178.662 95.528C179.013 96.3836 179.99 96.7968 180.85 96.4513C181.714 96.1041 182.132 95.1223 181.785 94.2585L180.221 94.8872C181.785 94.2585 181.785 94.2576 181.784 94.2567L181.784 94.2549L181.782 94.2508L181.778 94.2412L181.768 94.2167C181.76 94.198 181.75 94.1746 181.737 94.1468C181.713 94.0912 181.679 94.0179 181.635 93.9289C181.547 93.7508 181.42 93.5093 181.245 93.2206C180.895 92.6434 180.356 91.8745 179.573 91.0465C177.996 89.381 175.458 87.5061 171.567 86.4656C167.677 85.4252 164.541 85.7827 162.344 86.4391C161.252 86.7654 160.401 87.1626 159.81 87.4882C159.515 87.6511 159.283 87.7966 159.118 87.9071C159.036 87.9624 158.97 88.009 158.921 88.0448C158.896 88.0628 158.876 88.078 158.86 88.0902L158.839 88.1064L158.83 88.1127L158.827 88.1154L158.825 88.1167C158.825 88.1173 158.824 88.1178 159.826 89.393L158.824 88.1179C158.092 88.693 157.965 89.7528 158.54 90.4848C159.112 91.2134 160.165 91.3428 160.896 90.7769C160.898 90.7756 160.901 90.7732 160.906 90.7697C160.921 90.7587 160.951 90.7373 160.996 90.7073C161.085 90.6473 161.233 90.5534 161.437 90.4409C161.846 90.2159 162.476 89.9185 163.309 89.6694C164.965 89.1748 167.463 88.8577 170.696 89.7226C173.93 90.5874 175.936 92.1091 177.124 93.3638C177.722 93.9959 178.119 94.568 178.361 94.9669C178.481 95.1661 178.563 95.3214 178.61 95.418C178.634 95.4663 178.649 95.4999 178.657 95.5169C178.659 95.5223 178.661 95.526 178.662 95.528C178.662 95.528 178.662 95.528 178.662 95.528Z" fill="#2962FF"/>
</g>
<path d="M173.354 135.382C163.296 135.382 154.663 132.837 147.456 127.747C140.289 122.616 134.772 115.226 130.903 105.575C127.076 95.884 125.162 84.2178 125.162 70.5767C125.203 56.9356 127.137 45.3305 130.964 35.7614C134.833 26.1515 140.35 18.822 147.517 13.7727C154.724 8.72348 163.337 6.19886 173.354 6.19886C183.371 6.19886 191.983 8.72348 199.19 13.7727C206.398 18.822 211.915 26.1515 215.743 35.7614C219.611 45.3712 221.545 56.9763 221.545 70.5767C221.545 84.2585 219.611 95.9451 215.743 105.636C211.915 115.287 206.398 122.657 199.19 127.747C192.024 132.837 183.411 135.382 173.354 135.382ZM173.354 116.264C181.172 116.264 187.341 112.416 191.861 104.72C196.421 96.9834 198.702 85.6023 198.702 70.5767C198.702 60.6411 197.663 52.2936 195.587 45.5341C193.51 38.7746 190.578 33.6847 186.791 30.2642C183.004 26.803 178.525 25.0724 173.354 25.0724C165.576 25.0724 159.428 28.9408 154.908 36.6775C150.388 44.3736 148.107 55.6733 148.067 70.5767C148.026 80.553 149.024 88.9413 151.06 95.7415C153.136 102.542 156.068 107.672 159.855 111.134C163.642 114.554 168.142 116.264 173.354 116.264Z" fill="#1E1E1E"/>
</svg>
