<svg width="20" height="20" viewBox="0 0 20 20" fill="none" xmlns="http://www.w3.org/2000/svg">
<path d="M2.50027 9.58333C2.50027 13.4953 5.67159 16.6667 9.5836 16.6667C10.4809 16.6667 11.3393 16.4998 12.1293 16.1954C12.2738 16.1398 12.346 16.112 12.4034 16.0987C12.4599 16.0857 12.5008 16.0803 12.5587 16.0781C12.6176 16.0758 12.6822 16.0825 12.8115 16.0958L17.079 16.537C17.4859 16.579 17.6893 16.6001 17.8093 16.5269C17.9138 16.4631 17.985 16.3566 18.004 16.2356C18.0257 16.0968 17.9285 15.9168 17.7341 15.557L16.371 13.034C16.2588 12.8262 16.2026 12.7223 16.1772 12.6225C16.1521 12.5238 16.1461 12.4527 16.1541 12.3512C16.1622 12.2484 16.2073 12.1147 16.2975 11.8472C16.5371 11.1363 16.6669 10.375 16.6669 9.58333C16.6669 5.67132 13.4956 2.5 9.5836 2.5C5.67159 2.5 2.50027 5.67132 2.50027 9.58333Z" stroke="#2962FF" stroke-width="1.8" stroke-linecap="round" stroke-linejoin="round"/>
</svg>
