<svg width="18" height="18" viewBox="0 0 18 18" stroke="#1E1E1E" fill="none" xmlns="http://www.w3.org/2000/svg">
<g clip-path="url(#clip0_5531_2910)">
<path d="M4.49969 15.0003L11.1515 8.34853C11.4485 8.05152 11.597 7.90301 11.7682 7.84737C11.9189 7.79842 12.0811 7.79842 12.2318 7.84737C12.403 7.90301 12.5515 8.05152 12.8485 8.34853L16.0539 11.5539M7.875 6.375C7.875 7.20343 7.20343 7.875 6.375 7.875C5.54657 7.875 4.875 7.20343 4.875 6.375C4.875 5.54657 5.54657 4.875 6.375 4.875C7.20343 4.875 7.875 5.54657 7.875 6.375ZM16.5 9C16.5 13.1421 13.1421 16.5 9 16.5C4.85786 16.5 1.5 13.1421 1.5 9C1.5 4.85786 4.85786 1.5 9 1.5C13.1421 1.5 16.5 4.85786 16.5 9Z"  stroke-width="1.8" stroke-linecap="round" stroke-linejoin="round"/>
</g>
<defs>
<clipPath id="clip0_5531_2910">
<rect width="18" height="18" fill="white"/>
</clipPath>
</defs>
</svg>
