<svg width="18" height="18" stroke="#EF2B2B"  viewBox="0 0 18 18" fill="none" xmlns="http://www.w3.org/2000/svg">
<path d="M12 12.75L15.75 9M15.75 9L12 5.25M15.75 9H6.75M9 12.75C9 13.4475 9 13.7962 8.92333 14.0823C8.71528 14.8588 8.1088 15.4653 7.33234 15.6733C7.04622 15.75 6.69748 15.75 6 15.75H5.625C4.57663 15.75 4.05245 15.75 3.63896 15.5787C3.08765 15.3504 2.64963 14.9124 2.42127 14.361C2.25 13.9476 2.25 13.4234 2.25 12.375V5.625C2.25 4.57663 2.25 4.05245 2.42127 3.63896C2.64963 3.08765 3.08765 2.64963 3.63896 2.42127C4.05245 2.25 4.57663 2.25 5.625 2.25H6C6.69748 2.25 7.04622 2.25 7.33234 2.32667C8.1088 2.53472 8.71528 3.1412 8.92333 3.91766C9 4.20378 9 4.55252 9 5.25" stroke-width="1.8" stroke-linecap="round" stroke-linejoin="round"/>
</svg>
