<svg width="21" height="20" viewBox="0 0 21 20" fill="none" xmlns="http://www.w3.org/2000/svg">
<path d="M7.05005 10H7.05838M10.8 10H10.8084M14.55 10H14.5584M10.8 17.5C14.9422 17.5 18.3 14.1421 18.3 10C18.3 5.85786 14.9422 2.5 10.8 2.5C6.65791 2.5 3.30005 5.85786 3.30005 10C3.30005 10.9976 3.49483 11.9497 3.84843 12.8204C3.91611 12.9871 3.94995 13.0704 3.96504 13.1377C3.97981 13.2036 3.98521 13.2524 3.98522 13.3199C3.98523 13.3889 3.9727 13.4641 3.94764 13.6145L3.45349 16.5794C3.40174 16.8898 3.37587 17.0451 3.42402 17.1573C3.46616 17.2556 3.54445 17.3339 3.6427 17.376C3.75496 17.4242 3.9102 17.3983 4.22068 17.3466L7.18559 16.8524C7.33595 16.8273 7.41114 16.8148 7.48016 16.8148C7.54768 16.8148 7.59643 16.8202 7.66232 16.835C7.72967 16.8501 7.81299 16.8839 7.97962 16.9516C8.8503 17.3052 9.80243 17.5 10.8 17.5ZM7.46672 10C7.46672 10.2301 7.28017 10.4167 7.05005 10.4167C6.81993 10.4167 6.63338 10.2301 6.63338 10C6.63338 9.76988 6.81993 9.58333 7.05005 9.58333C7.28017 9.58333 7.46672 9.76988 7.46672 10ZM11.2167 10C11.2167 10.2301 11.0302 10.4167 10.8 10.4167C10.5699 10.4167 10.3834 10.2301 10.3834 10C10.3834 9.76988 10.5699 9.58333 10.8 9.58333C11.0302 9.58333 11.2167 9.76988 11.2167 10ZM14.9667 10C14.9667 10.2301 14.7802 10.4167 14.55 10.4167C14.3199 10.4167 14.1334 10.2301 14.1334 10C14.1334 9.76988 14.3199 9.58333 14.55 9.58333C14.7802 9.58333 14.9667 9.76988 14.9667 10Z" stroke="#1E1E1E" stroke-width="1.8" stroke-linecap="round" stroke-linejoin="round"/>
</svg>
