<svg width="18" height="18" viewBox="0 0 18 18" fill="none" xmlns="http://www.w3.org/2000/svg">
<path d="M7.04628 14.5283L7.48462 15.5142C7.61492 15.8076 7.82757 16.057 8.09678 16.232C8.366 16.4069 8.6802 16.5001 9.00128 16.5C9.32237 16.5001 9.63657 16.4069 9.90578 16.232C10.175 16.057 10.3876 15.8076 10.5179 15.5142L10.9563 14.5283C11.1123 14.1785 11.3748 13.8869 11.7063 13.695C12.0399 13.5026 12.4258 13.4206 12.8088 13.4608L13.8813 13.575C14.2005 13.6088 14.5227 13.5492 14.8088 13.4035C15.0949 13.2578 15.3325 13.0322 15.4929 12.7542C15.6536 12.4763 15.7301 12.1577 15.7132 11.8372C15.6964 11.5166 15.5869 11.2079 15.3979 10.9483L14.7629 10.0758C14.5368 9.76285 14.416 9.38611 14.4179 9C14.4179 8.61494 14.5398 8.23976 14.7663 7.92833L15.4013 7.05583C15.5902 6.79632 15.6997 6.48755 15.7166 6.16701C15.7334 5.84646 15.6569 5.52791 15.4963 5.25C15.3359 4.97193 15.0982 4.74637 14.8121 4.60067C14.5261 4.45497 14.2039 4.3954 13.8846 4.42917L12.8121 4.54333C12.4291 4.58356 12.0432 4.50159 11.7096 4.30917C11.3775 4.11619 11.1149 3.82302 10.9596 3.47167L10.5179 2.48583C10.3876 2.19238 10.175 1.94304 9.90578 1.76805C9.63657 1.59306 9.32237 1.49995 9.00128 1.5C8.6802 1.49995 8.366 1.59306 8.09678 1.76805C7.82757 1.94304 7.61492 2.19238 7.48462 2.48583L7.04628 3.47167C6.89098 3.82302 6.62844 4.11619 6.29628 4.30917C5.96269 4.50159 5.57678 4.58356 5.19378 4.54333L4.11795 4.42917C3.7987 4.3954 3.4765 4.45497 3.19043 4.60067C2.90437 4.74637 2.66671 4.97193 2.50628 5.25C2.34565 5.52791 2.26912 5.84646 2.28598 6.16701C2.30285 6.48755 2.41237 6.79632 2.60128 7.05583L3.23628 7.92833C3.46274 8.23976 3.58468 8.61494 3.58461 9C3.58468 9.38506 3.46274 9.76024 3.23628 10.0717L2.60128 10.9442C2.41237 11.2037 2.30285 11.5124 2.28598 11.833C2.26912 12.1535 2.34565 12.4721 2.50628 12.75C2.66687 13.0279 2.90455 13.2534 3.19058 13.399C3.47661 13.5447 3.79872 13.6044 4.11795 13.5708L5.19045 13.4567C5.57345 13.4164 5.95936 13.4984 6.29295 13.6908C6.62634 13.8833 6.89011 14.1765 7.04628 14.5283Z" stroke="#1E1E1E" stroke-width="1.8" stroke-linecap="round" stroke-linejoin="round"/>
<path d="M8.99994 11.25C10.2426 11.25 11.2499 10.2426 11.2499 9C11.2499 7.75736 10.2426 6.75 8.99994 6.75C7.7573 6.75 6.74994 7.75736 6.74994 9C6.74994 10.2426 7.7573 11.25 8.99994 11.25Z" stroke="#1E1E1E" stroke-width="1.8" stroke-linecap="round" stroke-linejoin="round"/>
</svg>
