<svg width="100%" height="100%" viewBox="0 0 50 50" fill="none" xmlns="http://www.w3.org/2000/svg">
<rect width="50" height="50" rx="25" fill="#2962FF"/>
<mask id="mask0_5422_1362" style="mask-type:alpha" maskUnits="userSpaceOnUse" x="0" y="0" width="50" height="50">
<rect width="50" height="50" rx="25" fill="#2962FF"/>
</mask>
<g mask="url(#mask0_5422_1362)">
<rect x="-4.50525" y="16.1019" width="48" height="48" rx="24" transform="rotate(-3.7131 -4.50525 16.1019)" fill="#EAF0FF"/>
<rect x="26.8051" y="27.6058" width="5" height="5" rx="2.5" transform="rotate(-3.7131 26.8051 27.6058)" fill="#2962FF"/>
<rect x="14.9984" y="23.3285" width="5" height="5" rx="2.5" transform="rotate(-3.7131 14.9984 23.3285)" fill="#2962FF"/>
<path fill-rule="evenodd" clip-rule="evenodd" d="M14.7237 32.4572C14.5393 31.8089 13.866 31.4297 13.2152 31.6094C12.5613 31.7901 12.1776 32.4666 12.3583 33.1205L13.5423 32.7934C12.3583 33.1205 12.3585 33.1212 12.3586 33.1218L12.359 33.1233L12.3599 33.1264L12.362 33.1336L12.3674 33.1522C12.3716 33.1664 12.377 33.1842 12.3836 33.2053C12.397 33.2475 12.4155 33.3034 12.4399 33.3715C12.4888 33.5076 12.5616 33.6929 12.6645 33.9163C12.8703 34.3628 13.1977 34.9638 13.6972 35.6275C14.7019 36.9625 16.3863 38.528 19.1181 39.6001C21.8499 40.6722 24.1495 40.6702 25.794 40.3749C26.6116 40.2281 27.2603 40.0102 27.7148 39.8228C27.9422 39.7291 28.1216 39.6427 28.2501 39.5762C28.3143 39.5429 28.3659 39.5146 28.4044 39.4927C28.4236 39.4817 28.4397 39.4724 28.4524 39.4648L28.469 39.4549L28.4754 39.451L28.4782 39.4493L28.4794 39.4485C28.48 39.4481 28.4806 39.4478 27.8597 38.4424L28.4806 39.4478C29.0578 39.0913 29.2367 38.3344 28.8802 37.7572C28.5254 37.1828 27.7739 37.0028 27.1978 37.3527C27.1965 37.3534 27.1939 37.3549 27.1901 37.3571C27.1783 37.3638 27.1548 37.3768 27.12 37.3949C27.0503 37.431 26.9355 37.4869 26.7785 37.5516C26.4644 37.6811 25.984 37.8448 25.3598 37.9569C24.1209 38.1794 22.2863 38.2044 20.0156 37.3132C17.7449 36.4221 16.417 35.156 15.6601 34.1502C15.2787 33.6435 15.0379 33.1967 14.8957 32.8881C14.8247 32.734 14.7785 32.6149 14.752 32.541C14.7387 32.5041 14.7304 32.4785 14.7263 32.4656C14.725 32.4615 14.7241 32.4587 14.7237 32.4572C14.7237 32.4572 14.7237 32.4572 14.7237 32.4572Z" fill="#2962FF"/>
</g>
</svg>
