<svg width="309" height="72" viewBox="0 0 309 72" fill="none" xmlns="http://www.w3.org/2000/svg">
<g filter="url(#filter0_d_6930_11793)">
<rect width="309" height="68" rx="20" fill="#1E1E1E"/>
<rect x="1.5" y="1.5" width="306" height="65" rx="18.5" stroke="white" stroke-width="3"/>
<path d="M89.5781 42V26H95.7031C96.8594 26 97.8203 26.1823 98.5859 26.5469C99.3568 26.9062 99.9323 27.3984 100.313 28.0234C100.698 28.6484 100.891 29.3568 100.891 30.1484C100.891 30.7995 100.766 31.3568 100.516 31.8203C100.266 32.2786 99.9297 32.651 99.5078 32.9375C99.0859 33.224 98.6146 33.4297 98.0938 33.5547V33.7109C98.6615 33.7422 99.2057 33.9167 99.7266 34.2344C100.253 34.5469 100.682 34.9896 101.016 35.5625C101.349 36.1354 101.516 36.8281 101.516 37.6406C101.516 38.4687 101.315 39.2135 100.914 39.875C100.513 40.5312 99.9089 41.0495 99.1016 41.4297C98.2943 41.8099 97.2786 42 96.0547 42H89.5781ZM92.4766 39.5781H95.5938C96.6458 39.5781 97.4036 39.3776 97.8672 38.9766C98.3359 38.5703 98.5703 38.0495 98.5703 37.4141C98.5703 36.9401 98.4531 36.513 98.2188 36.1328C97.9844 35.7474 97.651 35.4453 97.2188 35.2266C96.7865 35.0026 96.2708 34.8906 95.6719 34.8906H92.4766V39.5781ZM92.4766 32.8047H95.3438C95.8438 32.8047 96.2943 32.7135 96.6953 32.5312C97.0964 32.3437 97.4115 32.0807 97.6406 31.7422C97.875 31.3984 97.9922 30.9922 97.9922 30.5234C97.9922 29.9036 97.7734 29.3932 97.3359 28.9922C96.9036 28.5911 96.2604 28.3906 95.4063 28.3906H92.4766V32.8047ZM109.146 42.2344C107.949 42.2344 106.92 41.9714 106.061 41.4453C105.206 40.9193 104.548 40.1927 104.084 39.2656C103.626 38.3333 103.396 37.2604 103.396 36.0469C103.396 34.8281 103.631 33.7526 104.1 32.8203C104.568 31.8828 105.23 31.1536 106.084 30.6328C106.943 30.1068 107.959 29.8438 109.131 29.8438C110.105 29.8438 110.967 30.0234 111.717 30.3828C112.472 30.737 113.074 31.2396 113.521 31.8906C113.969 32.5365 114.225 33.2917 114.287 34.1562H111.584C111.475 33.5781 111.214 33.0964 110.803 32.7109C110.396 32.3203 109.852 32.125 109.17 32.125C108.592 32.125 108.084 32.2812 107.646 32.5937C107.209 32.901 106.868 33.3437 106.623 33.9219C106.383 34.5 106.264 35.1927 106.264 36C106.264 36.8177 106.383 37.5208 106.623 38.1094C106.863 38.6927 107.199 39.1432 107.631 39.4609C108.068 39.7734 108.581 39.9297 109.17 39.9297C109.587 39.9297 109.959 39.8516 110.287 39.6953C110.62 39.5339 110.899 39.3021 111.123 39C111.347 38.6979 111.501 38.3307 111.584 37.8984H114.287C114.219 38.7474 113.969 39.5 113.537 40.1562C113.105 40.8073 112.516 41.3177 111.771 41.6875C111.027 42.0521 110.152 42.2344 109.146 42.2344ZM115.738 32.3203V30H126.238V32.3203H122.355V42H119.621V32.3203H115.738ZM130.248 46.5C129.863 46.5 129.506 46.4688 129.178 46.4063C128.855 46.349 128.597 46.2813 128.404 46.2031L129.061 44C129.472 44.1198 129.839 44.1771 130.162 44.1719C130.485 44.1667 130.769 44.0651 131.014 43.8672C131.264 43.6745 131.475 43.3516 131.646 42.8984L131.889 42.25L127.537 30H130.537L133.303 39.0625H133.428L136.201 30H139.209L134.404 43.4531C134.18 44.0885 133.883 44.6328 133.514 45.0859C133.144 45.5443 132.691 45.8932 132.154 46.1328C131.623 46.3776 130.988 46.5 130.248 46.5ZM141.166 42V30H151.299V42H148.572V32.3203H143.869V42H141.166ZM156.934 38.1719L161.738 30H164.645V42H161.91V33.8203L157.121 42H154.207V30H156.934V38.1719ZM166.205 32.3203V30H176.705V32.3203H172.822V42H170.088V32.3203H166.205ZM180.871 33.9062H184.41C185.941 33.9062 187.126 34.2786 187.965 35.0234C188.803 35.7682 189.225 36.7448 189.23 37.9531C189.225 38.7396 189.033 39.4375 188.652 40.0469C188.277 40.6562 187.73 41.1354 187.012 41.4844C186.298 41.8281 185.431 42 184.41 42H178.957V30H181.684V39.6797H184.41C185.025 39.6797 185.53 39.5234 185.926 39.2109C186.322 38.8932 186.52 38.487 186.52 37.9922C186.52 37.4714 186.322 37.0469 185.926 36.7187C185.53 36.3906 185.025 36.2266 184.41 36.2266H180.871V33.9062Z" fill="white"/>
<path d="M203.583 34H216.416M216.416 34L209.999 40.4167M216.416 34L209.999 27.5833" stroke="white" stroke-width="2.5" stroke-linecap="round" stroke-linejoin="round"/>
</g>
<defs>
<filter id="filter0_d_6930_11793" x="0" y="0" width="309" height="72" filterUnits="userSpaceOnUse" color-interpolation-filters="sRGB">
<feFlood flood-opacity="0" result="BackgroundImageFix"/>
<feColorMatrix in="SourceAlpha" type="matrix" values="0 0 0 0 0 0 0 0 0 0 0 0 0 0 0 0 0 0 127 0" result="hardAlpha"/>
<feOffset dy="4"/>
<feComposite in2="hardAlpha" operator="out"/>
<feColorMatrix type="matrix" values="0 0 0 0 1 0 0 0 0 1 0 0 0 0 1 0 0 0 1 0"/>
<feBlend mode="normal" in2="BackgroundImageFix" result="effect1_dropShadow_6930_11793"/>
<feBlend mode="normal" in="SourceGraphic" in2="effect1_dropShadow_6930_11793" result="shape"/>
</filter>
</defs>
</svg>
