<svg width="49" height="607" viewBox="0 0 49 607" fill="none" xmlns="http://www.w3.org/2000/svg">
<path d="M24.5 1V606" stroke="white" stroke-width="2" stroke-linecap="round" stroke-linejoin="round" stroke-dasharray="16 16"/>
<path d="M11.1008 535.95C11.0706 534.217 12.1595 532.662 13.798 532.098L26.38 527.766C28.0185 527.202 29.834 527.757 30.8768 529.141L38.8852 539.768C39.9281 541.152 39.9612 543.05 38.9673 544.47L31.3347 555.37C30.3407 556.79 28.5458 557.408 26.8886 556.901L14.163 553.01C12.5058 552.504 11.3633 550.988 11.3331 549.255L11.1008 535.95Z" fill="#6200EA" stroke="white" stroke-width="2"/>
<path d="M22.6001 52.7768C23.2031 50.9433 25.7969 50.9433 26.3999 52.7768L28.5155 59.2095C28.7139 59.8128 29.1871 60.2861 29.7905 60.4845L36.2232 62.6001C38.0567 63.2031 38.0567 65.7969 36.2232 66.3999L29.7905 68.5155C29.1871 68.7139 28.7139 69.1871 28.5155 69.7905L26.3999 76.2232C25.7969 78.0567 23.2031 78.0567 22.6001 76.2232L20.4845 69.7905C20.2861 69.1871 19.8128 68.7139 19.2095 68.5155L12.7768 66.3999C10.9433 65.7969 10.9433 63.2031 12.7768 62.6001L19.2095 60.4845C19.8128 60.2861 20.2861 59.8129 20.4845 59.2095L22.6001 52.7768Z" fill="white"/>
<path d="M10.0118 227.864C8.99948 226.458 9.00795 224.559 10.0328 223.162L17.9024 212.431C18.9272 211.034 20.7353 210.455 22.381 210.998L35.0183 215.167C36.664 215.71 37.7729 217.25 37.7652 218.983L37.7059 232.29C37.6981 234.023 36.5755 235.554 34.925 236.082L22.251 240.138C20.6006 240.666 18.7977 240.071 17.7854 238.665L10.0118 227.864Z" fill="#EF2B2B" stroke="white" stroke-width="2"/>
<path d="M23.5301 368.862C23.7834 367.854 25.2166 367.854 25.4699 368.862L27.3111 376.195C27.4487 376.742 28.012 377.068 28.555 376.913L35.8256 374.841C36.8257 374.556 37.5424 375.797 36.7955 376.521L31.3662 381.782C30.9607 382.175 30.9607 382.825 31.3662 383.218L36.7955 388.479C37.5424 389.203 36.8257 390.444 35.8256 390.159L28.555 388.087C28.012 387.932 27.4487 388.258 27.3111 388.805L25.4699 396.138C25.2166 397.146 23.7834 397.146 23.5301 396.138L21.6889 388.805C21.5513 388.258 20.988 387.932 20.445 388.087L13.1744 390.159C12.1743 390.444 11.4576 389.203 12.2045 388.479L17.6338 383.218C18.0393 382.825 18.0393 382.175 17.6338 381.782L12.2045 376.521C11.4576 375.797 12.1743 374.556 13.1744 374.841L20.445 376.913C20.988 377.068 21.5513 376.742 21.6889 376.195L23.5301 368.862Z" fill="#FFA000"/>
</svg>
