<svg width="162" height="171" viewBox="0 0 162 171" fill="none" xmlns="http://www.w3.org/2000/svg">
<path d="M153.225 86.625L139.729 100.125L126.225 86.625M141.379 96.75C141.624 94.5337 141.75 92.2816 141.75 90C141.75 56.4487 114.551 29.25 81 29.25C47.4487 29.25 20.25 56.4487 20.25 90C20.25 123.551 47.4487 150.75 81 150.75C100.084 150.75 117.113 141.95 128.25 128.187M81 56.25V90L101.25 103.5" stroke="#214ECC" stroke-width="10" stroke-linecap="round" stroke-linejoin="round"/>
<path d="M26.25 81C26.25 50.7624 50.7624 26.25 81 26.25C110.438 26.25 134.449 49.4825 135.699 78.6124L130.467 73.3817C128.123 71.0389 124.324 71.0395 121.981 73.383C119.639 75.7265 119.639 79.5255 121.983 81.8683L135.487 95.3683C136.612 96.4933 138.138 97.1252 139.73 97.125C141.321 97.1248 142.847 96.4924 143.972 95.367L157.468 81.867C159.811 79.5235 159.81 75.7245 157.467 73.3817C155.123 71.0389 151.324 71.0395 148.981 73.383L147.474 74.8907C144.389 40.8886 115.806 14.25 81 14.25C44.135 14.25 14.25 44.135 14.25 81C14.25 117.865 44.135 147.75 81 147.75C101.971 147.75 120.687 138.072 132.914 122.961C134.999 120.385 134.6 116.607 132.024 114.523C129.448 112.438 125.67 112.837 123.586 115.413C113.539 127.829 98.1968 135.75 81 135.75C50.7624 135.75 26.25 111.238 26.25 81ZM87 47.25C87 43.9363 84.3137 41.25 81 41.25C77.6863 41.25 75 43.9363 75 47.25V81C75 83.0061 76.0026 84.8795 77.6718 85.9923L97.9218 99.4923C100.679 101.33 104.404 100.585 106.242 97.8282C108.08 95.071 107.335 91.3458 104.578 89.5077L87 77.7889V47.25Z" fill="#EEF3FF" stroke="#214ECC" stroke-width="2" stroke-linecap="round" stroke-linejoin="round"/>
</svg>
