<svg width="61" height="33" viewBox="0 0 61 33" fill="none" xmlns="http://www.w3.org/2000/svg">
<path d="M46.0301 4.86232C46.2834 3.85372 47.7166 3.85372 47.9699 4.86232L49.1986 9.7555C49.3362 10.3031 49.8995 10.6284 50.4425 10.4737L55.2945 9.09121C56.2947 8.80625 57.0113 10.0475 56.2644 10.7711L52.6412 14.2818C52.2357 14.6747 52.2357 15.3252 52.6412 15.7182L56.2644 19.2289C57.0113 19.9525 56.2947 21.1937 55.2945 20.9088L50.4425 19.5263C49.8995 19.3716 49.3362 19.6969 49.1986 20.2445L47.9699 25.1377C47.7166 26.1463 46.2834 26.1463 46.0301 25.1377L44.8014 20.2445C44.6638 19.6969 44.1005 19.3716 43.5575 19.5263L38.7055 20.9088C37.7053 21.1937 36.9887 19.9525 37.7356 19.2289L41.3588 15.7182C41.7643 15.3252 41.7643 14.6747 41.3588 14.2818L37.7356 10.7711C36.9887 10.0475 37.7053 8.80625 38.7055 9.09121L43.5575 10.4737C44.1005 10.6284 44.6638 10.3031 44.8014 9.7555L46.0301 4.86232Z" fill="white"/>
<path d="M10.3366 7.73236C11.3661 6.20593 13.2615 5.51606 15.0314 6.02357L22.1728 8.07134C23.9427 8.57884 25.1845 10.1683 25.2488 12.0084L25.5081 19.4331C25.5723 21.2731 24.4444 22.9453 22.7142 23.5751L15.7331 26.116C14.0029 26.7457 12.064 26.1898 10.9304 24.7389L6.35655 18.8846C5.22299 17.4337 5.1526 15.4179 6.18219 13.8915L10.3366 7.73236Z" fill="#EF2B2B" stroke="white" stroke-width="1.5"/>
</svg>
