<svg width="188" height="70" viewBox="0 0 188 70" fill="none" xmlns="http://www.w3.org/2000/svg">
<rect x="1" y="43" width="186" height="26" rx="13" stroke="white" stroke-width="2"/>
<mask id="mask0_6970_12029" style="mask-type:alpha" maskUnits="userSpaceOnUse" x="0" y="0" width="188" height="70">
<path d="M0 0H188V56C188 63.732 181.732 70 174 70H14C6.26801 70 0 63.732 0 56V0Z" fill="white"/>
</mask>
<g mask="url(#mask0_6970_12029)">
<g clip-path="url(#clip0_6970_12029)">
<rect x="57.1953" y="-1.33189" width="100" height="30" rx="15" transform="rotate(45 57.1953 -1.33189)" fill="#FFF8E1"/>
<path d="M54.268 22.6113L60.4391 16.4402L62.7533 18.7544C63.2274 19.2284 63.5367 19.7146 63.6814 20.2128C63.828 20.713 63.829 21.2001 63.6844 21.6742C63.5438 22.1483 63.2776 22.5812 62.8859 22.9729C62.4901 23.3686 62.0552 23.6368 61.5811 23.7774C61.107 23.918 60.6189 23.914 60.1167 23.7654C59.6165 23.6147 59.1284 23.3013 58.6523 22.8252L57.1185 21.2915L58.0376 20.3725L59.4206 21.7555C59.6979 22.0328 59.9731 22.2115 60.2463 22.2919C60.5195 22.3723 60.7826 22.3702 61.0357 22.2859C61.2909 22.2035 61.5279 22.0529 61.7469 21.8339C61.9658 21.6149 62.1155 21.3789 62.1958 21.1258C62.2782 20.8747 62.2762 20.6135 62.1898 20.3423C62.1074 20.0711 61.9266 19.7959 61.6474 19.5167L60.6229 18.4922L55.3859 23.7292L54.268 22.6113ZM60.8361 29.3662C60.5428 29.0729 60.3309 28.7566 60.2003 28.4171C60.0738 28.0776 60.0456 27.7361 60.1159 27.3926C60.1883 27.0511 60.3761 26.7286 60.6794 26.4253C60.9406 26.1642 61.2047 25.9964 61.4719 25.9221C61.7391 25.8478 62.0073 25.8428 62.2764 25.907C62.5456 25.9713 62.8108 26.0818 63.0719 26.2385C63.3371 26.3952 63.5942 26.574 63.8433 26.7748C64.1426 27.0179 64.3877 27.2128 64.5786 27.3594C64.7714 27.5041 64.9301 27.5904 65.0546 27.6186C65.1832 27.6467 65.2997 27.6085 65.4042 27.5041L65.4223 27.486C65.6493 27.259 65.7577 27.0159 65.7477 26.7568C65.7376 26.4976 65.6061 26.2415 65.353 25.9884C65.0858 25.7212 64.8156 25.5675 64.5424 25.5274C64.2712 25.4892 64.0291 25.5223 63.8162 25.6268L62.9424 24.4637C63.304 24.2628 63.6716 24.1604 64.0452 24.1563C64.4209 24.1503 64.7895 24.2337 65.1511 24.4064C65.5147 24.5772 65.8582 24.8243 66.1816 25.1477C66.4046 25.3707 66.6004 25.6188 66.7692 25.892C66.9379 26.1652 67.0534 26.4534 67.1157 26.7568C67.18 27.0581 67.1649 27.3664 67.0705 27.6818C66.9781 27.9992 66.7782 28.3116 66.4709 28.619L63.3733 31.7166L62.3246 30.668L62.9604 30.0322L62.9243 29.996C62.7294 30.0583 62.5155 30.0854 62.2825 30.0774C62.0535 30.0693 61.8144 30.0091 61.5653 29.8966C61.3202 29.7841 61.0772 29.6073 60.8361 29.3662ZM61.9209 28.848C62.1398 29.0669 62.3729 29.2136 62.6199 29.2879C62.869 29.3602 63.1091 29.3672 63.3401 29.309C63.5731 29.2527 63.775 29.1392 63.9458 28.9685L64.4912 28.4231C64.4289 28.4171 64.3445 28.3849 64.2381 28.3267C64.1336 28.2704 64.0221 28.2011 63.9036 28.1188C63.7851 28.0364 63.6696 27.953 63.5571 27.8687C63.4446 27.7843 63.3471 27.711 63.2648 27.6487C63.08 27.5081 62.8982 27.3986 62.7194 27.3202C62.5406 27.2419 62.3688 27.2108 62.2041 27.2268C62.0414 27.2409 61.8897 27.3182 61.7491 27.4589C61.5482 27.6597 61.4699 27.8847 61.5141 28.1338C61.5583 28.3829 61.6939 28.621 61.9209 28.848ZM66.3985 34.9226C65.9365 34.4606 65.6412 33.9624 65.5127 33.4281C65.3861 32.8957 65.4122 32.3614 65.591 31.825C65.7738 31.2887 66.0992 30.7865 66.5673 30.3184C67.0374 29.8484 67.5426 29.5239 68.0829 29.3451C68.6253 29.1643 69.1617 29.1382 69.692 29.2668C70.2264 29.3954 70.7195 29.6856 71.1715 30.1376C71.5472 30.5133 71.8103 30.915 71.961 31.3429C72.1157 31.7708 72.1538 32.1967 72.0755 32.6205C71.9992 33.0424 71.8063 33.4321 71.4969 33.7897L70.4544 32.7471C70.6352 32.4819 70.7205 32.1957 70.7105 31.8883C70.7045 31.581 70.5699 31.2957 70.3067 31.0326C70.0837 30.8096 69.8276 30.674 69.5383 30.6258C69.2511 30.5755 68.9488 30.6147 68.6314 30.7433C68.316 30.8739 68.0026 31.0948 67.6912 31.4062C67.3758 31.7216 67.1509 32.039 67.0163 32.3584C66.8837 32.6758 66.8395 32.9791 66.8837 33.2684C66.9319 33.5577 67.0695 33.8158 67.2965 34.0428C67.4572 34.2035 67.631 34.317 67.8178 34.3833C68.0086 34.4496 68.2055 34.4676 68.4084 34.4375C68.6113 34.4074 68.8122 34.325 69.011 34.1904L70.0536 35.233C69.7001 35.5343 69.3134 35.7282 68.8935 35.8146C68.4757 35.8989 68.0518 35.8688 67.6219 35.7242C67.194 35.5775 66.7863 35.3104 66.3985 34.9226ZM69.3673 37.7106L73.9957 33.0823L77.9038 36.9905L73.2755 41.6188L72.2239 40.5672L75.9573 36.8338L74.1433 35.0198L70.4099 38.7532L69.3673 37.7106ZM76.9253 42.3156L81.9303 41.0169L83.0512 42.1379L78.4229 46.7662L77.3682 45.7116L80.5231 42.5567L75.5211 43.8644L74.3972 42.7405L79.0255 38.1122L80.0771 39.1638L76.9253 42.3156ZM81.4715 49.9956C81.0095 49.5336 80.7142 49.0354 80.5856 48.5011C80.4591 47.9687 80.4852 47.4344 80.664 46.898C80.8468 46.3617 81.1722 45.8595 81.6403 45.3914C82.1103 44.9213 82.6156 44.5969 83.1559 44.4181C83.6983 44.2373 84.2347 44.2112 84.765 44.3398C85.2993 44.4683 85.7925 44.7586 86.2445 45.2106C86.6201 45.5863 86.8833 45.988 87.034 46.4159C87.1886 46.8438 87.2268 47.2696 87.1485 47.6935C87.0721 48.1154 86.8793 48.5051 86.5699 48.8626L85.5273 47.8201C85.7081 47.5549 85.7935 47.2686 85.7835 46.9613C85.7774 46.6539 85.6429 46.3687 85.3797 46.1055C85.1567 45.8826 84.9006 45.747 84.6113 45.6987C84.3241 45.6485 84.0217 45.6877 83.7043 45.8163C83.3889 45.9468 83.0756 46.1678 82.7642 46.4792C82.4488 46.7946 82.2238 47.112 82.0892 47.4314C81.9567 47.7488 81.9125 48.0521 81.9567 48.3414C82.0049 48.6306 82.1425 48.8888 82.3695 49.1158C82.5302 49.2765 82.7039 49.39 82.8908 49.4563C83.0816 49.5225 83.2785 49.5406 83.4814 49.5105C83.6842 49.4804 83.8851 49.398 84.084 49.2634L85.1266 50.306C84.773 50.6073 84.3863 50.8012 83.9665 50.8875C83.5487 50.9719 83.1248 50.9418 82.6949 50.7971C82.267 50.6505 81.8592 50.3833 81.4715 49.9956ZM85.6788 54.2089C85.3855 53.9156 85.1735 53.5992 85.043 53.2597C84.9164 52.9202 84.8883 52.5787 84.9586 52.2352C85.0309 51.8937 85.2187 51.5713 85.5221 51.268C85.7832 51.0068 86.0474 50.8391 86.3146 50.7648C86.5817 50.6904 86.8499 50.6854 87.1191 50.7497C87.3883 50.814 87.6534 50.9245 87.9146 51.0811C88.1797 51.2378 88.4369 51.4166 88.686 51.6175C88.9853 51.8606 89.2304 52.0554 89.4212 52.2021C89.6141 52.3467 89.7727 52.4331 89.8973 52.4612C90.0259 52.4893 90.1424 52.4512 90.2468 52.3467L90.2649 52.3286C90.4919 52.1016 90.6004 51.8586 90.5903 51.5994C90.5803 51.3403 90.4487 51.0842 90.1956 50.831C89.9284 50.5639 89.6582 50.4102 89.385 50.37C89.1139 50.3319 88.8718 50.365 88.6589 50.4695L87.785 49.3063C88.1466 49.1055 88.5142 49.003 88.8879 48.999C89.2635 48.993 89.6321 49.0763 89.9937 49.2491C90.3573 49.4198 90.7008 49.6669 91.0242 49.9904C91.2472 50.2133 91.4431 50.4614 91.6118 50.7346C91.7806 51.0078 91.8961 51.2961 91.9584 51.5994C92.0226 51.9007 92.0076 52.2091 91.9132 52.5245C91.8207 52.8419 91.6209 53.1543 91.3135 53.4616L88.2159 56.5592L87.1673 55.5106L87.8031 54.8748L87.7669 54.8387C87.5721 54.9009 87.3581 54.928 87.1251 54.92C86.8961 54.912 86.6571 54.8517 86.408 54.7392C86.1629 54.6267 85.9198 54.4499 85.6788 54.2089ZM86.7635 53.6906C86.9825 53.9096 87.2155 54.0562 87.4626 54.1305C87.7117 54.2029 87.9517 54.2099 88.1828 54.1516C88.4158 54.0954 88.6177 53.9819 88.7884 53.8111L89.3338 53.2657C89.2715 53.2597 89.1872 53.2276 89.0807 53.1693C88.9762 53.1131 88.8648 53.0438 88.7462 52.9614C88.6277 52.879 88.5122 52.7957 88.3997 52.7113C88.2872 52.6269 88.1898 52.5536 88.1074 52.4913C87.9226 52.3507 87.7408 52.2412 87.562 52.1629C87.3832 52.0846 87.2115 52.0534 87.0468 52.0695C86.8841 52.0835 86.7324 52.1609 86.5918 52.3015C86.3909 52.5024 86.3125 52.7274 86.3567 52.9765C86.4009 53.2256 86.5365 53.4636 86.7635 53.6906ZM95.2578 58.0688L94.3629 58.9638L91.8981 56.4989L92.793 55.604L95.2578 58.0688ZM94.9927 54.0793L90.3643 58.7077L89.3127 57.656L93.9411 53.0277L94.9927 54.0793ZM97.8342 56.9208L93.2058 61.5491L92.1572 60.5005L96.7856 55.8722L97.8342 56.9208ZM96.8375 62.2279L101.843 60.9292L102.963 62.0501L98.3351 66.6784L97.2805 65.6238L100.435 62.4689L95.4334 63.7767L94.3094 62.6527L98.9378 58.0244L99.9894 59.076L96.8375 62.2279ZM101.414 69.938C100.95 69.474 100.646 68.9768 100.501 68.4464C100.36 67.9161 100.377 67.3828 100.552 66.8464C100.729 66.308 101.059 65.7968 101.543 65.3127C102.02 64.8366 102.528 64.5091 103.068 64.3304C103.613 64.1516 104.149 64.1255 104.677 64.252C105.208 64.3766 105.694 64.6598 106.136 65.1017C106.421 65.387 106.644 65.7024 106.805 66.0479C106.969 66.3934 107.054 66.759 107.058 67.1447C107.064 67.5324 106.975 67.9302 106.793 68.338C106.612 68.7437 106.318 69.1495 105.913 69.5553L105.578 69.8898L101.785 66.0961L102.52 65.3609L105.268 68.109C105.475 67.898 105.615 67.667 105.69 67.4159C105.766 67.1628 105.772 66.9097 105.708 66.6566C105.645 66.4055 105.51 66.1755 105.301 65.9665C105.078 65.7436 104.828 65.6019 104.551 65.5417C104.275 65.4794 104.003 65.4884 103.734 65.5688C103.469 65.6492 103.232 65.7918 103.023 65.9967L102.381 66.6385C102.112 66.9077 101.93 67.1879 101.836 67.4792C101.743 67.7685 101.734 68.0527 101.809 68.3319C101.885 68.6092 102.042 68.8663 102.279 69.1033C102.437 69.262 102.603 69.3836 102.776 69.4679C102.951 69.5503 103.129 69.5945 103.312 69.6005C103.495 69.6065 103.676 69.5684 103.855 69.486L104.759 70.619C104.425 70.8239 104.068 70.9364 103.686 70.9565C103.308 70.9766 102.925 70.9022 102.535 70.7335C102.147 70.5627 101.773 70.2976 101.414 69.938Z" fill="#FF6F00"/>
</g>
<rect x="57.1953" y="-0.271234" width="98.5" height="28.5" rx="14.25" transform="rotate(45 57.1953 -0.271234)" stroke="#FF6F00" stroke-width="1.5"/>
<g clip-path="url(#clip1_6970_12029)">
<rect x="106.049" y="21.0913" width="85" height="30" rx="15" transform="rotate(20 106.049 21.0913)" fill="#EDE7F6"/>
<path d="M112.263 45.8124L113.424 42.6209L113.973 42.8206C114.211 42.7408 114.458 42.5966 114.716 42.3879C114.973 42.1793 115.242 41.8631 115.523 41.4394C115.804 41.0157 116.101 40.4432 116.411 39.722L117.89 36.3329L123.132 38.2407L120.588 45.2284L121.501 45.5607L120.343 48.7441L118.917 48.2253L119.634 46.2551L114.408 44.3531L113.688 46.3313L112.263 45.8124ZM115.703 43.4502L119.163 44.7095L121.253 38.9672L118.774 38.0651L117.837 40.2408C117.599 40.7862 117.361 41.265 117.124 41.6773C116.886 42.0896 116.647 42.4425 116.407 42.7361C116.168 43.0271 115.934 43.2651 115.703 43.4502ZM124.845 48.2878C124.244 48.0692 123.772 47.7476 123.428 47.323C123.083 46.8984 122.876 46.4043 122.806 45.8407C122.739 45.278 122.821 44.679 123.052 44.0437C123.283 43.4083 123.606 42.8954 124.02 42.505C124.437 42.1156 124.914 41.8689 125.451 41.7649C125.987 41.6609 126.556 41.7183 127.157 41.9369C127.757 42.1555 128.23 42.4771 128.574 42.9017C128.918 43.3263 129.124 43.8213 129.19 44.3866C129.259 44.9529 129.178 45.5537 128.947 46.1891C128.715 46.8244 128.392 47.3355 127.976 47.7223C127.563 48.11 127.088 48.3558 126.551 48.4598C126.014 48.5638 125.446 48.5064 124.845 48.2878ZM125.276 47.1295C125.601 47.248 125.906 47.2577 126.19 47.1585C126.475 47.0566 126.727 46.873 126.944 46.6075C127.164 46.343 127.342 46.0239 127.478 45.6502C127.615 45.2738 127.685 44.9135 127.686 44.5693C127.691 44.2234 127.617 43.9199 127.464 43.6587C127.311 43.3975 127.072 43.2076 126.746 43.0891C126.413 42.9676 126.102 42.9573 125.814 43.0582C125.529 43.1601 125.276 43.3446 125.055 43.6117C124.838 43.8772 124.66 44.1981 124.523 44.5746C124.387 44.9483 124.317 45.3068 124.313 45.65C124.312 45.9941 124.388 46.2968 124.541 46.558C124.697 46.8175 124.942 47.008 125.276 47.1295ZM133.22 49.2908L136.671 45.4905L137.84 45.9161L133.115 51.1617L132.102 50.793L131.91 43.7576L133.067 44.1788L133.22 49.2908ZM132.703 44.0461L130.464 50.1969L129.066 49.6882L131.305 43.5375L132.703 44.0461ZM134.809 51.7782L137.047 45.6275L138.433 46.1318L136.194 52.2825L134.809 51.7782ZM139.381 53.5828C138.991 53.441 138.665 53.2438 138.403 52.9913C138.145 52.7371 137.975 52.4395 137.894 52.0984C137.815 51.7584 137.849 51.3868 137.996 50.9837C138.122 50.6366 138.29 50.373 138.501 50.1927C138.712 50.0124 138.953 49.8945 139.224 49.839C139.495 49.7835 139.782 49.7716 140.085 49.8032C140.392 49.8332 140.7 49.8865 141.011 49.9633C141.385 50.0571 141.689 50.1301 141.924 50.1824C142.16 50.232 142.34 50.2432 142.465 50.2161C142.594 50.1872 142.683 50.1034 142.734 49.9646L142.742 49.9405C142.852 49.6389 142.848 49.3727 142.729 49.1421C142.61 48.9115 142.383 48.735 142.047 48.6126C141.692 48.4833 141.382 48.4582 141.117 48.5373C140.855 48.6173 140.65 48.7496 140.501 48.9343L139.218 48.2495C139.46 47.9146 139.75 47.6664 140.087 47.5048C140.425 47.3406 140.794 47.2604 141.195 47.2641C141.597 47.2652 142.013 47.344 142.442 47.5004C142.739 47.6083 143.021 47.7504 143.289 47.9266C143.558 48.1029 143.784 48.3154 143.969 48.564C144.155 48.8099 144.271 49.0957 144.319 49.4215C144.369 49.7482 144.32 50.1158 144.172 50.5242L142.673 54.6407L141.28 54.1335L141.587 53.2886L141.539 53.2711C141.389 53.4099 141.206 53.5249 140.992 53.6161C140.781 53.7056 140.539 53.752 140.266 53.7553C139.996 53.7569 139.701 53.6994 139.381 53.5828ZM140.145 52.6547C140.436 52.7606 140.709 52.795 140.964 52.7579C141.22 52.7182 141.441 52.6231 141.626 52.4727C141.813 52.3232 141.948 52.1351 142.031 51.9081L142.295 51.1833C142.236 51.2042 142.146 51.2107 142.024 51.2029C141.906 51.1961 141.776 51.1804 141.633 51.1558C141.491 51.1313 141.351 51.1045 141.214 51.0756C141.076 51.0467 140.957 51.0214 140.856 50.9998C140.629 50.9505 140.418 50.9281 140.223 50.9326C140.028 50.9372 139.859 50.9815 139.716 51.0657C139.575 51.1472 139.47 51.2814 139.402 51.4683C139.305 51.7352 139.329 51.9723 139.474 52.1793C139.619 52.3864 139.843 52.5449 140.145 52.6547ZM146.37 49.0205L147.767 49.5292L145.963 54.4866L147.897 55.1905L149.701 50.2331L151.099 50.7418L149.294 55.6992L151.228 56.4031L153.033 51.4457L154.43 51.9544L152.192 58.1051L144.131 55.1712L146.37 49.0205ZM153.656 58.6382L155.895 52.4875L157.344 53.0151L156.441 55.4978L156.969 55.6902L159.723 53.8808L161.469 54.5163L158.092 56.7063L159.254 60.6757L157.5 60.0373L156.658 57.1052L155.95 56.8472L155.106 59.1658L153.656 58.6382ZM162.188 59.5214L166.175 56.2292L167.665 56.7713L165.426 62.922L164.025 62.4119L165.551 58.2194L161.57 61.5185L160.076 60.9749L162.315 54.8242L163.712 55.3328L162.188 59.5214Z" fill="#651FFF"/>
</g>
<rect x="106.497" y="22.0525" width="83.5" height="28.5" rx="14.25" transform="rotate(20 106.497 22.0525)" stroke="#651FFF" stroke-width="1.5"/>
<path d="M19.7167 41.0175C23.138 40.548 25.8996 37.9874 26.6258 34.6112C27.3864 31.075 31.4313 29.3716 34.4926 31.2983C37.4152 33.1378 41.1767 32.9514 43.9031 30.8319C46.7589 28.6119 50.9524 29.907 52.059 33.3507C53.1154 36.6385 56.1167 38.9135 59.5677 39.0424C63.1823 39.1774 65.5622 42.865 64.1964 46.2143C62.8923 49.412 63.7291 53.0839 66.2898 55.4009C68.972 57.8278 68.4247 62.1825 65.2255 63.8702C62.1711 65.4816 60.4519 68.8323 60.9242 72.2532C61.4189 75.8364 58.2005 78.8205 54.6649 78.057C51.2894 77.328 47.8185 78.7897 45.9814 81.7139C44.0572 84.7767 39.6736 84.994 37.456 82.1364C35.3387 79.4083 31.7403 78.297 28.4534 79.3561C25.0106 80.4655 21.513 77.8143 21.6509 74.1998C21.7826 70.7489 19.7405 67.5846 16.5417 66.2832C13.1913 64.9201 12.2161 60.6408 14.6451 57.9607C16.9642 55.4018 17.4338 51.6651 15.8199 48.6121C14.1295 45.4142 16.1332 41.5093 19.7167 41.0175Z" fill="#EEF3FF" stroke="#214ECC" stroke-width="3"/>
<path d="M24.8274 48.8262C25.2311 48.966 25.5506 49.1614 25.786 49.4122C26.0206 49.6615 26.1692 49.9424 26.2316 50.2549C26.2945 50.5662 26.2692 50.8859 26.1556 51.2139C26.0419 51.5419 25.864 51.8094 25.6216 52.0163C25.3784 52.2216 25.0873 52.3503 24.7484 52.4022C24.4087 52.4526 24.0376 52.408 23.6352 52.2687C23.2316 52.1289 22.9124 51.9343 22.6778 51.6851C22.4424 51.4342 22.2933 51.1531 22.2304 50.8418C22.1679 50.5293 22.1935 50.209 22.3071 49.881C22.4207 49.553 22.5985 49.2861 22.8404 49.0804C23.0828 48.8734 23.3739 48.7448 23.7136 48.6945C24.0525 48.6425 24.4238 48.6864 24.8274 48.8262ZM24.5911 49.5085C24.307 49.4101 24.052 49.3716 23.8261 49.3931C23.5993 49.4129 23.4089 49.4835 23.2549 49.6049C23.0996 49.726 22.9867 49.8883 22.9162 50.092C22.8456 50.2956 22.8339 50.493 22.8811 50.6841C22.927 50.8748 23.0327 51.0487 23.1982 51.2057C23.3629 51.3611 23.5874 51.488 23.8715 51.5864C24.1556 51.6848 24.411 51.7241 24.6378 51.7043C24.8637 51.6829 25.0543 51.6116 25.2096 51.4906C25.3636 51.3691 25.4759 51.2066 25.5465 51.0029C25.617 50.7993 25.6293 50.6021 25.5834 50.4114C25.5362 50.2203 25.4303 50.047 25.2656 49.8916C25.1001 49.7346 24.8753 49.6069 24.5911 49.5085Z" fill="#214ECC"/>
<path d="M27.5027 49.767L26.2868 48.9951L26.4134 48.7957C26.4059 48.7161 26.3782 48.6358 26.3302 48.5549C26.2811 48.4733 26.2153 48.3902 26.1329 48.3058C26.05 48.2196 25.953 48.1305 25.8418 48.0384C25.7294 47.9457 25.6068 47.8488 25.4738 47.7476L24.6403 47.1175L25.7919 45.3035L27.815 46.5879L28.062 46.1989L29.2778 46.9708L28.9147 47.5428L28.1858 47.0801L27.1432 48.7225L27.8721 49.1852L27.5027 49.767ZM26.7994 48.1878L27.4561 47.1533L25.9101 46.1719L25.4432 46.9073L25.8204 47.2017C26.0724 47.3923 26.2817 47.5657 26.4485 47.722C26.6152 47.8783 26.7322 48.0336 26.7994 48.1878Z" fill="#214ECC"/>
<path d="M29.6483 45.4352C29.4472 45.6446 29.2268 45.7818 28.9872 45.8469C28.7475 45.912 28.5042 45.9073 28.2572 45.8329C28.0111 45.7575 27.7773 45.6135 27.5557 45.4007C27.3342 45.188 27.1804 44.9597 27.0943 44.7159C27.009 44.4712 26.9941 44.2278 27.0494 43.9857C27.1048 43.7437 27.233 43.5179 27.4342 43.3085C27.6353 43.0991 27.8557 42.9619 28.0953 42.8968C28.335 42.8317 28.5783 42.8373 28.8254 42.9136C29.0733 42.9889 29.3081 43.1329 29.5296 43.3457C29.7511 43.5584 29.904 43.7867 29.9883 44.0306C30.0735 44.2734 30.0884 44.5159 30.0331 44.758C29.9777 45 29.8495 45.2258 29.6483 45.4352ZM29.2462 45.0435C29.3552 44.93 29.4152 44.8051 29.4262 44.6689C29.4362 44.5318 29.406 44.3937 29.3357 44.2545C29.2662 44.1145 29.1664 43.9819 29.0361 43.8567C28.9048 43.7307 28.7678 43.6358 28.6251 43.572C28.4823 43.5064 28.3426 43.4814 28.206 43.497C28.0694 43.5125 27.9466 43.577 27.8375 43.6906C27.7258 43.8069 27.6645 43.9341 27.6536 44.0721C27.6435 44.2092 27.6737 44.3483 27.7441 44.4892C27.8144 44.6284 27.9152 44.761 28.0465 44.887C28.1768 45.0122 28.3128 45.1071 28.4547 45.1718C28.5975 45.2355 28.7371 45.2596 28.8737 45.2441C29.0103 45.2267 29.1344 45.1599 29.2462 45.0435Z" fill="#214ECC"/>
<path d="M30.4875 39.4276L30.9471 39.6588C30.9192 39.7697 30.871 39.8696 30.8025 39.9585C30.734 40.0474 30.6435 40.1375 30.531 40.2289C30.4188 40.3184 30.283 40.4214 30.1235 40.5378C29.9446 40.6694 29.8201 40.8077 29.75 40.9529C29.68 41.098 29.6601 41.2576 29.6906 41.4316C29.7203 41.6046 29.7963 41.7987 29.9187 42.0139L29.9456 41.9951C29.9174 41.7927 29.9446 41.6043 30.0273 41.4299C30.1099 41.2554 30.2438 41.1034 30.4288 40.9739C30.6307 40.8326 30.8406 40.7533 31.0586 40.7362C31.2769 40.7172 31.4894 40.763 31.696 40.8736C31.9036 40.9834 32.0926 41.1599 32.2628 41.4031C32.4382 41.6536 32.5432 41.9038 32.5779 42.1536C32.6119 42.4024 32.577 42.6371 32.4732 42.8579C32.3704 43.0779 32.2007 43.2708 31.9638 43.4366C31.7281 43.6016 31.4871 43.6939 31.2409 43.7135C30.995 43.7313 30.7538 43.6725 30.5173 43.5372C30.2811 43.4001 30.059 43.183 29.851 42.886L29.6978 42.6671C29.2967 42.0942 29.1041 41.5918 29.12 41.16C29.1359 40.7283 29.3519 40.3628 29.7679 40.0637C29.8912 39.9743 30.0023 39.8956 30.1014 39.8279C30.2015 39.7594 30.2848 39.6939 30.3514 39.6315C30.418 39.5692 30.4634 39.5012 30.4875 39.4276ZM31.6451 42.9745C31.7624 42.8923 31.8428 42.7912 31.8862 42.6709C31.9289 42.5497 31.9338 42.4171 31.9008 42.2732C31.8689 42.1286 31.7992 41.9796 31.6919 41.8264C31.5861 41.6752 31.4729 41.563 31.3524 41.4899C31.2311 41.4157 31.108 41.3805 30.9832 41.3844C30.8583 41.3884 30.7367 41.4318 30.6183 41.5147C30.5295 41.5768 30.4608 41.6486 30.4122 41.7299C30.3635 41.8112 30.3358 41.8999 30.3291 41.996C30.3223 42.0921 30.3365 42.1933 30.3715 42.2995C30.4065 42.4057 30.4629 42.5167 30.5407 42.6323C30.7013 42.8618 30.8808 43.0078 31.0791 43.0706C31.2767 43.1324 31.4654 43.1003 31.6451 42.9745Z" fill="#214ECC"/>
<path d="M33.7924 43.4559L32.131 39.7204L32.7606 39.4404L32.9604 39.8896L32.9976 39.8731C33.0012 39.7924 33.0166 39.7015 33.0437 39.6005C33.0703 39.4983 33.123 39.3978 33.202 39.2991C33.2805 39.1993 33.3993 39.1139 33.5585 39.0431C33.7684 38.9498 33.9815 38.9193 34.1978 38.9516C34.4148 38.9822 34.6192 39.0798 34.8111 39.2445C35.0036 39.4074 35.167 39.6398 35.3013 39.9417C35.434 40.24 35.4978 40.5153 35.4927 40.7675C35.4877 41.0197 35.4252 41.2382 35.3054 41.4228C35.1856 41.6075 35.0189 41.7472 34.8055 41.8422C34.6499 41.9114 34.5092 41.9429 34.3836 41.9366C34.2579 41.9304 34.1476 41.9046 34.0526 41.8593C33.9582 41.8123 33.8792 41.7633 33.8157 41.7125L33.7892 41.7243L34.4326 43.1711L33.7924 43.4559ZM33.363 40.7995C33.4411 40.9752 33.5343 41.1181 33.6426 41.2281C33.752 41.3376 33.8704 41.4085 33.9978 41.4408C34.1258 41.4715 34.2576 41.4566 34.3932 41.3963C34.5347 41.3334 34.6365 41.243 34.6984 41.125C34.7598 41.0059 34.7853 40.8695 34.7749 40.716C34.7652 40.5607 34.7226 40.3982 34.6471 40.2284C34.5721 40.0598 34.4813 39.9208 34.3747 39.8114C34.2682 39.702 34.1506 39.6314 34.0221 39.5996C33.8935 39.5678 33.7579 39.5836 33.6152 39.6471C33.4785 39.7079 33.3783 39.7956 33.3148 39.91C33.2513 40.0244 33.2236 40.1574 33.2318 40.3092C33.2411 40.4604 33.2849 40.6238 33.363 40.7995Z" fill="#214ECC"/>
<path d="M37.3242 41.0203C37.0337 41.0873 36.7689 41.0849 36.5298 41.0129C36.2917 40.9394 36.0903 40.8045 35.9258 40.608C35.7609 40.4103 35.6435 40.16 35.5736 39.8569C35.5048 39.5589 35.501 39.2843 35.5622 39.0331C35.6244 38.7804 35.7434 38.5675 35.9194 38.3944C36.095 38.2201 36.3211 38.101 36.5978 38.0372C36.7763 37.9959 36.9515 37.986 37.1233 38.0072C37.296 38.0269 37.4572 38.0825 37.6067 38.1738C37.7575 38.2648 37.8895 38.3946 38.0026 38.5631C38.1154 38.7305 38.2011 38.9411 38.2597 39.1951L38.308 39.4045L35.9334 39.9527L35.8272 39.4925L37.5473 39.0954C37.5159 38.9649 37.4607 38.8551 37.3819 38.766C37.3028 38.6757 37.2067 38.6124 37.0937 38.5763C36.982 38.5398 36.8608 38.5367 36.73 38.5669C36.5904 38.5991 36.4757 38.6613 36.3857 38.7536C36.2955 38.8446 36.2334 38.9517 36.1996 39.0747C36.1667 39.1962 36.1646 39.3219 36.1932 39.4517L36.286 39.8534C36.3249 40.0219 36.3891 40.1594 36.4785 40.2659C36.5677 40.3711 36.675 40.443 36.8005 40.4816C36.9257 40.5189 37.0624 40.5205 37.2108 40.4862C37.3102 40.4633 37.3969 40.4287 37.471 40.3825C37.5448 40.335 37.6048 40.2767 37.6511 40.2078C37.6975 40.1388 37.7263 40.0599 37.7376 39.9713L38.3917 39.8958C38.3903 40.0735 38.3476 40.2384 38.2634 40.3902C38.1803 40.5405 38.0593 40.6705 37.9004 40.78C37.7413 40.8882 37.5492 40.9683 37.3242 41.0203Z" fill="#214ECC"/>
<path d="M41.0091 38.7569L41.0275 39.3315L39.4448 39.3822L39.4265 38.8075L41.0091 38.7569ZM39.6049 37.6049L39.7 40.5767L39.0247 40.5983L38.9297 37.6265L39.6049 37.6049ZM41.4294 37.5466L41.5244 40.5184L40.8511 40.5399L40.7561 37.5681L41.4294 37.5466Z" fill="#214ECC"/>
<path d="M43.4079 40.8025C43.1213 40.7558 42.8832 40.6522 42.6937 40.4918C42.5041 40.3314 42.3698 40.1284 42.2909 39.8828C42.2133 39.6374 42.1992 39.3631 42.2486 39.06C42.2981 38.7569 42.3987 38.5007 42.5505 38.2914C42.7036 38.0823 42.8955 37.9319 43.1263 37.8401C43.357 37.7483 43.6156 37.7257 43.9022 37.7725C44.1888 37.8192 44.4268 37.9228 44.6164 38.0832C44.806 38.2436 44.9395 38.4471 45.017 38.6938C45.0957 38.9407 45.1103 39.2157 45.0608 39.5188C45.0114 39.8219 44.9102 40.0774 44.7573 40.2852C44.6057 40.4932 44.4146 40.6431 44.1838 40.7349C43.9531 40.8267 43.6945 40.8493 43.4079 40.8025ZM43.5021 40.2491C43.6575 40.2744 43.7944 40.253 43.9127 40.1847C44.0313 40.1151 44.1279 40.0119 44.2025 39.875C44.2784 39.7383 44.3309 39.5808 44.36 39.4025C44.3893 39.2229 44.3897 39.0563 44.3612 38.9026C44.3341 38.7478 44.2754 38.6186 44.1851 38.5149C44.0948 38.4113 43.972 38.3468 43.8166 38.3214C43.6574 38.2955 43.5178 38.3171 43.398 38.3865C43.2794 38.4561 43.1821 38.5598 43.106 38.6978C43.0313 38.8347 42.9794 38.9929 42.9501 39.1725C42.921 39.3508 42.9201 39.5167 42.9473 39.6702C42.9759 39.8239 43.0353 39.9526 43.1256 40.0563C43.2174 40.1588 43.3429 40.2231 43.5021 40.2491Z" fill="#214ECC"/>
<path d="M48.4562 42.5305C48.197 42.386 48.0061 42.2049 47.8836 41.9874C47.7622 41.7705 47.7073 41.5338 47.7189 41.2772C47.7322 41.0201 47.8121 40.7603 47.9585 40.4977C48.1056 40.234 48.2861 40.0295 48.5 39.8843C48.7146 39.738 48.9457 39.66 49.1934 39.6504C49.4428 39.6402 49.6944 39.7059 49.948 39.8473C50.1587 39.9648 50.3236 40.1077 50.4425 40.276C50.5632 40.4438 50.6328 40.6251 50.6511 40.82C50.6701 41.0139 50.6342 41.2081 50.5434 41.4027L49.9585 41.0765C50.0045 40.9382 50.0063 40.8026 49.9638 40.6695C49.923 40.5359 49.8288 40.428 49.6811 40.3457C49.556 40.2759 49.4273 40.2484 49.2949 40.2633C49.1631 40.277 49.0359 40.3316 48.9132 40.4272C48.7916 40.5234 48.682 40.6588 48.5846 40.8335C48.486 41.0105 48.427 41.1771 48.4079 41.3334C48.3893 41.4885 48.4077 41.6266 48.4629 41.7475C48.5198 41.8679 48.612 41.9636 48.7394 42.0346C48.8295 42.0849 48.9195 42.1129 49.0094 42.1187C49.101 42.124 49.1893 42.1075 49.2742 42.0691C49.3591 42.0308 49.4367 41.9699 49.5069 41.8864L50.0918 42.2125C49.9748 42.3881 49.8298 42.5208 49.6571 42.6106C49.485 42.6994 49.296 42.7388 49.0902 42.729C48.8851 42.718 48.6737 42.6518 48.4562 42.5305Z" fill="#214ECC"/>
<path d="M51.4311 41.4459L51.7988 41.004L53.7987 42.668L53.431 43.1099L52.6915 42.4946L51.1574 44.3382L50.6366 43.9049L52.1707 42.0613L51.4311 41.4459Z" fill="#214ECC"/>
<path d="M51.5151 46.1855C51.454 46.1121 51.4034 46.0393 51.3633 45.9669C51.323 45.8963 51.295 45.8365 51.2793 45.7874L51.8028 45.563C51.8452 45.6603 51.8925 45.7393 51.9447 45.8C51.9969 45.8606 52.0613 45.8986 52.1378 45.9138C52.2141 45.9308 52.309 45.9198 52.4226 45.8806L52.5844 45.8239L54.2266 43.0529L54.7023 43.6241L53.4155 45.5877L53.4353 45.6115L55.6005 44.7024L56.0774 45.275L52.7543 46.4936C52.5978 46.5518 52.4471 46.5816 52.3022 46.583C52.1563 46.5853 52.018 46.5544 51.8873 46.4902C51.7565 46.4279 51.6324 46.3263 51.5151 46.1855Z" fill="#214ECC"/>
<path d="M53.1119 47.618L54.3793 46.9341L54.4914 47.1419C54.5646 47.1742 54.6482 47.1893 54.7423 47.1869C54.8375 47.1839 54.942 47.1671 55.056 47.1364C55.1717 47.1062 55.2968 47.0651 55.4315 47.013C55.5672 46.9602 55.7118 46.9006 55.865 46.834L56.822 46.4144L57.8423 48.3054L55.7333 49.4434L55.9521 49.8488L54.6847 50.5327L54.3629 49.9365L55.1227 49.5265L54.1989 47.8144L53.4391 48.2244L53.1119 47.618ZM54.8334 47.7756L55.4153 48.854L57.0268 47.9844L56.6132 47.2178L56.172 47.403C55.8827 47.5298 55.6291 47.6278 55.4112 47.697C55.1934 47.7661 55.0008 47.7923 54.8334 47.7756Z" fill="#214ECC"/>
<path d="M55.8744 51.7004C55.7883 51.415 55.7732 51.1506 55.8292 50.9073C55.8868 50.6648 56.0082 50.455 56.1933 50.2778C56.3797 50.1002 56.6217 49.9665 56.9195 49.8767C57.2123 49.7884 57.486 49.7664 57.7407 49.8109C57.997 49.8562 58.2173 49.9609 58.4017 50.1251C58.5872 50.2888 58.721 50.5066 58.803 50.7784C58.8559 50.9538 58.8774 51.1279 58.8676 51.3007C58.8593 51.4744 58.8146 51.6389 58.7334 51.7941C58.6525 51.9506 58.5318 52.0909 58.371 52.2149C58.2115 52.3385 58.007 52.4379 57.7574 52.5132L57.5517 52.5753L56.8477 50.2421L57.2999 50.1057L57.8099 51.7958C57.938 51.7558 58.0439 51.6935 58.1275 51.6089C58.2125 51.524 58.2692 51.424 58.2978 51.3089C58.3268 51.195 58.3219 51.0738 58.2832 50.9453C58.2418 50.8082 58.1721 50.6978 58.0741 50.6141C57.9773 50.5301 57.8664 50.4753 57.7414 50.4496C57.618 50.4249 57.4925 50.4311 57.3648 50.4682L56.9701 50.5873C56.8045 50.6373 56.6716 50.7104 56.5713 50.8067C56.4721 50.9027 56.4075 51.0145 56.3773 51.1422C56.3483 51.2696 56.3558 51.4062 56.3998 51.552C56.4293 51.6496 56.4695 51.7338 56.5205 51.8047C56.5728 51.8752 56.6349 51.9313 56.7068 51.9729C56.7786 52.0146 56.8592 52.0381 56.9485 52.0435L57.067 52.6912C56.8896 52.7016 56.7223 52.6698 56.5652 52.5959C56.4097 52.5229 56.2721 52.4107 56.1523 52.2595C56.0338 52.1079 55.9411 51.9215 55.8744 51.7004Z" fill="#214ECC"/>
<path d="M58.3642 55.1532L57.7923 55.212L57.6306 53.6368L58.2025 53.5781L58.3642 55.1532ZM59.4147 53.6716L56.457 53.9752L56.388 53.3032L59.3457 52.9995L59.4147 53.6716ZM59.6011 55.4874L56.6434 55.7911L56.5746 55.121L59.5323 54.8173L59.6011 55.4874Z" fill="#214ECC"/>
<path d="M59.0557 56.33L59.6289 56.3738L59.4306 58.9679L58.8574 58.9241L58.9307 57.9648L56.5393 57.782L56.591 57.1065L58.9823 57.2893L59.0557 56.33Z" fill="#214ECC"/>
<path d="M56.1323 59.9179C56.1814 59.736 56.258 59.581 56.3622 59.4527C56.4672 59.326 56.5953 59.2376 56.7465 59.1875C56.8974 59.1387 57.0669 59.1397 57.255 59.1905C57.417 59.2342 57.5428 59.3003 57.6326 59.3887C57.7223 59.4771 57.785 59.5816 57.8206 59.7021C57.8563 59.8227 57.8728 59.9521 57.8702 60.0904C57.8685 60.2303 57.8563 60.3721 57.8336 60.5157C57.8056 60.6886 57.7843 60.8292 57.7698 60.9375C57.7565 61.0462 57.7584 61.1283 57.7755 61.1837C57.7935 61.2407 57.8349 61.2779 57.8997 61.2954L57.9109 61.2985C58.0517 61.3365 58.172 61.3242 58.2718 61.2616C58.3716 61.1989 58.4426 61.0891 58.485 60.9322C58.5298 60.7665 58.5291 60.6253 58.4831 60.5086C58.4368 60.3931 58.3689 60.3053 58.2796 60.2451L58.5398 59.6377C58.7008 59.7346 58.8243 59.8562 58.9105 60.0024C58.9979 60.149 59.0485 60.313 59.0623 60.4945C59.0774 60.6764 59.0579 60.8676 59.0037 61.0682C58.9664 61.2065 58.913 61.3398 58.8436 61.4681C58.7742 61.5964 58.6868 61.7071 58.5815 61.8003C58.4773 61.8938 58.3525 61.9577 58.2069 61.9919C58.061 62.0274 57.8927 62.0194 57.7021 61.9679L55.781 61.4492L55.9566 60.7988L56.3509 60.9053L56.3569 60.8829C56.2883 60.8202 56.2292 60.7421 56.1796 60.6485C56.1309 60.5565 56.1006 60.4487 56.0885 60.3252C56.0773 60.2032 56.0919 60.0674 56.1323 59.9179ZM56.5819 60.2278C56.5453 60.3636 56.5403 60.4886 56.5669 60.6027C56.5948 60.7172 56.6464 60.8133 56.7216 60.8911C56.7965 60.9702 56.8869 61.024 56.9928 61.0526L57.3311 61.1439C57.3194 61.118 57.3129 61.0775 57.3118 61.0224C57.3103 60.9685 57.3123 60.9089 57.3179 60.8436C57.3235 60.7783 57.3302 60.7139 57.338 60.6505C57.3458 60.5871 57.3526 60.5321 57.3585 60.4856C57.372 60.381 57.374 60.2846 57.3644 60.1965C57.3547 60.1083 57.3281 60.0336 57.2845 59.9724C57.2421 59.9115 57.1773 59.8693 57.0901 59.8457C56.9655 59.8121 56.8592 59.8322 56.7711 59.906C56.683 59.9798 56.6199 60.087 56.5819 60.2278Z" fill="#214ECC"/>
<path d="M55.5947 63.8548L57.0964 65.6387L56.834 66.1393L54.7588 63.6941L54.9862 63.2604L58.1651 63.6002L57.9053 64.0957L55.5947 63.8548ZM57.9871 63.9397L55.3537 62.5592L55.6674 61.9608L58.3008 63.3413L57.9871 63.9397ZM54.3786 64.4193L57.012 65.7998L56.701 66.393L54.0676 65.0125L54.3786 64.4193Z" fill="#214ECC"/>
<path d="M54.0127 66.589L54.7876 68.8063L54.322 69.3557L52.0538 67.4332L52.4919 66.9164L54.038 68.2268L53.2591 66.0112L53.726 65.4604L55.9941 67.3828L55.5573 67.8982L54.0127 66.589Z" fill="#214ECC"/>
<path d="M49.6789 68.4091L50.3889 69.6622L50.1835 69.7786C50.1526 69.8524 50.1393 69.9363 50.1436 70.0303C50.1486 70.1254 50.1676 70.2296 50.2006 70.3429C50.2332 70.4579 50.2769 70.5822 50.3318 70.7158C50.3873 70.8504 50.4499 70.9937 50.5197 71.1455L50.959 72.0936L49.0895 73.1528L47.9081 71.0678L47.5073 71.2949L46.7973 70.0419L47.3868 69.7079L47.8124 70.459L49.505 69.5L49.0794 68.7489L49.6789 68.4091ZM49.5569 70.1336L48.4909 70.7376L49.3936 72.3308L50.1515 71.9014L49.9572 71.4642C49.8244 71.1775 49.7212 70.926 49.6475 70.7097C49.5739 70.4933 49.5437 70.3013 49.5569 70.1336Z" fill="#214ECC"/>
<path d="M33.4679 68.9239C33.5466 68.978 33.6151 69.0345 33.6733 69.0933C33.7312 69.1503 33.7743 69.2003 33.8027 69.2433L33.3594 69.601C33.2922 69.5188 33.2253 69.4556 33.1586 69.4113C33.092 69.367 33.0198 69.3479 32.942 69.3539C32.8639 69.3582 32.7755 69.3945 32.6768 69.4629L32.5363 69.5613L31.7051 72.6732L31.0926 72.2521L31.8002 70.0136L31.7746 69.996L29.9362 71.4569L29.3221 71.0347L32.1916 68.9625C32.3266 68.8642 32.4636 68.7948 32.6027 68.7542C32.7425 68.7125 32.884 68.7049 33.0272 68.7313C33.17 68.7559 33.3169 68.8201 33.4679 68.9239Z" fill="#214ECC"/>
<path d="M31.538 67.9641L30.5032 68.9658L30.3389 68.7961C30.2597 68.7847 30.1752 68.793 30.0853 68.8207C29.9945 68.8493 29.8984 68.8938 29.797 68.9543C29.6938 69.0146 29.5844 69.0881 29.4689 69.1748C29.3525 69.2623 29.2296 69.3589 29.1001 69.4645L28.2925 70.1276L26.7982 68.5837L28.5201 66.917L28.1997 66.586L29.2345 65.5843L29.7057 66.0711L29.0854 66.6716L30.4384 68.0694L31.0587 67.469L31.538 67.9641ZM29.8381 68.2787L28.9859 67.3982L27.6701 68.6718L28.276 69.2977L28.6504 68.9999C28.8946 68.7995 29.1122 68.6365 29.3032 68.5109C29.4941 68.3853 29.6724 68.3079 29.8381 68.2787Z" fill="#214ECC"/>
<path d="M27.7915 64.7976C27.952 65.0488 28.0385 65.2991 28.0509 65.5485C28.0615 65.7975 28.0018 66.0324 27.8719 66.2533C27.7409 66.4749 27.5444 66.6694 27.2823 66.8369C27.0246 67.0016 26.7672 67.0973 26.51 67.1238C26.251 67.15 26.0105 67.1092 25.7885 67.0014C25.5654 66.8944 25.3774 66.7213 25.2245 66.4821C25.1258 66.3277 25.0577 66.166 25.0201 65.997C24.9808 65.8276 24.9791 65.6572 25.015 65.4857C25.0501 65.3131 25.1282 65.1453 25.2491 64.9822C25.3689 64.8199 25.5387 64.6685 25.7583 64.5281L25.9394 64.4124L27.2519 66.4658L26.8539 66.7202L25.9032 65.2327C25.7908 65.3061 25.7058 65.3948 25.6483 65.499C25.5897 65.6038 25.5624 65.7155 25.5662 65.8341C25.5693 65.9515 25.607 66.0668 25.6792 66.1799C25.7564 66.3006 25.8535 66.3879 25.9706 66.4417C26.0866 66.4962 26.2083 66.5187 26.3355 66.5094C26.461 66.4996 26.5801 66.4595 26.6928 66.389L27.0402 66.1669C27.1859 66.0738 27.2939 65.9672 27.3642 65.8472C27.4335 65.7279 27.4652 65.6027 27.4595 65.4716C27.4527 65.3411 27.4083 65.2118 27.3263 65.0835C27.2714 64.9976 27.2098 64.9275 27.1414 64.8732C27.0719 64.8196 26.9969 64.7825 26.9164 64.762C26.8359 64.7414 26.7519 64.7407 26.6646 64.7598L26.3742 64.1689C26.5421 64.1106 26.7117 64.0956 26.883 64.1239C27.0525 64.1519 27.2155 64.2223 27.3719 64.3353C27.5272 64.4489 27.6671 64.603 27.7915 64.7976Z" fill="#214ECC"/>
<path d="M24.4523 62.1386L24.9865 61.9261L25.5718 63.3974L25.0377 63.6099L24.4523 62.1386ZM23.846 63.8507L26.6086 62.7516L26.8584 63.3793L24.0957 64.4784L23.846 63.8507ZM23.1712 62.1546L25.9338 61.0555L26.1829 61.6814L23.4202 62.7805L23.1712 62.1546Z" fill="#214ECC"/>
<path d="M23.4642 61.1732L22.9004 61.2855L22.3922 58.734L22.9561 58.6217L23.144 59.5652L25.4962 59.0967L25.6285 59.7612L23.2763 60.2296L23.4642 61.1732Z" fill="#214ECC"/>
<path d="M25.3166 56.6095C25.3208 56.8998 25.2606 57.1523 25.136 57.3671C25.0113 57.5819 24.835 57.7496 24.607 57.8704C24.379 57.9899 24.1115 58.0518 23.8044 58.0563C23.4973 58.0608 23.2274 58.0066 22.9947 57.8938C22.7621 57.7798 22.5803 57.6172 22.4495 57.4062C22.3186 57.1951 22.2511 56.9444 22.2469 56.6541C22.2426 56.3638 22.3029 56.1112 22.4275 55.8964C22.5522 55.6817 22.7291 55.5145 22.9584 55.3951C23.1877 55.2743 23.4559 55.2117 23.763 55.2072C24.0701 55.2027 24.3393 55.2575 24.5707 55.3716C24.8021 55.4844 24.9832 55.6463 25.114 55.8574C25.2449 56.0684 25.3124 56.3191 25.3166 56.6095ZM24.7553 56.6137C24.753 56.4563 24.7078 56.3253 24.6198 56.2208C24.5305 56.1162 24.412 56.0392 24.2641 55.9898C24.1163 55.939 23.952 55.9149 23.7714 55.9176C23.5894 55.9202 23.4253 55.949 23.2789 56.0041C23.1313 56.0579 23.0144 56.1383 22.9282 56.2454C22.842 56.3525 22.8 56.4847 22.8023 56.6421C22.8047 56.8034 22.8505 56.937 22.9398 57.0428C23.0291 57.1473 23.1483 57.225 23.2974 57.2757C23.4453 57.3252 23.6102 57.3486 23.7921 57.346C23.9728 57.3433 24.1363 57.3152 24.2826 57.2614C24.429 57.2064 24.5452 57.1253 24.6314 57.0182C24.7163 56.9099 24.7576 56.775 24.7553 56.6137Z" fill="#214ECC"/>
<rect x="27.7285" y="46.8216" width="22.577" height="22.577" rx="11.2885" transform="rotate(-10 27.7285 46.8216)" fill="#214ECC"/>
<path d="M38.7696 53.6271C39.0012 52.0211 41.1486 51.6424 41.9155 53.0724V53.0724C42.1679 53.543 42.6288 53.8657 43.1573 53.9419V53.9419C44.7634 54.1735 45.142 56.3209 43.712 57.0878V57.0878C43.2414 57.3402 42.9187 57.8011 42.8425 58.3296V58.3296C42.6109 59.9357 40.4635 60.3143 39.6966 58.8843V58.8843C39.4442 58.4138 38.9833 58.091 38.4548 58.0148V58.0148C36.8487 57.7832 36.4701 55.6358 37.9001 54.8689V54.8689C38.3707 54.6165 38.6934 54.1557 38.7696 53.6271V53.6271Z" fill="white"/>
<mask id="path-37-inside-1_6970_12029" fill="white">
<path d="M0 56C0 48.268 6.26801 42 14 42H174C181.732 42 188 48.268 188 56V56C188 63.732 181.732 70 174 70H14C6.26801 70 0 63.732 0 56V56Z"/>
</mask>
<path d="M0 42H188H0ZM188 56C188 64.8366 180.837 72 172 72H16C7.16344 72 0 64.8366 0 56C0 62.6274 6.26801 68 14 68H174C181.732 68 188 62.6274 188 56ZM0 70V42V70ZM188 42V70V42Z" fill="white" mask="url(#path-37-inside-1_6970_12029)"/>
</g>
<defs>
<clipPath id="clip0_6970_12029">
<rect x="57.1953" y="-1.33189" width="100" height="30" rx="15" transform="rotate(45 57.1953 -1.33189)" fill="white"/>
</clipPath>
<clipPath id="clip1_6970_12029">
<rect x="106.049" y="21.0913" width="85" height="30" rx="15" transform="rotate(20 106.049 21.0913)" fill="white"/>
</clipPath>
</defs>
</svg>
