<svg width="162" height="171" viewBox="0 0 162 171" fill="none" xmlns="http://www.w3.org/2000/svg">
<path d="M54 150.75H108M81 123.75V150.75M45.9 123.75H116.1C127.441 123.75 133.112 123.75 137.443 121.543C141.254 119.601 144.351 116.504 146.293 112.693C148.5 108.362 148.5 102.691 148.5 91.35V61.65C148.5 50.3089 148.5 44.6384 146.293 40.3067C144.351 36.4964 141.254 33.3986 137.443 31.4571C133.112 29.25 127.441 29.25 116.1 29.25H45.9C34.5589 29.25 28.8884 29.25 24.5567 31.4571C20.7464 33.3986 17.6486 36.4964 15.7071 40.3067C13.5 44.6384 13.5 50.3089 13.5 61.65V91.35C13.5 102.691 13.5 108.362 15.7071 112.693C17.6486 116.504 20.7464 119.601 24.5567 121.543C28.8884 123.75 34.5589 123.75 45.9 123.75Z" stroke="#214ECC" stroke-width="10" stroke-linecap="round" stroke-linejoin="round"/>
<path d="M116.314 14.25H45.6857L45.6443 14.25C40.1896 14.2499 35.733 14.2499 32.1112 14.5458C28.3633 14.852 24.9853 15.5048 21.8328 17.1111C16.8935 19.6278 12.8778 23.6435 10.3611 28.5828C8.75477 31.7353 8.10204 35.1133 7.79582 38.8613C7.49991 42.483 7.49995 46.9397 7.5 52.3943L7.5 52.4357V82.5643L7.5 82.6057C7.49995 88.0604 7.49991 92.517 7.79582 96.1387C8.10204 99.8867 8.75477 103.265 10.3611 106.417C12.8778 111.357 16.8935 115.372 21.8328 117.889C24.9853 119.495 28.3633 120.148 32.1112 120.454C35.733 120.75 40.1896 120.75 45.6443 120.75H45.6856H75V135.75H54C50.6863 135.75 48 138.436 48 141.75C48 145.064 50.6863 147.75 54 147.75H108C111.314 147.75 114 145.064 114 141.75C114 138.436 111.314 135.75 108 135.75H87V120.75H116.314H116.356C121.81 120.75 126.267 120.75 129.889 120.454C133.637 120.148 137.015 119.495 140.167 117.889C145.106 115.372 149.122 111.357 151.639 106.417C153.245 103.265 153.898 99.8867 154.204 96.1388C154.5 92.5171 154.5 88.0606 154.5 82.6061V82.5645V52.4356V52.3939C154.5 46.9394 154.5 42.4829 154.204 38.8612C153.898 35.1133 153.245 31.7353 151.639 28.5828C149.122 23.6435 145.107 19.6278 140.167 17.1111C137.015 15.5048 133.637 14.852 129.889 14.5458C126.267 14.2499 121.81 14.2499 116.356 14.25L116.314 14.25ZM128.912 108.494C125.836 108.745 121.87 108.75 116.1 108.75H45.9C40.1301 108.75 36.1641 108.745 33.0884 108.494C30.0824 108.248 28.4595 107.798 27.2806 107.197C24.5993 105.831 22.4194 103.651 21.0532 100.969C20.4525 99.7905 20.0016 98.1676 19.756 95.1616C19.5047 92.0859 19.5 88.1199 19.5 82.35V52.65C19.5 46.8801 19.5047 42.9141 19.756 39.8384C20.0016 36.8324 20.4525 35.2095 21.0532 34.0306C22.4194 31.3493 24.5993 29.1694 27.2806 27.8032C28.4595 27.2025 30.0824 26.7516 33.0884 26.506C36.1641 26.2547 40.1301 26.25 45.9 26.25H116.1C121.87 26.25 125.836 26.2547 128.912 26.506C131.918 26.7516 133.54 27.2025 134.719 27.8032C137.401 29.1694 139.581 31.3493 140.947 34.0306C141.548 35.2095 141.998 36.8324 142.244 39.8384C142.495 42.9141 142.5 46.8801 142.5 52.65V82.35C142.5 88.1199 142.495 92.0859 142.244 95.1616C141.998 98.1676 141.548 99.7905 140.947 100.969C139.581 103.651 137.401 105.831 134.719 107.197C133.54 107.798 131.918 108.248 128.912 108.494Z" fill="#EEF3FF" stroke="#214ECC" stroke-width="2" stroke-linecap="round" stroke-linejoin="round"/>
<g filter="url(#filter0_d_6956_11791)">
<rect x="58" y="48" width="45" height="45" rx="12" fill="#2962FF"/>
<rect x="58.5" y="48.5" width="44" height="44" rx="11.5" stroke="#214ECC"/>
</g>
<path d="M86.6514 60.7415H90.2225V73.0188H86.6514V60.7415ZM81.6133 58.9312H95.2607V62.6415H81.6133V58.9312Z" fill="white"/>
<path d="M65.7637 68.293H70.2465C70.2972 68.6044 70.4555 68.88 70.7214 69.1196C71 69.3472 71.3736 69.5268 71.8421 69.6586C72.3107 69.7784 72.8615 69.8383 73.4947 69.8383C74.3685 69.8383 75.0459 69.7425 75.5272 69.5508C76.021 69.3591 76.268 69.0656 76.268 68.6703C76.268 68.3948 76.1287 68.1732 75.8501 68.0055C75.5715 67.8258 75.0206 67.706 74.1975 67.6461L71.6901 67.4484C69.6387 67.3047 68.1507 66.8854 67.2263 66.1906C66.3145 65.4838 65.8586 64.5375 65.8586 63.3515C65.8586 62.3812 66.1562 61.5726 66.7514 60.9257C67.3466 60.2668 68.1761 59.7697 69.2398 59.4343C70.3035 59.0989 71.5572 58.9312 73.0008 58.9312C74.3938 58.9312 75.6285 59.1168 76.7049 59.4882C77.7939 59.8595 78.655 60.3866 79.2882 61.0695C79.934 61.7403 80.2886 62.5249 80.3519 63.4234H75.8691C75.8184 63.1598 75.6728 62.9322 75.4322 62.7406C75.2042 62.5369 74.875 62.3812 74.4444 62.2734C74.0139 62.1656 73.501 62.1117 72.9058 62.1117C72.1207 62.1117 71.4939 62.2015 71.0253 62.3812C70.5694 62.5609 70.3415 62.8304 70.3415 63.1898C70.3415 63.4533 70.4745 63.669 70.7404 63.8367C71.019 64.0044 71.5255 64.1182 72.26 64.1781L75.0143 64.3937C76.3819 64.4896 77.4837 64.6932 78.3194 65.0047C79.1679 65.3041 79.7821 65.7174 80.162 66.2445C80.5419 66.7596 80.7318 67.4125 80.7318 68.2031C80.7318 69.1615 80.4279 70.006 79.82 70.7368C79.2122 71.4555 78.3574 72.0185 77.2557 72.4258C76.1667 72.8212 74.8877 73.0188 73.4187 73.0188C71.9118 73.0188 70.5884 72.8212 69.4487 72.4258C68.309 72.0305 67.4162 71.4795 66.7704 70.7727C66.1246 70.0539 65.789 69.2274 65.7637 68.293Z" fill="white"/>
<path d="M94.2058 78.4652C94.1836 78.9346 94.0833 79.3898 93.905 79.8308C93.7266 80.2647 93.4666 80.6559 93.1249 81.0044C92.7831 81.3458 92.3522 81.6161 91.8321 81.8153C91.3121 82.0073 90.7029 82.1033 90.1707 82.1033C89.5169 82.1033 88.904 82.0144 88.3319 81.8366C87.7598 81.6517 87.2546 81.3849 86.8163 81.0364C86.3779 80.6808 86.0325 80.2433 85.7799 79.7241C85.5347 79.2049 85.4121 78.6039 85.4121 77.921C85.4121 77.2382 85.5347 76.6372 85.7799 76.118C86.0325 75.5987 86.3817 75.1649 86.8274 74.8163C87.2806 74.4607 87.8007 74.194 88.3876 74.0162C88.982 73.8312 89.4547 73.7388 90.1382 73.7388C91.0818 73.7388 91.8916 73.8739 92.5676 74.1442C93.2512 74.4145 93.8009 74.7879 94.217 75.2644C94.633 75.741 94.9005 76.2887 95.0194 76.9075H92.4116C92.3448 76.6728 92.2036 76.4736 91.9882 76.31C91.7801 76.1393 91.5201 76.0113 91.2081 75.9259C90.896 75.8335 90.5468 75.7872 90.1605 75.7872C89.685 75.7872 89.4389 75.8655 89.0897 76.022C88.7479 76.1784 88.4842 76.4131 88.2985 76.7261C88.1127 77.0391 88.0198 77.4374 88.0198 77.921C88.0198 78.4047 88.1201 78.8101 88.3207 79.1373C88.5288 79.4645 88.8222 79.7099 89.2011 79.8735C89.5875 80.0371 89.8745 80.1189 90.3945 80.1189C90.8997 80.1189 91.3455 80.0549 91.7318 79.9268C92.1256 79.7988 92.4413 79.6103 92.6791 79.3614C92.9168 79.1124 93.058 78.803 93.1026 78.4332L94.2058 78.4652ZM90.5506 79.212V77.665H95.0974V82.081H93.2809L92.902 78.8066L93.3812 79.212H90.5506Z" fill="white"/>
<path d="M79.6292 82.1033C78.6189 82.1033 77.732 81.9291 76.9687 81.5805C76.2128 81.232 75.6216 80.7448 75.195 80.1189C74.776 79.493 74.5664 78.7603 74.5664 77.921C74.5664 77.0817 74.776 76.3491 75.195 75.7232C75.6216 75.0973 76.2128 74.6101 76.9687 74.2616C77.732 73.913 78.6189 73.7388 79.6292 73.7388C80.6395 73.7388 81.5225 73.913 82.2784 74.2616C83.0417 74.6101 83.633 75.0973 84.0521 75.7232C84.4786 76.3491 84.6919 77.0817 84.6919 77.921C84.6919 78.7603 84.4786 79.493 84.0521 80.1189C83.633 80.7448 83.0417 81.232 82.2784 81.5805C81.5225 81.9291 80.6395 82.1033 79.6292 82.1033ZM79.6292 79.8948C80.1306 79.8948 80.5609 79.8166 80.9201 79.6601C81.2868 79.4965 81.5675 79.2689 81.762 78.9773C81.9566 78.6785 82.0539 78.3265 82.0539 77.921C82.0539 77.5156 81.9566 77.1671 81.762 76.8755C81.5675 76.5767 81.2868 76.3491 80.9201 76.1927C80.5609 76.0291 80.1306 75.9473 79.6292 75.9473C79.1277 75.9473 78.6937 76.0291 78.327 76.1927C77.9678 76.3491 77.6909 76.5767 77.4963 76.8755C77.3017 77.1671 77.2044 77.5156 77.2044 77.921C77.2044 78.3265 77.3017 78.6785 77.4963 78.9773C77.6909 79.2689 77.9678 79.4965 78.327 79.6601C78.6937 79.8166 79.1277 79.8948 79.6292 79.8948Z" fill="white"/>
<path d="M68.4451 73.8196V81.0368L67.308 79.9594H73.8462V82.1039H65.9219V73.8196H68.4451Z" fill="white"/>
<defs>
<filter id="filter0_d_6956_11791" x="58" y="48" width="45" height="48" filterUnits="userSpaceOnUse" color-interpolation-filters="sRGB">
<feFlood flood-opacity="0" result="BackgroundImageFix"/>
<feColorMatrix in="SourceAlpha" type="matrix" values="0 0 0 0 0 0 0 0 0 0 0 0 0 0 0 0 0 0 127 0" result="hardAlpha"/>
<feOffset dy="3"/>
<feComposite in2="hardAlpha" operator="out"/>
<feColorMatrix type="matrix" values="0 0 0 0 0.129412 0 0 0 0 0.305882 0 0 0 0 0.8 0 0 0 1 0"/>
<feBlend mode="normal" in2="BackgroundImageFix" result="effect1_dropShadow_6956_11791"/>
<feBlend mode="normal" in="SourceGraphic" in2="effect1_dropShadow_6956_11791" result="shape"/>
</filter>
</defs>
</svg>
