<svg width="540" height="448" viewBox="0 0 540 448" fill="none" xmlns="http://www.w3.org/2000/svg">
<path d="M225.434 253.226C225.434 253.226 176.664 298.148 181.246 361.991C185.827 425.835 199.5 441.5 199.5 441.5" stroke="#2962FF" stroke-width="12" stroke-linecap="round"/>
<path d="M279.443 253.226L285.443 362.637L290.5 442" stroke="#2962FF" stroke-width="12" stroke-linecap="round"/>
<g filter="url(#filter0_i_6956_11790)">
<rect x="139.709" y="106.619" width="230" height="155" rx="30" transform="rotate(3 139.709 106.619)" fill="#EEF3FF"/>
</g>
<rect x="140.655" y="107.67" width="228" height="153" rx="29" transform="rotate(3 140.655 107.67)" stroke="#214ECC" stroke-width="2"/>
<rect x="38.3848" y="39.7931" width="15" height="35" rx="7.5" transform="rotate(13.3356 38.3848 39.7931)" fill="#2962FF"/>
<rect x="10.4395" y="67.6908" width="15" height="35" rx="7.5" transform="rotate(-72.9142 10.4395 67.6908)" fill="#2962FF"/>
<rect x="9.70508" y="83.5344" width="15" height="35" rx="7.5" transform="rotate(-85 9.70508 83.5344)" fill="#2962FF"/>
<path d="M147.59 177.354L114.101 163.664C80.4085 149.892 54.7882 121.571 44.4496 86.6709L38.7988 67.5958" stroke="#2962FF" stroke-width="12" stroke-linecap="round"/>
<rect x="380.277" y="339.292" width="15" height="35" rx="7.5" transform="rotate(-95.6688 380.277 339.292)" fill="#2962FF"/>
<rect x="398.523" y="360.361" width="15" height="35" rx="7.5" transform="rotate(-145.669 398.523 360.361)" fill="#2962FF"/>
<rect x="428.428" y="353.214" width="15" height="35" rx="7.5" transform="rotate(154.331 428.428 353.214)" fill="#2962FF"/>
<path d="M350.414 220.342L366.813 227.046C406.048 243.084 425.474 287.365 410.706 327.095V327.095" stroke="#2962FF" stroke-width="12" stroke-linecap="round"/>
<rect x="202.331" y="133.466" width="36" height="44" rx="18" transform="rotate(3 202.331 133.466)" fill="white" stroke="#214ECC" stroke-width="2"/>
<rect x="209.002" y="143.761" width="21" height="25" rx="10.5" transform="rotate(3 209.002 143.761)" fill="#2962FF"/>
<rect x="208.963" y="141.756" width="10" height="10" rx="5" transform="rotate(3 208.963 141.756)" fill="white"/>
<rect x="268.241" y="136.921" width="36" height="44" rx="18" transform="rotate(3 268.241 136.921)" fill="white" stroke="#214ECC" stroke-width="2"/>
<rect x="274.912" y="147.215" width="21" height="25" rx="10.5" transform="rotate(3 274.912 147.215)" fill="#2962FF"/>
<rect x="274.873" y="145.21" width="10" height="10" rx="5" transform="rotate(3 274.873 145.21)" fill="white"/>
<path d="M203.936 215.517C204.396 208.918 208.573 204.515 214.382 202.225C220.224 199.922 227.636 199.805 234.223 201.831C237.09 202.713 239.897 203.465 242.408 203.953C252.978 206.009 265.621 205.682 275.341 204.896C284.108 204.186 292.699 209.149 293.834 217.487C294.656 223.526 292.355 228.44 290.508 231.28C289.389 232.999 287.738 234.318 285.828 235.282C280.05 238.198 266.153 243.958 248.069 243.01C229.157 242.019 217.689 235.039 213.686 232.134C212.539 231.301 211.432 230.443 210.395 229.515C207.847 227.236 203.465 222.27 203.936 215.517Z" fill="white" stroke="#214ECC" stroke-width="2"/>
<path d="M227.56 201.016L227.907 238.337" stroke="#214ECC" stroke-width="2" stroke-linecap="round"/>
<path d="M272.145 205.783L273.691 239.618" stroke="#214ECC" stroke-width="2" stroke-linecap="round"/>
<rect y="447" width="540" height="1" rx="0.5" fill="#787878"/>
<path d="M127.05 54.8884C127.352 53.9716 128.648 53.9716 128.95 54.8884L131.802 63.5605C131.901 63.8621 132.138 64.0988 132.44 64.198L141.112 67.0501C142.028 67.3516 142.028 68.6484 141.112 68.9499L132.44 71.802C132.138 71.9012 131.901 72.1379 131.802 72.4395L128.95 81.1116C128.648 82.0284 127.352 82.0284 127.05 81.1116L124.198 72.4395C124.099 72.1379 123.862 71.9012 123.56 71.802L114.888 68.9499C113.972 68.6484 113.972 67.3516 114.888 67.0501L123.56 64.198C123.862 64.0988 124.099 63.8621 124.198 63.5605L127.05 54.8884Z" fill="#214ECC"/>
<path d="M191.05 22.8884C191.352 21.9716 192.648 21.9716 192.95 22.8884L194.565 27.7979C194.664 28.0996 194.9 28.3362 195.202 28.4354L200.112 30.0501C201.028 30.3516 201.028 31.6484 200.112 31.9499L195.202 33.5646C194.9 33.6638 194.664 33.9004 194.565 34.2021L192.95 39.1116C192.648 40.0284 191.352 40.0284 191.05 39.1116L189.435 34.2021C189.336 33.9004 189.1 33.6638 188.798 33.5646L183.888 31.9499C182.972 31.6484 182.972 30.3516 183.888 30.0501L188.798 28.4354C189.1 28.3362 189.336 28.0996 189.435 27.7979L191.05 22.8884Z" fill="#214ECC"/>
<path d="M434.55 166.888C434.852 165.972 436.148 165.972 436.45 166.888L439.673 176.689C439.772 176.991 440.009 177.228 440.311 177.327L450.112 180.55C451.028 180.852 451.028 182.148 450.112 182.45L440.311 185.673C440.009 185.772 439.772 186.009 439.673 186.311L436.45 196.112C436.148 197.028 434.852 197.028 434.55 196.112L431.327 186.311C431.228 186.009 430.991 185.772 430.689 185.673L420.888 182.45C419.972 182.148 419.972 180.852 420.888 180.55L430.689 177.327C430.991 177.228 431.228 176.991 431.327 176.689L434.55 166.888Z" fill="#1E1E1E"/>
<path d="M476.55 201.888C476.852 200.972 478.148 200.972 478.45 201.888L480.436 207.927C480.535 208.228 480.772 208.465 481.073 208.564L487.112 210.55C488.028 210.852 488.028 212.148 487.112 212.45L481.073 214.436C480.772 214.535 480.535 214.772 480.436 215.073L478.45 221.112C478.148 222.028 476.852 222.028 476.55 221.112L474.564 215.073C474.465 214.772 474.228 214.535 473.927 214.436L467.888 212.45C466.972 212.148 466.972 210.852 467.888 210.55L473.927 208.564C474.228 208.465 474.465 208.228 474.564 207.927L476.55 201.888Z" fill="#1E1E1E"/>
<path d="M306.75 20C306.75 9.36852 315.369 0.75 326 0.75H520C530.631 0.75 539.25 9.36852 539.25 20V59C539.25 69.6315 530.631 78.25 520 78.25H340.315C338.038 78.25 335.776 78.625 333.62 79.3599L306.712 88.5331C301.725 90.233 297.002 85.3798 298.836 80.4413L305.452 62.6305C306.31 60.3186 306.75 57.872 306.75 55.4057V20Z" fill="white" stroke="#1E1E1E" stroke-width="1.5"/>
<path d="M330.528 31H328.767V20.8693H326.562C325.987 20.8693 325.519 20.9564 325.159 21.1307C324.799 21.3011 324.536 21.5473 324.369 21.8693C324.203 22.1913 324.119 22.572 324.119 23.0114C324.119 23.447 324.203 23.8201 324.369 24.1307C324.536 24.4413 324.797 24.678 325.153 24.8409C325.509 25.0038 325.973 25.0852 326.545 25.0852H329.528V26.5966H326.381C325.483 26.5966 324.735 26.447 324.136 26.1477C323.542 25.8485 323.095 25.4299 322.795 24.892C322.5 24.3504 322.352 23.7235 322.352 23.0114C322.352 22.2955 322.5 21.6648 322.795 21.1193C323.091 20.5701 323.536 20.1402 324.131 19.8295C324.729 19.5189 325.477 19.3636 326.375 19.3636H330.528V31ZM324.784 25.75H326.727L323.903 31H321.909L324.784 25.75ZM346.99 23.1477H345.217C345.149 22.7689 345.022 22.4356 344.837 22.1477C344.651 21.8598 344.424 21.6155 344.155 21.4148C343.886 21.214 343.585 21.0625 343.251 20.9602C342.922 20.858 342.571 20.8068 342.2 20.8068C341.53 20.8068 340.929 20.9754 340.399 21.3125C339.873 21.6496 339.456 22.1439 339.149 22.7955C338.846 23.447 338.695 24.2424 338.695 25.1818C338.695 26.1288 338.846 26.928 339.149 27.5795C339.456 28.2311 339.875 28.7235 340.405 29.0568C340.935 29.3902 341.532 29.5568 342.195 29.5568C342.562 29.5568 342.911 29.5076 343.24 29.4091C343.573 29.3068 343.875 29.1572 344.143 28.9602C344.412 28.7633 344.64 28.5227 344.825 28.2386C345.015 27.9508 345.145 27.6212 345.217 27.25L346.99 27.2557C346.895 27.8277 346.712 28.3542 346.439 28.8352C346.17 29.3125 345.823 29.7254 345.399 30.0739C344.979 30.4186 344.498 30.6856 343.956 30.875C343.414 31.0644 342.823 31.1591 342.183 31.1591C341.176 31.1591 340.278 30.9205 339.49 30.4432C338.702 29.9621 338.081 29.2746 337.626 28.3807C337.176 27.4867 336.95 26.4205 336.95 25.1818C336.95 23.9394 337.178 22.8731 337.632 21.983C338.087 21.089 338.708 20.4034 339.496 19.9261C340.284 19.4451 341.179 19.2045 342.183 19.2045C342.801 19.2045 343.376 19.2936 343.911 19.4716C344.448 19.6458 344.931 19.9034 345.359 20.2443C345.787 20.5814 346.142 20.9943 346.422 21.483C346.702 21.9678 346.892 22.5227 346.99 23.1477ZM348.466 23.7386V22.2727H355.83V23.7386H352.983V31H351.324V23.7386H348.466ZM358.7 34.2727C358.446 34.2727 358.215 34.2519 358.007 34.2102C357.799 34.1723 357.643 34.1307 357.541 34.0852L357.95 32.6932C358.261 32.7765 358.537 32.8125 358.78 32.8011C359.022 32.7898 359.236 32.6989 359.422 32.5284C359.611 32.358 359.778 32.0795 359.922 31.6932L360.132 31.1136L356.939 22.2727H358.757L360.967 29.0455H361.058L363.268 22.2727H365.092L361.496 32.1648C361.329 32.6193 361.117 33.0038 360.859 33.3182C360.602 33.6364 360.295 33.875 359.939 34.0341C359.583 34.1932 359.17 34.2727 358.7 34.2727ZM365.118 33.517V29.5284H365.828C366.01 29.3617 366.163 29.1629 366.288 28.9318C366.417 28.7008 366.525 28.4261 366.612 28.108C366.703 27.7898 366.779 27.4186 366.839 26.9943C366.9 26.5663 366.953 26.0777 366.999 25.5284L367.271 22.2727H373.203V29.5284H374.544V33.517H372.885V31H366.8V33.517H365.118ZM367.646 29.5284H371.544V23.7273H368.794L368.612 25.5284C368.525 26.4451 368.415 27.2405 368.283 27.9148C368.15 28.5852 367.938 29.1231 367.646 29.5284ZM377.869 28.6193L381.716 22.2727H383.545V31H381.881V24.6477L378.051 31H376.205V22.2727H377.869V28.6193ZM387.972 19.3636L387.824 27.6534H386.25L386.102 19.3636H387.972ZM387.04 31.108C386.725 31.108 386.456 30.9981 386.233 30.7784C386.009 30.5549 385.9 30.286 385.903 29.9716C385.9 29.661 386.009 29.3958 386.233 29.1761C386.456 28.9527 386.725 28.8409 387.04 28.8409C387.347 28.8409 387.612 28.9527 387.835 29.1761C388.059 29.3958 388.172 29.661 388.176 29.9716C388.172 30.1799 388.117 30.3712 388.011 30.5455C387.909 30.7159 387.773 30.8523 387.602 30.9545C387.432 31.0568 387.244 31.108 387.04 31.108ZM394.023 33.8125V29.5114H394.79C395.051 29.2917 395.295 28.9792 395.523 28.5739C395.75 28.1686 395.943 27.6212 396.102 26.9318C396.261 26.2424 396.371 25.358 396.432 24.2784L396.705 19.3636H403.881V29.5114H405.199V33.7955H403.517V31H395.705V33.8125H394.023ZM396.858 29.5114H402.199V20.875H398.295L398.114 24.2784C398.064 25.1004 397.983 25.839 397.869 26.4943C397.759 27.1496 397.617 27.7292 397.443 28.233C397.273 28.733 397.078 29.1591 396.858 29.5114ZM409.526 31.1932C408.973 31.1932 408.473 31.0909 408.026 30.8864C407.579 30.678 407.224 30.3769 406.963 29.983C406.705 29.589 406.577 29.1061 406.577 28.5341C406.577 28.0417 406.671 27.6364 406.861 27.3182C407.05 27 407.306 26.7481 407.628 26.5625C407.95 26.3769 408.31 26.2367 408.707 26.142C409.105 26.0473 409.51 25.9754 409.923 25.9261C410.446 25.8655 410.87 25.8163 411.196 25.7784C411.522 25.7367 411.759 25.6705 411.906 25.5795C412.054 25.4886 412.128 25.3409 412.128 25.1364V25.0966C412.128 24.6004 411.988 24.2159 411.707 23.9432C411.431 23.6705 411.018 23.5341 410.469 23.5341C409.897 23.5341 409.446 23.661 409.116 23.9148C408.791 24.1648 408.565 24.4432 408.44 24.75L406.844 24.3864C407.033 23.8561 407.31 23.428 407.673 23.1023C408.041 22.7727 408.463 22.5341 408.94 22.3864C409.418 22.2348 409.92 22.1591 410.446 22.1591C410.795 22.1591 411.164 22.2008 411.554 22.2841C411.948 22.3636 412.315 22.5114 412.656 22.7273C413.001 22.9432 413.283 23.2519 413.503 23.6534C413.723 24.0511 413.832 24.5682 413.832 25.2045V31H412.173V29.8068H412.105C411.995 30.0265 411.83 30.2424 411.611 30.4545C411.391 30.6667 411.109 30.8428 410.764 30.983C410.42 31.1231 410.007 31.1932 409.526 31.1932ZM409.895 29.8295C410.365 29.8295 410.766 29.7367 411.099 29.5511C411.437 29.3655 411.692 29.1231 411.866 28.8239C412.045 28.5208 412.134 28.197 412.134 27.8523V26.7273C412.073 26.7879 411.955 26.8447 411.781 26.8977C411.611 26.947 411.416 26.9905 411.196 27.0284C410.976 27.0625 410.762 27.0947 410.554 27.125C410.346 27.1515 410.171 27.1742 410.031 27.1932C409.702 27.2348 409.401 27.3049 409.128 27.4034C408.859 27.5019 408.643 27.6439 408.48 27.8295C408.321 28.0114 408.241 28.2538 408.241 28.5568C408.241 28.9773 408.397 29.2955 408.707 29.5114C409.018 29.7235 409.414 29.8295 409.895 29.8295ZM416.095 31V22.2727H419.714C420.699 22.2727 421.48 22.483 422.055 22.9034C422.631 23.3201 422.919 23.8864 422.919 24.6023C422.919 25.1136 422.756 25.5189 422.43 25.8182C422.105 26.1174 421.673 26.3182 421.135 26.4205C421.525 26.4659 421.883 26.5833 422.209 26.7727C422.535 26.9583 422.796 27.2083 422.993 27.5227C423.194 27.8371 423.294 28.2121 423.294 28.6477C423.294 29.1098 423.175 29.5189 422.936 29.875C422.697 30.2273 422.351 30.5038 421.896 30.7045C421.446 30.9015 420.902 31 420.266 31H416.095ZM417.692 29.5795H420.266C420.686 29.5795 421.016 29.4792 421.254 29.2784C421.493 29.0777 421.612 28.8049 421.612 28.4602C421.612 28.0549 421.493 27.7367 421.254 27.5057C421.016 27.2708 420.686 27.1534 420.266 27.1534H417.692V29.5795ZM417.692 25.9091H419.732C420.05 25.9091 420.322 25.8636 420.55 25.7727C420.781 25.6818 420.957 25.553 421.078 25.3864C421.203 25.2159 421.266 25.0152 421.266 24.7841C421.266 24.447 421.127 24.1837 420.851 23.9943C420.574 23.8049 420.196 23.7102 419.714 23.7102H417.692V25.9091ZM427.697 31.1932C427.144 31.1932 426.644 31.0909 426.197 30.8864C425.75 30.678 425.396 30.3769 425.135 29.983C424.877 29.589 424.749 29.1061 424.749 28.5341C424.749 28.0417 424.843 27.6364 425.033 27.3182C425.222 27 425.478 26.7481 425.8 26.5625C426.122 26.3769 426.482 26.2367 426.879 26.142C427.277 26.0473 427.682 25.9754 428.095 25.9261C428.618 25.8655 429.042 25.8163 429.368 25.7784C429.694 25.7367 429.93 25.6705 430.078 25.5795C430.226 25.4886 430.3 25.3409 430.3 25.1364V25.0966C430.3 24.6004 430.16 24.2159 429.879 23.9432C429.603 23.6705 429.19 23.5341 428.641 23.5341C428.069 23.5341 427.618 23.661 427.288 23.9148C426.963 24.1648 426.737 24.4432 426.612 24.75L425.016 24.3864C425.205 23.8561 425.482 23.428 425.845 23.1023C426.213 22.7727 426.635 22.5341 427.112 22.3864C427.589 22.2348 428.091 22.1591 428.618 22.1591C428.966 22.1591 429.336 22.2008 429.726 22.2841C430.12 22.3636 430.487 22.5114 430.828 22.7273C431.173 22.9432 431.455 23.2519 431.675 23.6534C431.894 24.0511 432.004 24.5682 432.004 25.2045V31H430.345V29.8068H430.277C430.167 30.0265 430.002 30.2424 429.783 30.4545C429.563 30.6667 429.281 30.8428 428.936 30.983C428.591 31.1231 428.179 31.1932 427.697 31.1932ZM428.067 29.8295C428.536 29.8295 428.938 29.7367 429.271 29.5511C429.608 29.3655 429.864 29.1231 430.038 28.8239C430.216 28.5208 430.305 28.197 430.305 27.8523V26.7273C430.245 26.7879 430.127 26.8447 429.953 26.8977C429.783 26.947 429.588 26.9905 429.368 27.0284C429.148 27.0625 428.934 27.0947 428.726 27.125C428.518 27.1515 428.343 27.1742 428.203 27.1932C427.874 27.2348 427.572 27.3049 427.3 27.4034C427.031 27.5019 426.815 27.6439 426.652 27.8295C426.493 28.0114 426.413 28.2538 426.413 28.5568C426.413 28.9773 426.569 29.2955 426.879 29.5114C427.19 29.7235 427.586 29.8295 428.067 29.8295ZM435.932 28.6193L439.778 22.2727H441.608V31H439.943V24.6477L436.114 31H434.267V22.2727H435.932V28.6193ZM439.051 19.3182H440.449C440.449 19.9583 440.222 20.4792 439.767 20.8807C439.316 21.2784 438.706 21.4773 437.938 21.4773C437.172 21.4773 436.564 21.2784 436.114 20.8807C435.663 20.4792 435.438 19.9583 435.438 19.3182H436.83C436.83 19.6023 436.913 19.8542 437.08 20.0739C437.246 20.2898 437.532 20.3977 437.938 20.3977C438.335 20.3977 438.619 20.2898 438.79 20.0739C438.964 19.858 439.051 19.6061 439.051 19.3182ZM448.126 34.2727V22.2727H449.786V23.6875H449.928C450.026 23.5057 450.168 23.2955 450.354 23.0568C450.539 22.8182 450.797 22.6098 451.126 22.4318C451.456 22.25 451.892 22.1591 452.433 22.1591C453.138 22.1591 453.767 22.3371 454.32 22.6932C454.873 23.0492 455.306 23.5625 455.621 24.233C455.939 24.9034 456.098 25.7102 456.098 26.6534C456.098 27.5966 455.941 28.4053 455.626 29.0795C455.312 29.75 454.88 30.267 454.331 30.6307C453.782 30.9905 453.155 31.1705 452.45 31.1705C451.92 31.1705 451.486 31.0814 451.149 30.9034C450.816 30.7254 450.554 30.517 450.365 30.2784C450.176 30.0398 450.03 29.8277 449.928 29.642H449.825V34.2727H448.126ZM449.791 26.6364C449.791 27.25 449.88 27.7879 450.058 28.25C450.236 28.7121 450.494 29.0739 450.831 29.3352C451.168 29.5928 451.581 29.7216 452.07 29.7216C452.577 29.7216 453.001 29.5871 453.342 29.3182C453.683 29.0455 453.941 28.6761 454.115 28.2102C454.293 27.7443 454.382 27.2197 454.382 26.6364C454.382 26.0606 454.295 25.5436 454.121 25.0852C453.95 24.6269 453.693 24.2652 453.348 24C453.007 23.7348 452.581 23.6023 452.07 23.6023C451.577 23.6023 451.161 23.7292 450.82 23.983C450.482 24.2367 450.227 24.5909 450.053 25.0455C449.878 25.5 449.791 26.0303 449.791 26.6364ZM460.541 31.1932C459.988 31.1932 459.488 31.0909 459.041 30.8864C458.594 30.678 458.24 30.3769 457.979 29.983C457.721 29.589 457.592 29.1061 457.592 28.5341C457.592 28.0417 457.687 27.6364 457.876 27.3182C458.066 27 458.321 26.7481 458.643 26.5625C458.965 26.3769 459.325 26.2367 459.723 26.142C460.121 26.0473 460.526 25.9754 460.939 25.9261C461.462 25.8655 461.886 25.8163 462.212 25.7784C462.537 25.7367 462.774 25.6705 462.922 25.5795C463.07 25.4886 463.143 25.3409 463.143 25.1364V25.0966C463.143 24.6004 463.003 24.2159 462.723 23.9432C462.446 23.6705 462.034 23.5341 461.484 23.5341C460.912 23.5341 460.462 23.661 460.132 23.9148C459.806 24.1648 459.581 24.4432 459.456 24.75L457.859 24.3864C458.049 23.8561 458.325 23.428 458.689 23.1023C459.056 22.7727 459.479 22.5341 459.956 22.3864C460.433 22.2348 460.935 22.1591 461.462 22.1591C461.81 22.1591 462.179 22.2008 462.57 22.2841C462.964 22.3636 463.331 22.5114 463.672 22.7273C464.017 22.9432 464.299 23.2519 464.518 23.6534C464.738 24.0511 464.848 24.5682 464.848 25.2045V31H463.189V29.8068H463.121C463.011 30.0265 462.846 30.2424 462.626 30.4545C462.407 30.6667 462.125 30.8428 461.78 30.983C461.435 31.1231 461.022 31.1932 460.541 31.1932ZM460.911 29.8295C461.38 29.8295 461.782 29.7367 462.115 29.5511C462.452 29.3655 462.708 29.1231 462.882 28.8239C463.06 28.5208 463.149 28.197 463.149 27.8523V26.7273C463.089 26.7879 462.971 26.8447 462.797 26.8977C462.626 26.947 462.431 26.9905 462.212 27.0284C461.992 27.0625 461.778 27.0947 461.57 27.125C461.361 27.1515 461.187 27.1742 461.047 27.1932C460.717 27.2348 460.416 27.3049 460.143 27.4034C459.875 27.5019 459.659 27.6439 459.496 27.8295C459.337 28.0114 459.257 28.2538 459.257 28.5568C459.257 28.9773 459.412 29.2955 459.723 29.5114C460.034 29.7235 460.429 29.8295 460.911 29.8295ZM470.787 31.1761C469.942 31.1761 469.215 30.9848 468.605 30.6023C467.999 30.2159 467.533 29.6837 467.207 29.0057C466.882 28.3277 466.719 27.5511 466.719 26.6761C466.719 25.7898 466.885 25.0076 467.219 24.3295C467.552 23.6477 468.022 23.1155 468.628 22.733C469.234 22.3504 469.948 22.1591 470.77 22.1591C471.433 22.1591 472.024 22.2822 472.543 22.5284C473.062 22.7708 473.48 23.1117 473.798 23.5511C474.12 23.9905 474.312 24.5038 474.372 25.0909H472.719C472.628 24.6818 472.42 24.3295 472.094 24.0341C471.772 23.7386 471.34 23.5909 470.798 23.5909C470.325 23.5909 469.91 23.7159 469.554 23.9659C469.202 24.2121 468.927 24.5644 468.73 25.0227C468.533 25.4773 468.435 26.0152 468.435 26.6364C468.435 27.2727 468.531 27.822 468.724 28.2841C468.918 28.7462 469.19 29.1042 469.543 29.358C469.899 29.6117 470.317 29.7386 470.798 29.7386C471.12 29.7386 471.412 29.6799 471.673 29.5625C471.938 29.4413 472.16 29.2689 472.338 29.0455C472.52 28.822 472.647 28.553 472.719 28.2386H474.372C474.312 28.803 474.128 29.3068 473.821 29.75C473.514 30.1932 473.103 30.5417 472.588 30.7955C472.077 31.0492 471.476 31.1761 470.787 31.1761ZM479.865 31.1761C479.02 31.1761 478.293 30.9848 477.683 30.6023C477.077 30.2159 476.611 29.6837 476.286 29.0057C475.96 28.3277 475.797 27.5511 475.797 26.6761C475.797 25.7898 475.964 25.0076 476.297 24.3295C476.63 23.6477 477.1 23.1155 477.706 22.733C478.312 22.3504 479.026 22.1591 479.848 22.1591C480.511 22.1591 481.102 22.2822 481.621 22.5284C482.14 22.7708 482.558 23.1117 482.876 23.5511C483.198 23.9905 483.39 24.5038 483.45 25.0909H481.797C481.706 24.6818 481.498 24.3295 481.172 24.0341C480.85 23.7386 480.418 23.5909 479.876 23.5909C479.403 23.5909 478.988 23.7159 478.632 23.9659C478.28 24.2121 478.005 24.5644 477.808 25.0227C477.611 25.4773 477.513 26.0152 477.513 26.6364C477.513 27.2727 477.609 27.822 477.803 28.2841C477.996 28.7462 478.268 29.1042 478.621 29.358C478.977 29.6117 479.395 29.7386 479.876 29.7386C480.198 29.7386 480.49 29.6799 480.751 29.5625C481.017 29.4413 481.238 29.2689 481.416 29.0455C481.598 28.822 481.725 28.553 481.797 28.2386H483.45C483.39 28.803 483.206 29.3068 482.899 29.75C482.592 30.1932 482.181 30.5417 481.666 30.7955C481.155 31.0492 480.554 31.1761 479.865 31.1761ZM485.267 31V22.2727H486.966V25.9318H487.784L490.665 22.2727H492.767L489.386 26.517L492.807 31H490.699L488.068 27.5114H486.966V31H485.267ZM496.666 31.1932C496.113 31.1932 495.613 31.0909 495.166 30.8864C494.719 30.678 494.365 30.3769 494.104 29.983C493.846 29.589 493.717 29.1061 493.717 28.5341C493.717 28.0417 493.812 27.6364 494.001 27.3182C494.191 27 494.446 26.7481 494.768 26.5625C495.09 26.3769 495.45 26.2367 495.848 26.142C496.246 26.0473 496.651 25.9754 497.064 25.9261C497.587 25.8655 498.011 25.8163 498.337 25.7784C498.662 25.7367 498.899 25.6705 499.047 25.5795C499.195 25.4886 499.268 25.3409 499.268 25.1364V25.0966C499.268 24.6004 499.128 24.2159 498.848 23.9432C498.571 23.6705 498.159 23.5341 497.609 23.5341C497.037 23.5341 496.587 23.661 496.257 23.9148C495.931 24.1648 495.706 24.4432 495.581 24.75L493.984 24.3864C494.174 23.8561 494.45 23.428 494.814 23.1023C495.181 22.7727 495.604 22.5341 496.081 22.3864C496.558 22.2348 497.06 22.1591 497.587 22.1591C497.935 22.1591 498.304 22.2008 498.695 22.2841C499.089 22.3636 499.456 22.5114 499.797 22.7273C500.142 22.9432 500.424 23.2519 500.643 23.6534C500.863 24.0511 500.973 24.5682 500.973 25.2045V31H499.314V29.8068H499.246C499.136 30.0265 498.971 30.2424 498.751 30.4545C498.532 30.6667 498.25 30.8428 497.905 30.983C497.56 31.1231 497.147 31.1932 496.666 31.1932ZM497.036 29.8295C497.505 29.8295 497.907 29.7367 498.24 29.5511C498.577 29.3655 498.833 29.1231 499.007 28.8239C499.185 28.5208 499.274 28.197 499.274 27.8523V26.7273C499.214 26.7879 499.096 26.8447 498.922 26.8977C498.751 26.947 498.556 26.9905 498.337 27.0284C498.117 27.0625 497.903 27.0947 497.695 27.125C497.486 27.1515 497.312 27.1742 497.172 27.1932C496.842 27.2348 496.541 27.3049 496.268 27.4034C496 27.5019 495.784 27.6439 495.621 27.8295C495.462 28.0114 495.382 28.2538 495.382 28.5568C495.382 28.9773 495.537 29.2955 495.848 29.5114C496.159 29.7235 496.554 29.8295 497.036 29.8295ZM502.679 31L506.06 26.5341L502.719 22.2727H504.696L507.395 25.8977H508.003V22.2727H509.702V25.8977H510.293L512.991 22.2727H514.969L511.645 26.5341L515.009 31H512.991L510.27 27.3636H509.702V31H508.003V27.3636H507.435L504.696 31H502.679ZM517.81 34.2727C517.556 34.2727 517.325 34.2519 517.116 34.2102C516.908 34.1723 516.753 34.1307 516.651 34.0852L517.06 32.6932C517.37 32.7765 517.647 32.8125 517.889 32.8011C518.132 32.7898 518.346 32.6989 518.531 32.5284C518.721 32.358 518.887 32.0795 519.031 31.6932L519.241 31.1136L516.048 22.2727H517.866L520.077 29.0455H520.168L522.378 22.2727H524.202L520.605 32.1648C520.438 32.6193 520.226 33.0038 519.969 33.3182C519.711 33.6364 519.404 33.875 519.048 34.0341C518.692 34.1932 518.279 34.2727 517.81 34.2727ZM327.722 48.2727V49.7386H323.818V57H322.142V48.2727H327.722ZM327.946 59.517V55.5284H328.656C328.838 55.3617 328.991 55.1629 329.116 54.9318C329.245 54.7008 329.353 54.4261 329.44 54.108C329.531 53.7898 329.607 53.4186 329.668 52.9943C329.728 52.5663 329.781 52.0777 329.827 51.5284L330.099 48.2727H336.031V55.5284H337.372V59.517H335.713V57H329.628V59.517H327.946ZM330.474 55.5284H334.372V49.7273H331.622L331.44 51.5284C331.353 52.4451 331.243 53.2405 331.111 53.9148C330.978 54.5852 330.766 55.1231 330.474 55.5284ZM342.794 57.1761C341.934 57.1761 341.194 56.9924 340.572 56.625C339.955 56.2538 339.478 55.733 339.141 55.0625C338.807 54.3883 338.641 53.5985 338.641 52.6932C338.641 51.7992 338.807 51.0114 339.141 50.3295C339.478 49.6477 339.947 49.1155 340.55 48.733C341.156 48.3504 341.864 48.1591 342.675 48.1591C343.167 48.1591 343.644 48.2405 344.107 48.4034C344.569 48.5663 344.983 48.822 345.351 49.1705C345.718 49.5189 346.008 49.9716 346.22 50.5284C346.432 51.0814 346.538 51.7538 346.538 52.5455V53.1477H339.601V51.875H344.874C344.874 51.428 344.783 51.0322 344.601 50.6875C344.419 50.339 344.163 50.0644 343.834 49.8636C343.508 49.6629 343.125 49.5625 342.686 49.5625C342.209 49.5625 341.792 49.6799 341.436 49.9148C341.084 50.1458 340.811 50.4489 340.618 50.8239C340.429 51.1951 340.334 51.5985 340.334 52.0341V53.0284C340.334 53.6117 340.436 54.108 340.641 54.517C340.849 54.9261 341.139 55.2386 341.51 55.4545C341.881 55.6667 342.315 55.7727 342.811 55.7727C343.133 55.7727 343.427 55.7273 343.692 55.6364C343.957 55.5417 344.186 55.4015 344.379 55.2159C344.572 55.0303 344.72 54.8011 344.822 54.5284L346.43 54.8182C346.302 55.2917 346.071 55.7064 345.737 56.0625C345.408 56.4148 344.993 56.6894 344.493 56.8864C343.997 57.0795 343.43 57.1761 342.794 57.1761ZM358.572 51.9034V53.375H353.845V51.9034H358.572ZM354.322 48.2727V57H352.658V48.2727H354.322ZM359.76 48.2727V57H358.101V48.2727H359.76ZM364.572 57.1932C364.019 57.1932 363.519 57.0909 363.072 56.8864C362.625 56.678 362.271 56.3769 362.01 55.983C361.752 55.589 361.624 55.1061 361.624 54.5341C361.624 54.0417 361.718 53.6364 361.908 53.3182C362.097 53 362.353 52.7481 362.675 52.5625C362.997 52.3769 363.357 52.2367 363.754 52.142C364.152 52.0473 364.557 51.9754 364.97 51.9261C365.493 51.8655 365.917 51.8163 366.243 51.7784C366.569 51.7367 366.805 51.6705 366.953 51.5795C367.101 51.4886 367.175 51.3409 367.175 51.1364V51.0966C367.175 50.6004 367.035 50.2159 366.754 49.9432C366.478 49.6705 366.065 49.5341 365.516 49.5341C364.944 49.5341 364.493 49.661 364.163 49.9148C363.838 50.1648 363.612 50.4432 363.487 50.75L361.891 50.3864C362.08 49.8561 362.357 49.428 362.72 49.1023C363.088 48.7727 363.51 48.5341 363.987 48.3864C364.464 48.2348 364.966 48.1591 365.493 48.1591C365.841 48.1591 366.211 48.2008 366.601 48.2841C366.995 48.3636 367.362 48.5114 367.703 48.7273C368.048 48.9432 368.33 49.2519 368.55 49.6534C368.769 50.0511 368.879 50.5682 368.879 51.2045V57H367.22V55.8068H367.152C367.042 56.0265 366.877 56.2424 366.658 56.4545C366.438 56.6667 366.156 56.8428 365.811 56.983C365.466 57.1231 365.054 57.1932 364.572 57.1932ZM364.942 55.8295C365.411 55.8295 365.813 55.7367 366.146 55.5511C366.483 55.3655 366.739 55.1231 366.913 54.8239C367.091 54.5208 367.18 54.197 367.18 53.8523V52.7273C367.12 52.7879 367.002 52.8447 366.828 52.8977C366.658 52.947 366.463 52.9905 366.243 53.0284C366.023 53.0625 365.809 53.0947 365.601 53.125C365.393 53.1515 365.218 53.1742 365.078 53.1932C364.749 53.2348 364.447 53.3049 364.175 53.4034C363.906 53.5019 363.69 53.6439 363.527 53.8295C363.368 54.0114 363.288 54.2538 363.288 54.5568C363.288 54.9773 363.444 55.2955 363.754 55.5114C364.065 55.7235 364.461 55.8295 364.942 55.8295ZM372.483 48.2727L374.409 51.6705L376.352 48.2727H378.21L375.489 52.6364L378.233 57H376.375L374.409 53.7386L372.449 57H370.585L373.301 52.6364L370.619 48.2727H372.483ZM383.287 57.1761C382.469 57.1761 381.755 56.9886 381.145 56.6136C380.535 56.2386 380.062 55.714 379.724 55.0398C379.387 54.3655 379.219 53.5777 379.219 52.6761C379.219 51.7708 379.387 50.9792 379.724 50.3011C380.062 49.6231 380.535 49.0966 381.145 48.7216C381.755 48.3466 382.469 48.1591 383.287 48.1591C384.105 48.1591 384.819 48.3466 385.429 48.7216C386.039 49.0966 386.512 49.6231 386.849 50.3011C387.187 50.9792 387.355 51.7708 387.355 52.6761C387.355 53.5777 387.187 54.3655 386.849 55.0398C386.512 55.714 386.039 56.2386 385.429 56.6136C384.819 56.9886 384.105 57.1761 383.287 57.1761ZM383.293 55.75C383.823 55.75 384.262 55.6098 384.611 55.3295C384.959 55.0492 385.217 54.6761 385.384 54.2102C385.554 53.7443 385.639 53.2311 385.639 52.6705C385.639 52.1136 385.554 51.6023 385.384 51.1364C385.217 50.6667 384.959 50.2898 384.611 50.0057C384.262 49.7216 383.823 49.5795 383.293 49.5795C382.759 49.5795 382.315 49.7216 381.963 50.0057C381.615 50.2898 381.355 50.6667 381.185 51.1364C381.018 51.6023 380.935 52.1136 380.935 52.6705C380.935 53.2311 381.018 53.7443 381.185 54.2102C381.355 54.6761 381.615 55.0492 381.963 55.3295C382.315 55.6098 382.759 55.75 383.293 55.75ZM388.399 59.517V55.5284H389.109C389.291 55.3617 389.445 55.1629 389.57 54.9318C389.698 54.7008 389.806 54.4261 389.893 54.108C389.984 53.7898 390.06 53.4186 390.121 52.9943C390.181 52.5663 390.234 52.0777 390.28 51.5284L390.553 48.2727H396.484V55.5284H397.825V59.517H396.166V57H390.081V59.517H388.399ZM390.928 55.5284H394.825V49.7273H392.075L391.893 51.5284C391.806 52.4451 391.696 53.2405 391.564 53.9148C391.431 54.5852 391.219 55.1231 390.928 55.5284ZM401.151 54.6193L404.997 48.2727H406.827V57H405.162V50.6477L401.332 57H399.486V48.2727H401.151V54.6193ZM408.028 49.7386V48.2727H415.392V49.7386H412.545V57H410.886V49.7386H408.028ZM420.459 57.1761C419.614 57.1761 418.887 56.9848 418.277 56.6023C417.671 56.2159 417.205 55.6837 416.879 55.0057C416.554 54.3277 416.391 53.5511 416.391 52.6761C416.391 51.7898 416.557 51.0076 416.891 50.3295C417.224 49.6477 417.694 49.1155 418.3 48.733C418.906 48.3504 419.62 48.1591 420.442 48.1591C421.105 48.1591 421.696 48.2822 422.214 48.5284C422.733 48.7708 423.152 49.1117 423.47 49.5511C423.792 49.9905 423.983 50.5038 424.044 51.0909H422.391C422.3 50.6818 422.091 50.3295 421.766 50.0341C421.444 49.7386 421.012 49.5909 420.47 49.5909C419.997 49.5909 419.582 49.7159 419.226 49.9659C418.874 50.2121 418.599 50.5644 418.402 51.0227C418.205 51.4773 418.107 52.0152 418.107 52.6364C418.107 53.2727 418.203 53.822 418.396 54.2841C418.589 54.7462 418.862 55.1042 419.214 55.358C419.571 55.6117 419.989 55.7386 420.47 55.7386C420.792 55.7386 421.084 55.6799 421.345 55.5625C421.61 55.4413 421.832 55.2689 422.01 55.0455C422.192 54.822 422.319 54.553 422.391 54.2386H424.044C423.983 54.803 423.8 55.3068 423.493 55.75C423.186 56.1932 422.775 56.5417 422.26 56.7955C421.749 57.0492 421.148 57.1761 420.459 57.1761ZM431.065 57V49.7216H428.974C428.478 49.7216 428.092 49.8371 427.815 50.0682C427.539 50.2992 427.401 50.6023 427.401 50.9773C427.401 51.3485 427.527 51.6477 427.781 51.875C428.039 52.0985 428.399 52.2102 428.861 52.2102H431.56V53.5852H428.861C428.217 53.5852 427.66 53.4792 427.19 53.267C426.724 53.0511 426.365 52.7462 426.111 52.3523C425.861 51.9583 425.736 51.4924 425.736 50.9545C425.736 50.4053 425.865 49.9318 426.122 49.5341C426.384 49.1326 426.757 48.822 427.241 48.6023C427.73 48.3826 428.308 48.2727 428.974 48.2727H432.662V57H431.065ZM425.338 57L427.798 52.5909H429.537L427.077 57H425.338ZM442.834 57.1761C441.989 57.1761 441.262 56.9848 440.652 56.6023C440.046 56.2159 439.58 55.6837 439.254 55.0057C438.929 54.3277 438.766 53.5511 438.766 52.6761C438.766 51.7898 438.932 51.0076 439.266 50.3295C439.599 49.6477 440.069 49.1155 440.675 48.733C441.281 48.3504 441.995 48.1591 442.817 48.1591C443.48 48.1591 444.071 48.2822 444.589 48.5284C445.108 48.7708 445.527 49.1117 445.845 49.5511C446.167 49.9905 446.358 50.5038 446.419 51.0909H444.766C444.675 50.6818 444.466 50.3295 444.141 50.0341C443.819 49.7386 443.387 49.5909 442.845 49.5909C442.372 49.5909 441.957 49.7159 441.601 49.9659C441.249 50.2121 440.974 50.5644 440.777 51.0227C440.58 51.4773 440.482 52.0152 440.482 52.6364C440.482 53.2727 440.578 53.822 440.771 54.2841C440.964 54.7462 441.237 55.1042 441.589 55.358C441.946 55.6117 442.364 55.7386 442.845 55.7386C443.167 55.7386 443.459 55.6799 443.72 55.5625C443.985 55.4413 444.207 55.2689 444.385 55.0455C444.567 54.822 444.694 54.553 444.766 54.2386H446.419C446.358 54.803 446.175 55.3068 445.868 55.75C445.561 56.1932 445.15 56.5417 444.635 56.7955C444.124 57.0492 443.523 57.1761 442.834 57.1761ZM447.575 49.7386V48.2727H454.939V49.7386H452.092V57H450.433V49.7386H447.575ZM460.006 57.1761C459.188 57.1761 458.473 56.9886 457.864 56.6136C457.254 56.2386 456.78 55.714 456.443 55.0398C456.106 54.3655 455.938 53.5777 455.938 52.6761C455.938 51.7708 456.106 50.9792 456.443 50.3011C456.78 49.6231 457.254 49.0966 457.864 48.7216C458.473 48.3466 459.188 48.1591 460.006 48.1591C460.824 48.1591 461.538 48.3466 462.148 48.7216C462.758 49.0966 463.231 49.6231 463.568 50.3011C463.905 50.9792 464.074 51.7708 464.074 52.6761C464.074 53.5777 463.905 54.3655 463.568 55.0398C463.231 55.714 462.758 56.2386 462.148 56.6136C461.538 56.9886 460.824 57.1761 460.006 57.1761ZM460.011 55.75C460.542 55.75 460.981 55.6098 461.33 55.3295C461.678 55.0492 461.936 54.6761 462.102 54.2102C462.273 53.7443 462.358 53.2311 462.358 52.6705C462.358 52.1136 462.273 51.6023 462.102 51.1364C461.936 50.6667 461.678 50.2898 461.33 50.0057C460.981 49.7216 460.542 49.5795 460.011 49.5795C459.477 49.5795 459.034 49.7216 458.682 50.0057C458.333 50.2898 458.074 50.6667 457.903 51.1364C457.737 51.6023 457.653 52.1136 457.653 52.6705C457.653 53.2311 457.737 53.7443 457.903 54.2102C458.074 54.6761 458.333 55.0492 458.682 55.3295C459.034 55.6098 459.477 55.75 460.011 55.75ZM465.283 57L465.277 55.5284H465.589C465.832 55.5284 466.035 55.4773 466.197 55.375C466.364 55.2689 466.5 55.0909 466.607 54.8409C466.713 54.5909 466.794 54.2462 466.851 53.8068C466.908 53.3636 466.949 52.8068 466.976 52.1364L467.129 48.2727H473.22V57H471.555V49.7386H468.703L468.567 52.7045C468.533 53.4242 468.459 54.053 468.345 54.5909C468.235 55.1288 468.074 55.5777 467.862 55.9375C467.65 56.2936 467.377 56.5606 467.044 56.7386C466.711 56.9129 466.305 57 465.828 57H465.283ZM479.162 57.1761C478.344 57.1761 477.63 56.9886 477.02 56.6136C476.41 56.2386 475.937 55.714 475.599 55.0398C475.262 54.3655 475.094 53.5777 475.094 52.6761C475.094 51.7708 475.262 50.9792 475.599 50.3011C475.937 49.6231 476.41 49.0966 477.02 48.7216C477.63 48.3466 478.344 48.1591 479.162 48.1591C479.98 48.1591 480.694 48.3466 481.304 48.7216C481.914 49.0966 482.387 49.6231 482.724 50.3011C483.062 50.9792 483.23 51.7708 483.23 52.6761C483.23 53.5777 483.062 54.3655 482.724 55.0398C482.387 55.714 481.914 56.2386 481.304 56.6136C480.694 56.9886 479.98 57.1761 479.162 57.1761ZM479.168 55.75C479.698 55.75 480.137 55.6098 480.486 55.3295C480.834 55.0492 481.092 54.6761 481.259 54.2102C481.429 53.7443 481.514 53.2311 481.514 52.6705C481.514 52.1136 481.429 51.6023 481.259 51.1364C481.092 50.6667 480.834 50.2898 480.486 50.0057C480.137 49.7216 479.698 49.5795 479.168 49.5795C478.634 49.5795 478.19 49.7216 477.838 50.0057C477.49 50.2898 477.23 50.6667 477.06 51.1364C476.893 51.6023 476.81 52.1136 476.81 52.6705C476.81 53.2311 476.893 53.7443 477.06 54.2102C477.23 54.6761 477.49 55.0492 477.838 55.3295C478.19 55.6098 478.634 55.75 479.168 55.75ZM485.126 57V48.2727H488.746C489.731 48.2727 490.511 48.483 491.087 48.9034C491.662 49.3201 491.95 49.8864 491.95 50.6023C491.95 51.1136 491.787 51.5189 491.462 51.8182C491.136 52.1174 490.704 52.3182 490.166 52.4205C490.556 52.4659 490.914 52.5833 491.24 52.7727C491.566 52.9583 491.827 53.2083 492.024 53.5227C492.225 53.8371 492.325 54.2121 492.325 54.6477C492.325 55.1098 492.206 55.5189 491.967 55.875C491.729 56.2273 491.382 56.5038 490.928 56.7045C490.477 56.9015 489.933 57 489.297 57H485.126ZM486.723 55.5795H489.297C489.717 55.5795 490.047 55.4792 490.286 55.2784C490.524 55.0777 490.643 54.8049 490.643 54.4602C490.643 54.0549 490.524 53.7367 490.286 53.5057C490.047 53.2708 489.717 53.1534 489.297 53.1534H486.723V55.5795ZM486.723 51.9091H488.763C489.081 51.9091 489.354 51.8636 489.581 51.7727C489.812 51.6818 489.988 51.553 490.109 51.3864C490.234 51.2159 490.297 51.0152 490.297 50.7841C490.297 50.447 490.159 50.1837 489.882 49.9943C489.606 49.8049 489.227 49.7102 488.746 49.7102H486.723V51.9091ZM494.189 57V48.2727H495.888V51.9318H496.706L499.587 48.2727H501.689L498.308 52.517L501.729 57H499.621L496.99 53.5114H495.888V57H494.189ZM505.588 57.1932C505.035 57.1932 504.535 57.0909 504.088 56.8864C503.641 56.678 503.287 56.3769 503.026 55.983C502.768 55.589 502.639 55.1061 502.639 54.5341C502.639 54.0417 502.734 53.6364 502.923 53.3182C503.113 53 503.368 52.7481 503.69 52.5625C504.012 52.3769 504.372 52.2367 504.77 52.142C505.168 52.0473 505.573 51.9754 505.986 51.9261C506.509 51.8655 506.933 51.8163 507.259 51.7784C507.584 51.7367 507.821 51.6705 507.969 51.5795C508.116 51.4886 508.19 51.3409 508.19 51.1364V51.0966C508.19 50.6004 508.05 50.2159 507.77 49.9432C507.493 49.6705 507.08 49.5341 506.531 49.5341C505.959 49.5341 505.509 49.661 505.179 49.9148C504.853 50.1648 504.628 50.4432 504.503 50.75L502.906 50.3864C503.096 49.8561 503.372 49.428 503.736 49.1023C504.103 48.7727 504.526 48.5341 505.003 48.3864C505.48 48.2348 505.982 48.1591 506.509 48.1591C506.857 48.1591 507.226 48.2008 507.616 48.2841C508.01 48.3636 508.378 48.5114 508.719 48.7273C509.063 48.9432 509.346 49.2519 509.565 49.6534C509.785 50.0511 509.895 50.5682 509.895 51.2045V57H508.236V55.8068H508.168C508.058 56.0265 507.893 56.2424 507.673 56.4545C507.454 56.6667 507.171 56.8428 506.827 56.983C506.482 57.1231 506.069 57.1932 505.588 57.1932ZM505.957 55.8295C506.427 55.8295 506.829 55.7367 507.162 55.5511C507.499 55.3655 507.755 55.1231 507.929 54.8239C508.107 54.5208 508.196 54.197 508.196 53.8523V52.7273C508.135 52.7879 508.018 52.8447 507.844 52.8977C507.673 52.947 507.478 52.9905 507.259 53.0284C507.039 53.0625 506.825 53.0947 506.616 53.125C506.408 53.1515 506.234 53.1742 506.094 53.1932C505.764 53.2348 505.463 53.3049 505.19 53.4034C504.921 53.5019 504.705 53.6439 504.543 53.8295C504.384 54.0114 504.304 54.2538 504.304 54.5568C504.304 54.9773 504.459 55.2955 504.77 55.5114C505.08 55.7235 505.476 55.8295 505.957 55.8295ZM513.277 57.108C512.966 57.108 512.699 56.9981 512.476 56.7784C512.252 56.5549 512.141 56.286 512.141 55.9716C512.141 55.661 512.252 55.3958 512.476 55.1761C512.699 54.9527 512.966 54.8409 513.277 54.8409C513.588 54.8409 513.855 54.9527 514.078 55.1761C514.302 55.3958 514.413 55.661 514.413 55.9716C514.413 56.1799 514.36 56.3712 514.254 56.5455C514.152 56.7159 514.016 56.8523 513.845 56.9545C513.675 57.0568 513.485 57.108 513.277 57.108Z" fill="#1E1E1E"/>
<defs>
<filter id="filter0_i_6956_11790" x="133.125" y="108.147" width="234.74" height="163.768" filterUnits="userSpaceOnUse" color-interpolation-filters="sRGB">
<feFlood flood-opacity="0" result="BackgroundImageFix"/>
<feBlend mode="normal" in="SourceGraphic" in2="BackgroundImageFix" result="shape"/>
<feColorMatrix in="SourceAlpha" type="matrix" values="0 0 0 0 0 0 0 0 0 0 0 0 0 0 0 0 0 0 127 0" result="hardAlpha"/>
<feOffset dx="7" dy="12"/>
<feComposite in2="hardAlpha" operator="arithmetic" k2="-1" k3="1"/>
<feColorMatrix type="matrix" values="0 0 0 0 1 0 0 0 0 1 0 0 0 0 1 0 0 0 1 0"/>
<feBlend mode="normal" in2="shape" result="effect1_innerShadow_6956_11790"/>
</filter>
</defs>
</svg>
