<svg width="449" height="1208" viewBox="0 0 449 1208" fill="none" xmlns="http://www.w3.org/2000/svg">
<path d="M37.5 488H35.5H37.5ZM444.5 1206C444.5 1207.1 445.395 1208 446.5 1208C447.604 1208 448.5 1207.1 448.5 1206H444.5ZM0.66348 16.3135C0.759228 17.414 1.72891 18.2284 2.82932 18.1327C3.92973 18.0369 4.74417 17.0672 4.64842 15.9668L0.66348 16.3135ZM10.5054 45.6617C10.1608 44.6123 9.03065 44.0409 7.98123 44.3856C6.9318 44.7302 6.36047 45.8603 6.70512 46.9098L10.5054 45.6617ZM20.7656 74.8037C21.4128 75.6988 22.663 75.8998 23.5582 75.2527C24.4533 74.6055 24.6543 73.3552 24.0071 72.4601L20.7656 74.8037ZM45.3053 93.6487C44.412 92.9989 43.1612 93.1962 42.5114 94.0894C41.8616 94.9826 42.0589 96.2335 42.9521 96.8833L45.3053 93.6487ZM70.34 111.912C71.3616 112.332 72.5302 111.844 72.9503 110.822C73.3703 109.801 72.8826 108.632 71.861 108.212L70.34 111.912ZM100.989 117.43C99.9151 117.173 98.8358 117.835 98.5786 118.909C98.3214 119.984 98.9837 121.063 100.058 121.32L100.989 117.43ZM130.504 126.955C131.598 127.108 132.609 126.344 132.761 125.251C132.914 124.157 132.151 123.146 131.057 122.993L130.504 126.955ZM161.619 126.27C160.518 126.181 159.554 127.002 159.465 128.103C159.377 129.204 160.198 130.168 161.299 130.257L161.619 126.27ZM192.168 132.183C193.271 132.236 194.209 131.385 194.262 130.282C194.316 129.178 193.464 128.241 192.361 128.187L192.168 132.183ZM223.169 129.465C222.065 129.423 221.136 130.284 221.095 131.388C221.053 132.492 221.914 133.42 223.017 133.462L223.169 129.465ZM253.8 134.726C254.903 134.778 255.84 133.926 255.893 132.823C255.945 131.72 255.093 130.783 253.99 130.73L253.8 134.726ZM284.892 132.64C283.791 132.551 282.827 133.372 282.739 134.473C282.65 135.574 283.471 136.538 284.572 136.627L284.892 132.64ZM315.108 139.956C316.202 140.114 317.216 139.356 317.374 138.262C317.531 137.169 316.773 136.155 315.68 135.997L315.108 139.956ZM346.098 141.963C345.029 141.685 343.937 142.327 343.66 143.396C343.382 144.465 344.024 145.557 345.093 145.834L346.098 141.963ZM373.742 156.006C374.738 156.482 375.932 156.06 376.408 155.063C376.885 154.067 376.463 152.873 375.466 152.396L373.742 156.006ZM401.491 169.89C400.689 169.13 399.423 169.163 398.663 169.965C397.903 170.766 397.936 172.032 398.738 172.792L401.491 169.89ZM416.005 197.086C416.46 198.092 417.645 198.54 418.651 198.085C419.658 197.63 420.105 196.445 419.65 195.438L416.005 197.086ZM427.649 225.723C427.526 224.625 426.535 223.836 425.438 223.96C424.34 224.083 423.551 225.073 423.674 226.171L427.649 225.723ZM423.831 255.99C423.725 257.09 424.531 258.067 425.631 258.173C426.73 258.278 427.707 257.472 427.813 256.373L423.831 255.99ZM421.459 285.133C421.844 284.097 421.316 282.946 420.28 282.561C419.245 282.177 418.094 282.705 417.709 283.74L421.459 285.133ZM403.692 308.121C402.985 308.969 403.099 310.231 403.947 310.938C404.795 311.646 406.056 311.532 406.764 310.684L403.692 308.121ZM384.405 329.903C385.342 329.318 385.627 328.084 385.042 327.147C384.457 326.21 383.223 325.925 382.287 326.51L384.405 329.903ZM356.493 338.669C355.451 339.038 354.906 340.18 355.274 341.222C355.643 342.263 356.786 342.808 357.827 342.44L356.493 338.669ZM329.6 350.197C330.681 349.97 331.373 348.909 331.145 347.828C330.917 346.747 329.857 346.056 328.776 346.283L329.6 350.197ZM300.262 351.033C299.166 351.176 298.394 352.179 298.537 353.275C298.68 354.37 299.684 355.142 300.779 354.999L300.262 351.033ZM271.83 358.089C272.93 357.992 273.744 357.021 273.647 355.921C273.55 354.821 272.58 354.007 271.479 354.104L271.83 358.089ZM242.561 356.362C241.459 356.441 240.63 357.399 240.71 358.501C240.789 359.602 241.747 360.431 242.848 360.352L242.561 356.362ZM213.908 362.481C215.009 362.395 215.831 361.432 215.744 360.33C215.658 359.229 214.695 358.407 213.593 358.494L213.908 362.481ZM184.596 361.158C183.498 361.278 182.705 362.265 182.824 363.363C182.944 364.461 183.932 365.254 185.03 365.134L184.596 361.158ZM156.38 369.036C157.469 368.852 158.202 367.82 158.018 366.73C157.834 365.641 156.802 364.908 155.713 365.092L156.38 369.036ZM127.206 371.251C126.141 371.541 125.512 372.641 125.803 373.707C126.093 374.772 127.193 375.401 128.258 375.11L127.206 371.251ZM101.18 384.675C102.186 384.22 102.633 383.035 102.177 382.028C101.721 381.022 100.536 380.576 99.5298 381.032L101.18 384.675ZM74.2659 396.137C73.3979 396.82 73.2482 398.078 73.9315 398.946C74.6147 399.813 75.8722 399.963 76.7401 399.28L74.2659 396.137ZM57.4259 419.919C58.0447 419.004 57.8046 417.761 56.8896 417.142C55.9746 416.523 54.7313 416.763 54.1125 417.678L57.4259 419.919ZM41.505 444.257C41.1775 445.312 41.7672 446.433 42.822 446.761C43.8769 447.088 44.9976 446.498 45.3251 445.444L41.505 444.257ZM40.0827 473.442C40.174 472.341 39.3557 471.375 38.2549 471.283C37.1541 471.192 36.1877 472.01 36.0964 473.111L40.0827 473.442ZM36.1069 502.993C36.1993 504.094 37.1666 504.911 38.2673 504.818C39.368 504.726 40.1853 503.759 40.0928 502.658L36.1069 502.993ZM45.4755 530.817C45.1397 529.765 44.0143 529.184 42.9621 529.52C41.9098 529.856 41.3291 530.981 41.6649 532.034L45.4755 530.817ZM54.7677 558.609C55.4078 559.509 56.6565 559.72 57.5566 559.08C58.4568 558.44 58.6676 557.191 58.0274 556.291L54.7677 558.609ZM78.0799 576.404C77.1865 575.754 75.9357 575.952 75.2861 576.845C74.6365 577.738 74.834 578.989 75.7274 579.639L78.0799 576.404ZM101.746 593.79C102.77 594.203 103.936 593.708 104.349 592.684C104.763 591.66 104.268 590.494 103.243 590.081L101.746 593.79ZM130.862 598.603C129.786 598.354 128.711 599.024 128.462 600.1C128.212 601.176 128.882 602.25 129.958 602.5L130.862 598.603ZM158.92 607.675C160.015 607.823 161.022 607.055 161.169 605.961C161.317 604.866 160.549 603.859 159.454 603.711L158.92 607.675ZM188.385 606.753C187.284 606.664 186.319 607.484 186.229 608.585C186.14 609.685 186.96 610.65 188.061 610.74L188.385 606.753ZM217.293 612.695C218.396 612.758 219.341 611.915 219.404 610.812C219.466 609.709 218.623 608.764 217.52 608.701L217.293 612.695ZM246.707 610.305C245.604 610.243 244.659 611.086 244.596 612.189C244.533 613.291 245.377 614.236 246.479 614.299L246.707 610.305ZM275.615 616.248C276.716 616.337 277.681 615.517 277.771 614.416C277.86 613.315 277.04 612.35 275.939 612.261L275.615 616.248ZM305.08 615.325C303.985 615.177 302.978 615.945 302.831 617.04C302.683 618.134 303.451 619.141 304.545 619.289L305.08 615.325ZM333.138 624.397C334.214 624.647 335.289 623.977 335.538 622.901C335.788 621.825 335.117 620.75 334.041 620.501L333.138 624.397ZM362.254 629.211C361.23 628.797 360.064 629.292 359.651 630.317C359.237 631.341 359.732 632.506 360.757 632.92L362.254 629.211ZM385.92 646.597C386.813 647.246 388.064 647.049 388.714 646.155C389.363 645.262 389.166 644.011 388.272 643.362L385.92 646.597ZM409.232 664.391C408.592 663.491 407.343 663.281 406.443 663.921C405.543 664.561 405.332 665.81 405.972 666.71L409.232 664.391ZM418.524 692.183C418.86 693.235 419.985 693.816 421.038 693.48C422.09 693.144 422.671 692.019 422.335 690.967L418.524 692.183ZM427.893 720.008C427.8 718.907 426.833 718.09 425.733 718.182C424.632 718.274 423.815 719.242 423.907 720.342L427.893 720.008ZM423.958 749.719C423.874 750.82 424.699 751.781 425.8 751.865C426.901 751.949 427.862 751.125 427.947 750.023L423.958 749.719ZM422.919 779.1C423.224 778.038 422.61 776.931 421.549 776.626C420.487 776.321 419.379 776.935 419.075 777.996L422.919 779.1ZM407.553 804.026C406.96 804.957 407.234 806.194 408.165 806.787C409.097 807.381 410.333 807.107 410.927 806.175L407.553 804.026ZM391.038 828.321C391.899 827.629 392.036 826.37 391.344 825.509C390.652 824.648 389.393 824.511 388.532 825.203L391.038 828.321ZM363.918 839.827C362.906 840.268 362.442 841.446 362.884 842.459C363.325 843.472 364.504 843.935 365.516 843.494L363.918 839.827ZM337.417 852.698C338.491 852.44 339.153 851.36 338.895 850.286C338.637 849.212 337.557 848.55 336.483 848.808L337.417 852.698ZM307.964 853.927C306.868 854.069 306.095 855.072 306.237 856.168C306.378 857.263 307.381 858.036 308.477 857.894L307.964 853.927ZM279.233 860.661C280.335 860.589 281.169 859.636 281.096 858.534C281.023 857.432 280.071 856.597 278.969 856.67L279.233 860.661ZM249.788 858.076C248.684 858.115 247.82 859.041 247.859 860.145C247.897 861.249 248.823 862.112 249.927 862.074L249.788 858.076ZM220.679 862.945C221.783 862.914 222.653 861.993 222.621 860.889C222.589 859.785 221.668 858.915 220.564 858.947L220.679 862.945ZM191.286 859.997C190.183 860.049 189.331 860.986 189.383 862.09C189.435 863.193 190.372 864.045 191.475 863.993L191.286 859.997ZM162.409 865.974C163.509 865.87 164.316 864.894 164.212 863.794C164.108 862.695 163.132 861.887 162.032 861.991L162.409 865.974ZM132.838 865.928C131.752 866.128 131.033 867.17 131.233 868.257C131.432 869.343 132.475 870.062 133.561 869.862L132.838 865.928ZM105.536 877.027C106.581 876.667 107.135 875.529 106.775 874.485C106.415 873.44 105.277 872.886 104.232 873.246L105.536 877.027ZM77.4962 886.029C76.5711 886.632 76.3103 887.871 76.9138 888.796C77.5173 889.722 78.7564 889.982 79.6816 889.379L77.4962 886.029ZM58.7944 908.566C59.4651 907.688 59.2973 906.433 58.4197 905.763C57.5421 905.092 56.2869 905.26 55.6162 906.137L58.7944 908.566ZM41.882 932.442C41.5325 933.49 42.0986 934.623 43.1464 934.972C44.1942 935.322 45.327 934.756 45.6765 933.708L41.882 932.442ZM40.1068 961.835C40.2017 960.734 39.3864 959.765 38.2859 959.671C37.1854 959.576 36.2164 960.391 36.1216 961.492L40.1068 961.835ZM36.4053 991.456C36.5439 992.552 37.5447 993.328 38.6405 993.189C39.7363 993.05 40.5123 992.05 40.3737 990.954L36.4053 991.456ZM48.3934 1018.22C47.8977 1017.23 46.6956 1016.83 45.7085 1017.33C44.7215 1017.82 44.3232 1019.02 44.8189 1020.01L48.3934 1018.22ZM63.1006 1043.56C63.9288 1044.29 65.1927 1044.22 65.9235 1043.39C66.6544 1042.56 66.5755 1041.29 65.7473 1040.56L63.1006 1043.56ZM89.7993 1056C88.8001 1055.53 87.6085 1055.96 87.1377 1056.96C86.6669 1057.96 87.0953 1059.15 88.0945 1059.62L89.7993 1056ZM115.92 1069.7C116.984 1070 118.086 1069.37 118.381 1068.31C118.675 1067.24 118.051 1066.14 116.987 1065.85L115.92 1069.7ZM145.296 1072.05C144.208 1071.87 143.174 1072.6 142.986 1073.69C142.799 1074.77 143.529 1075.81 144.618 1076L145.296 1072.05ZM173.706 1080.06C174.803 1080.18 175.794 1079.39 175.918 1078.3C176.042 1077.2 175.252 1076.21 174.155 1076.08L173.706 1080.06ZM203.261 1078.87C202.16 1078.78 201.195 1079.59 201.105 1080.7C201.014 1081.8 201.834 1082.76 202.934 1082.85L203.261 1078.87ZM232.12 1085.05C233.222 1085.13 234.179 1084.3 234.258 1083.19C234.337 1082.09 233.507 1081.14 232.406 1081.06L232.12 1085.05ZM261.602 1083.21C260.501 1083.13 259.538 1083.95 259.45 1085.05C259.363 1086.15 260.185 1087.11 261.286 1087.2L261.602 1083.21ZM290.403 1089.85C291.502 1089.96 292.487 1089.17 292.603 1088.07C292.719 1086.97 291.923 1085.98 290.824 1085.87L290.403 1089.85ZM319.923 1089.61C318.832 1089.44 317.809 1090.18 317.639 1091.28C317.469 1092.37 318.216 1093.39 319.307 1093.56L319.923 1089.61ZM347.872 1099.12C348.946 1099.37 350.026 1098.71 350.285 1097.64C350.543 1096.57 349.882 1095.49 348.808 1095.23L347.872 1099.12ZM377.05 1103.85C376.018 1103.46 374.861 1103.97 374.465 1105C374.069 1106.03 374.584 1107.19 375.615 1107.59L377.05 1103.85ZM401.37 1120.42C402.298 1121.02 403.536 1120.75 404.135 1119.83C404.734 1118.9 404.467 1117.66 403.539 1117.06L401.37 1120.42ZM425.953 1136.53C425.241 1135.68 423.979 1135.58 423.135 1136.29C422.29 1137 422.182 1138.26 422.894 1139.11L425.953 1136.53ZM437.316 1163.55C437.715 1164.58 438.874 1165.09 439.904 1164.69C440.934 1164.29 441.445 1163.13 441.046 1162.1L437.316 1163.55ZM447.763 1191.02C447.651 1189.92 446.669 1189.12 445.571 1189.23C444.472 1189.35 443.672 1190.33 443.784 1191.43L447.763 1191.02ZM0 0.500244C0 5.99771 0.224249 11.2655 0.66348 16.3135L4.64842 15.9668C4.21982 11.041 4 5.88907 4 0.500244H0ZM6.70512 46.9098C10.1732 57.4697 14.9161 66.7129 20.7656 74.8037L24.0071 72.4601C18.4085 64.7163 13.8498 55.8451 10.5054 45.6617L6.70512 46.9098ZM42.9521 96.8833C51.1996 102.883 60.3984 107.824 70.34 111.912L71.861 108.212C62.1632 104.225 53.2537 99.4311 45.3053 93.6487L42.9521 96.8833ZM100.058 121.32C109.813 123.656 120.006 125.49 130.504 126.955L131.057 122.993C120.658 121.542 110.594 119.73 100.989 117.43L100.058 121.32ZM161.299 130.257C171.457 131.073 181.782 131.68 192.168 132.183L192.361 128.187C182.001 127.686 171.722 127.081 161.619 126.27L161.299 130.257ZM223.017 133.462C233.347 133.854 243.637 134.242 253.8 134.726L253.99 130.73C243.805 130.245 233.495 129.857 223.169 129.465L223.017 133.462ZM284.572 136.627C295.064 137.469 305.281 138.538 315.108 139.956L315.68 135.997C305.748 134.564 295.444 133.487 284.892 132.64L284.572 136.627ZM345.093 145.834C355.429 148.518 365.038 151.847 373.742 156.006L375.466 152.396C366.483 148.104 356.624 144.696 346.098 141.963L345.093 145.834ZM398.738 172.792C405.866 179.554 411.701 187.563 416.005 197.086L419.65 195.438C415.127 185.43 408.984 176.998 401.491 169.89L398.738 172.792ZM423.674 226.171C424.219 231.005 424.5 236.11 424.5 241.5H428.5C428.5 235.971 428.212 230.716 427.649 225.723L423.674 226.171ZM424.5 241.5C424.5 246.568 424.273 251.393 423.831 255.99L427.813 256.373C428.267 251.641 428.5 246.687 428.5 241.5H424.5ZM417.709 283.74C414.229 293.113 409.493 301.169 403.692 308.121L406.764 310.684C412.859 303.378 417.823 294.925 421.459 285.133L417.709 283.74ZM382.287 326.51C374.517 331.36 365.864 335.352 356.493 338.669L357.827 342.44C367.416 339.046 376.343 334.936 384.405 329.903L382.287 326.51ZM328.776 346.283C319.633 348.209 310.09 349.75 300.262 351.033L300.779 354.999C310.683 353.707 320.332 352.149 329.6 350.197L328.776 346.283ZM271.479 354.104C261.947 354.943 252.278 355.662 242.561 356.362L242.848 360.352C252.568 359.651 262.264 358.931 271.83 358.089L271.479 354.104ZM213.593 358.494C203.842 359.263 194.141 360.116 184.596 361.158L185.03 365.134C194.521 364.098 204.178 363.248 213.908 362.481L213.593 358.494ZM155.713 365.092C145.879 366.754 136.334 368.763 127.206 371.251L128.258 375.11C137.233 372.664 146.646 370.681 156.38 369.036L155.713 365.092ZM99.5298 381.032C90.3447 385.192 81.8576 390.161 74.2659 396.137L76.7401 399.28C84.0396 393.534 92.2403 388.725 101.18 384.675L99.5298 381.032ZM54.1125 417.678C48.8642 425.439 44.6125 434.249 41.505 444.257L45.3251 445.444C48.3216 435.792 52.407 427.341 57.4259 419.919L54.1125 417.678ZM36.0964 473.111C35.7015 477.87 35.5 482.83 35.5 488H39.5C39.5 482.934 39.6975 478.084 40.0827 473.442L36.0964 473.111ZM35.5 488C35.5 493.216 35.7051 498.21 36.1069 502.993L40.0928 502.658C39.701 497.993 39.5 493.111 39.5 488H35.5ZM41.6649 532.034C44.8873 542.129 49.3075 550.931 54.7677 558.609L58.0274 556.291C52.8181 548.966 48.5784 540.538 45.4755 530.817L41.6649 532.034ZM75.7274 579.639C83.5591 585.334 92.3013 589.977 101.746 593.79L103.243 590.081C94.0471 586.368 85.6031 581.875 78.0799 576.404L75.7274 579.639ZM129.958 602.5C139.245 604.652 148.943 606.33 158.92 607.675L159.454 603.711C149.571 602.378 139.999 600.721 130.862 598.603L129.958 602.5ZM188.061 610.74C197.695 611.522 207.475 612.136 217.293 612.695L217.52 608.701C207.716 608.144 197.972 607.531 188.385 606.753L188.061 610.74ZM246.479 614.299C256.284 614.857 266.027 615.469 275.615 616.248L275.939 612.261C266.304 611.479 256.525 610.864 246.707 610.305L246.479 614.299ZM304.545 619.289C314.429 620.622 324 622.279 333.138 624.397L334.041 620.501C324.755 618.348 315.057 616.671 305.08 615.325L304.545 619.289ZM360.757 632.92C369.953 636.632 378.397 641.126 385.92 646.597L388.272 643.362C380.441 637.667 371.698 633.023 362.254 629.211L360.757 632.92ZM405.972 666.71C411.182 674.035 415.421 682.462 418.524 692.183L422.335 690.967C419.112 680.871 414.692 672.069 409.232 664.391L405.972 666.71ZM423.907 720.342C424.299 725.007 424.5 729.889 424.5 735H428.5C428.5 729.785 428.295 724.79 427.893 720.008L423.907 720.342ZM424.5 735C424.5 740.124 424.316 745.027 423.958 749.719L427.947 750.023C428.313 745.224 428.5 740.219 428.5 735H424.5ZM419.075 777.996C416.235 787.888 412.345 796.506 407.553 804.026L410.927 806.175C415.939 798.309 419.981 789.335 422.919 779.1L419.075 777.996ZM388.532 825.203C381.215 831.084 372.954 835.89 363.918 839.827L365.516 843.494C374.825 839.437 383.403 834.457 391.038 828.321L388.532 825.203ZM336.483 848.808C327.392 850.992 317.844 852.649 307.964 853.927L308.477 857.894C318.466 856.602 328.158 854.921 337.417 852.698L336.483 848.808ZM278.969 856.67C269.379 857.305 259.62 857.734 249.788 858.076L249.927 862.074C259.781 861.731 269.586 861.3 279.233 860.661L278.969 856.67ZM220.564 858.947C210.742 859.23 200.947 859.541 191.286 859.997L191.475 863.993C201.097 863.538 210.862 863.228 220.679 862.945L220.564 858.947ZM162.032 861.991C151.99 862.942 142.214 864.204 132.838 865.928L133.561 869.862C142.796 868.164 152.452 866.916 162.409 865.974L162.032 861.991ZM104.232 873.246C94.5491 876.585 85.5647 880.765 77.4962 886.029L79.6816 889.379C87.425 884.328 96.1013 880.281 105.536 877.027L104.232 873.246ZM55.6162 906.137C49.8878 913.633 45.2524 922.338 41.882 932.442L45.6765 933.708C48.9141 924.002 53.3473 915.694 58.7944 908.566L55.6162 906.137ZM36.1216 961.492C35.7101 966.268 35.5 971.268 35.5 976.5H39.5C39.5 971.375 39.7058 966.49 40.1068 961.835L36.1216 961.492ZM35.5 976.5C35.5 981.741 35.8065 986.722 36.4053 991.456L40.3737 990.954C39.7974 986.398 39.5 981.585 39.5 976.5H35.5ZM44.8189 1020.01C49.4236 1029.18 55.6106 1036.95 63.1006 1043.56L65.7473 1040.56C58.6137 1034.27 52.7529 1026.9 48.3934 1018.22L44.8189 1020.01ZM88.0945 1059.62C96.6365 1063.65 105.974 1066.95 115.92 1069.7L116.987 1065.85C107.209 1063.14 98.093 1059.91 89.7993 1056L88.0945 1059.62ZM144.618 1076C154.008 1077.61 163.741 1078.93 173.706 1080.06L174.155 1076.08C164.247 1074.97 154.592 1073.65 145.296 1072.05L144.618 1076ZM202.934 1082.85C212.578 1083.64 222.339 1084.35 232.12 1085.05L232.406 1081.06C222.624 1080.36 212.882 1079.65 203.261 1078.87L202.934 1082.85ZM261.286 1087.2C271.09 1087.98 280.825 1088.83 290.403 1089.85L290.824 1085.87C281.199 1084.85 271.426 1083.99 261.602 1083.21L261.286 1087.2ZM319.307 1093.56C329.163 1095.1 338.722 1096.91 347.872 1099.12L348.808 1095.23C339.531 1093 329.863 1091.16 319.923 1089.61L319.307 1093.56ZM375.615 1107.59C384.962 1111.18 393.6 1115.41 401.37 1120.42L403.539 1117.06C395.497 1111.87 386.605 1107.52 377.05 1103.85L375.615 1107.59ZM422.894 1139.11C428.848 1146.17 433.718 1154.26 437.316 1163.55L441.046 1162.1C437.287 1152.4 432.191 1143.93 425.953 1136.53L422.894 1139.11ZM443.784 1191.43C444.257 1196.06 444.5 1200.91 444.5 1206H448.5C448.5 1200.79 448.251 1195.8 447.763 1191.02L443.784 1191.43Z" fill="white"/>
<rect x="407" y="221" width="40" height="40" rx="20" fill="white"/>
<rect x="19" y="466" width="40" height="40" rx="20" fill="white"/>
<rect x="19" y="956" width="40" height="40" rx="20" fill="white"/>
<rect x="407" y="716" width="40" height="40" rx="20" fill="white"/>
</svg>
