<svg width="35" height="35" viewBox="0 0 35 35" fill="none" xmlns="http://www.w3.org/2000/svg">
<rect width="35" height="35" rx="9" fill="#1E1E1E"/>
<path d="M22.2838 9.91019L25.0613 9.91019V19.4592H22.2838V9.91019ZM18.3652 8.50214L28.9799 8.50214V11.388L18.3652 11.388V8.50214Z" fill="white"/>
<path d="M6.03711 15.7836H9.52377C9.56316 16.0258 9.68628 16.2401 9.89312 16.4265C10.1098 16.6035 10.4004 16.7433 10.7648 16.8458C11.1292 16.9389 11.5576 16.9855 12.0501 16.9855C12.7297 16.9855 13.2567 16.911 13.6309 16.7619C14.0151 16.6128 14.2071 16.3846 14.2071 16.0771C14.2071 15.8628 14.0988 15.6904 13.8821 15.56C13.6654 15.4202 13.237 15.327 12.5968 15.2805L10.6466 15.1267C9.051 15.0149 7.8937 14.6888 7.17471 14.1484C6.46555 13.5987 6.11098 12.8626 6.11098 11.9402C6.11098 11.1855 6.34244 10.5566 6.80536 10.0535C7.26827 9.54104 7.9134 9.15437 8.74075 8.89349C9.56809 8.63261 10.5432 8.50217 11.666 8.50217C12.7494 8.50217 13.7097 8.64658 14.5469 8.93542C15.394 9.22425 16.0637 9.63421 16.5562 10.1653C17.0585 10.6871 17.3343 11.2973 17.3835 11.9961H13.8969C13.8575 11.7912 13.7442 11.6141 13.5571 11.465C13.3798 11.3067 13.1237 11.1855 12.7888 11.1017C12.4539 11.0178 12.055 10.9759 11.5921 10.9759C10.9815 10.9759 10.4939 11.0458 10.1295 11.1855C9.77492 11.3253 9.59764 11.5349 9.59764 11.8144C9.59764 12.0194 9.70105 12.1871 9.90789 12.3176C10.1246 12.448 10.5185 12.5365 11.0898 12.5831L13.232 12.7508C14.2958 12.8254 15.1526 12.9838 15.8027 13.226C16.4626 13.4589 16.9403 13.7804 17.2358 14.1903C17.5313 14.591 17.679 15.0988 17.679 15.7137C17.679 16.4591 17.4426 17.116 16.9698 17.6843C16.4971 18.2433 15.8323 18.6813 14.9754 18.998C14.1283 19.3055 13.1335 19.4592 11.991 19.4592C10.819 19.4592 9.7897 19.3055 8.90326 18.998C8.01682 18.6906 7.32244 18.262 6.82013 17.7123C6.31781 17.1532 6.05681 16.5103 6.03711 15.7836Z" fill="white"/>
<path d="M28.1618 23.6952C28.1445 24.0603 28.0665 24.4144 27.9278 24.7574C27.7891 25.0948 27.5869 25.3991 27.3211 25.6702C27.0553 25.9357 26.7201 26.1459 26.3156 26.3008C25.9111 26.4502 25.4373 26.5249 25.0234 26.5249C24.5149 26.5249 24.0381 26.4557 23.5932 26.3174C23.1483 26.1736 22.7553 25.9662 22.4144 25.6951C22.0735 25.4185 21.8048 25.0782 21.6083 24.6744C21.4176 24.2706 21.3223 23.8031 21.3223 23.272C21.3223 22.7409 21.4176 22.2735 21.6083 21.8696C21.8048 21.4658 22.0764 21.1283 22.4231 20.8572C22.7755 20.5806 23.18 20.3732 23.6365 20.2349C24.0988 20.0911 24.4665 20.0191 24.9981 20.0191C25.732 20.0191 26.3618 20.1242 26.8877 20.3345C27.4193 20.5447 27.8469 20.8351 28.1705 21.2058C28.4941 21.5764 28.7021 22.0024 28.7946 22.4837H26.7663C26.7143 22.3011 26.6045 22.1462 26.437 22.019C26.2752 21.8862 26.0729 21.7866 25.8302 21.7203C25.5875 21.6483 25.3159 21.6124 25.0155 21.6124C24.6456 21.6124 24.4542 21.6732 24.1826 21.7949C23.9168 21.9166 23.7117 22.0992 23.5672 22.3426C23.4227 22.586 23.3505 22.8958 23.3505 23.272C23.3505 23.6482 23.4285 23.9635 23.5845 24.218C23.7463 24.4725 23.9746 24.6633 24.2693 24.7906C24.5698 24.9178 24.793 24.9814 25.1975 24.9814C25.5904 24.9814 25.9371 24.9316 26.2376 24.8321C26.5439 24.7325 26.7895 24.5859 26.9744 24.3923C27.1593 24.1986 27.2691 23.958 27.3037 23.6703L28.1618 23.6952ZM25.3188 24.2761V23.0729H28.8553V26.5076H27.4424L27.1477 23.9608L27.5204 24.2761H25.3188Z" fill="white"/>
<path d="M16.8244 26.5249C16.0386 26.5249 15.3489 26.3893 14.7552 26.1182C14.1673 25.8472 13.7074 25.4682 13.3757 24.9814C13.0497 24.4946 12.8867 23.9248 12.8867 23.272C12.8867 22.6192 13.0497 22.0494 13.3757 21.5625C13.7074 21.0757 14.1673 20.6968 14.7552 20.4257C15.3489 20.1546 16.0386 20.0191 16.8244 20.0191C17.6102 20.0191 18.2971 20.1546 18.8849 20.4257C19.4787 20.6968 19.9385 21.0757 20.2644 21.5625C20.5962 22.0494 20.7621 22.6192 20.7621 23.272C20.7621 23.9248 20.5962 24.4946 20.2644 24.9814C19.9385 25.4682 19.4787 25.8472 18.8849 26.1182C18.2971 26.3893 17.6102 26.5249 16.8244 26.5249ZM16.8244 24.8071C17.2144 24.8071 17.5491 24.7463 17.8285 24.6246C18.1137 24.4973 18.332 24.3203 18.4833 24.0935C18.6347 23.8611 18.7103 23.5873 18.7103 23.272C18.7103 22.9566 18.6347 22.6856 18.4833 22.4587C18.332 22.2264 18.1137 22.0494 17.8285 21.9277C17.5491 21.8004 17.2144 21.7368 16.8244 21.7368C16.4344 21.7368 16.0968 21.8004 15.8116 21.9277C15.5322 22.0494 15.3169 22.2264 15.1655 22.4587C15.0142 22.6856 14.9385 22.9566 14.9385 23.272C14.9385 23.5873 15.0142 23.8611 15.1655 24.0935C15.3169 24.3203 15.5322 24.4973 15.8116 24.6246C16.0968 24.7463 16.4344 24.8071 16.8244 24.8071Z" fill="white"/>
<path d="M8.1266 20.0818V25.6952L7.2422 24.8572H12.3274V26.5252H6.16406L6.16406 20.0818H8.1266Z" fill="white"/>
</svg>
