<svg width="120" height="120" viewBox="0 0 120 120" fill="none" xmlns="http://www.w3.org/2000/svg">
<rect x="1" y="1" width="118" height="118" rx="19" stroke="#E4E4E4" stroke-width="2"/>
<path d="M83.7499 75L67.1429 60M52.8571 60L36.2501 75M35 47.5L55.4123 61.7886C57.0652 62.9457 57.8917 63.5242 58.7907 63.7483C59.5847 63.9462 60.4153 63.9462 61.2093 63.7483C62.1083 63.5242 62.9348 62.9457 64.5877 61.7886L85 47.5M47 80H73C77.2004 80 79.3006 80 80.9049 79.1826C82.3161 78.4635 83.4635 77.3161 84.1825 75.9049C85 74.3006 85 72.2004 85 68V52C85 47.7996 85 45.6994 84.1825 44.0951C83.4635 42.6839 82.3161 41.5365 80.9049 40.8175C79.3006 40 77.2004 40 73 40H47C42.7996 40 40.6994 40 39.0951 40.8175C37.6839 41.5365 36.5365 42.6839 35.8175 44.0951C35 45.6994 35 47.7996 35 52V68C35 72.2004 35 74.3006 35.8175 75.9049C36.5365 77.3161 37.6839 78.4635 39.0951 79.1826C40.6994 80 42.7996 80 47 80Z" stroke="#1E1E1E" stroke-width="4" stroke-linecap="round" stroke-linejoin="round"/>
</svg>
