<svg width="121" height="120" viewBox="0 0 121 120" fill="none" xmlns="http://www.w3.org/2000/svg">
<rect x="1.5" y="1" width="118" height="118" rx="19" stroke="#E4E4E4" stroke-width="2"/>
<path d="M75.253 42.4963C75.7677 43.7413 76.7559 44.731 78.0001 45.2477L82.3631 47.0549C83.6082 47.5707 84.5974 48.56 85.1132 49.8051C85.6289 51.0503 85.6289 52.4494 85.1132 53.6945L83.3073 58.0545C82.7913 59.3002 82.7906 60.7007 83.3089 61.9458L85.1117 66.3045C85.3674 66.9212 85.499 67.5823 85.4991 68.2499C85.4992 68.9175 85.3678 69.5786 85.1123 70.1954C84.8568 70.8122 84.4823 71.3726 84.0102 71.8446C83.5381 72.3166 82.9776 72.6909 82.3607 72.9462L78.0009 74.7522C76.7559 75.267 75.7662 76.2552 75.2496 77.4994L73.4424 81.8626C72.9266 83.1077 71.9374 84.097 70.6923 84.6128C69.4472 85.1285 68.0482 85.1285 66.803 84.6128L62.4432 82.8068C61.1981 82.2923 59.7996 82.2933 58.5552 82.8097L54.1922 84.6144C52.9478 85.129 51.55 85.1285 50.3059 84.6132C49.0618 84.0978 48.0731 83.1097 47.557 81.8659L45.7493 77.5015C45.2345 76.2564 44.2464 75.2667 43.0021 74.7501L38.6392 72.9428C37.3946 72.4273 36.4056 71.4386 35.8897 70.1942C35.3738 68.9497 35.3731 67.5513 35.8878 66.3064L37.6937 61.9464C38.2081 60.7012 38.2071 59.3026 37.6907 58.0582L35.8874 53.692C35.6318 53.0752 35.5001 52.4142 35.5 51.7466C35.4999 51.079 35.6313 50.4179 35.8868 49.8011C36.1423 49.1843 36.5168 48.6239 36.9889 48.1519C37.4611 47.6799 38.0216 47.3055 38.6384 47.0503L42.9982 45.2443C44.2422 44.7299 45.2312 43.743 45.7483 42.5001L47.5555 38.137C48.0712 36.8919 49.0604 35.9026 50.3056 35.3868C51.5507 34.8711 52.9497 34.8711 54.1948 35.3868L58.5546 37.1928C59.7998 37.7073 61.1983 37.7062 62.4426 37.1899L66.8074 35.3896C68.0524 34.8741 69.4511 34.8743 70.6959 35.3899C71.9408 35.9056 72.9299 36.8946 73.4458 38.1394L75.2535 42.5038L75.253 42.4963Z" fill="#EEF3FF"/>
<path d="M53 60L58 65L69.25 53.75M75.253 42.4963C75.7677 43.7413 76.7559 44.731 78.0001 45.2477L82.3631 47.0549C83.6082 47.5707 84.5974 48.56 85.1132 49.8051C85.6289 51.0503 85.6289 52.4494 85.1132 53.6945L83.3073 58.0545C82.7913 59.3002 82.7906 60.7007 83.3089 61.9458L85.1117 66.3045C85.3674 66.9212 85.499 67.5823 85.4991 68.2499C85.4992 68.9175 85.3678 69.5786 85.1123 70.1954C84.8568 70.8122 84.4823 71.3726 84.0102 71.8446C83.5381 72.3166 82.9776 72.6909 82.3607 72.9462L78.0009 74.7522C76.7559 75.267 75.7662 76.2552 75.2496 77.4994L73.4424 81.8626C72.9266 83.1077 71.9374 84.097 70.6923 84.6128C69.4472 85.1285 68.0482 85.1285 66.803 84.6128L62.4432 82.8068C61.1981 82.2923 59.7996 82.2933 58.5552 82.8097L54.1922 84.6144C52.9478 85.129 51.55 85.1285 50.3059 84.6132C49.0618 84.0978 48.0731 83.1097 47.557 81.8659L45.7493 77.5015C45.2345 76.2564 44.2464 75.2667 43.0021 74.7501L38.6392 72.9428C37.3946 72.4273 36.4056 71.4386 35.8897 70.1942C35.3738 68.9497 35.3731 67.5513 35.8878 66.3064L37.6937 61.9464C38.2081 60.7012 38.2071 59.3026 37.6907 58.0582L35.8874 53.692C35.6318 53.0752 35.5001 52.4142 35.5 51.7466C35.4999 51.079 35.6313 50.4179 35.8868 49.8011C36.1423 49.1843 36.5168 48.6239 36.9889 48.1519C37.4611 47.6799 38.0216 47.3055 38.6384 47.0503L42.9982 45.2443C44.2422 44.7299 45.2312 43.743 45.7483 42.5001L47.5555 38.137C48.0712 36.8919 49.0604 35.9026 50.3056 35.3868C51.5507 34.8711 52.9497 34.8711 54.1948 35.3868L58.5546 37.1928C59.7998 37.7073 61.1983 37.7062 62.4426 37.1899L66.8074 35.3896C68.0524 34.8741 69.4511 34.8743 70.6959 35.3899C71.9408 35.9056 72.9299 36.8946 73.4458 38.1394L75.2535 42.5038L75.253 42.4963Z" stroke="url(#paint0_linear_5274_2690)" stroke-width="4" stroke-linecap="round" stroke-linejoin="round"/>
<defs>
<linearGradient id="paint0_linear_5274_2690" x1="86" y1="35" x2="36" y2="85" gradientUnits="userSpaceOnUse">
<stop stop-color="#214ECC"/>
<stop offset="0.483825" stop-color="#2962FF"/>
<stop offset="1" stop-color="#1E1E1E"/>
</linearGradient>
</defs>
</svg>
