<svg width="210" height="94" viewBox="0 0 210 94" fill="none" xmlns="http://www.w3.org/2000/svg">
<rect x="1.5" y="27.5" width="207" height="65" rx="32.5" stroke="white" stroke-width="3"/>
<mask id="mask0_6930_11792" style="mask-type:alpha" maskUnits="userSpaceOnUse" x="0" y="0" width="210" height="94">
<path d="M0 60.6452C0 27.1518 27.1518 0 60.6452 0H149.355C182.848 0 210 27.1518 210 60.6452C210 79.0665 195.067 94 176.645 94H33.3548C14.9335 94 0 79.0665 0 60.6452Z" fill="#D9D9D9"/>
</mask>
<g mask="url(#mask0_6930_11792)">
<rect width="78" height="78" rx="39" transform="matrix(-0.984808 0.173648 0.173648 0.984808 88.4434 18.6618)" fill="#6200EA"/>
<mask id="mask1_6930_11792" style="mask-type:alpha" maskUnits="userSpaceOnUse" x="17" y="24" width="79" height="79">
<rect width="78" height="78" rx="39" transform="matrix(-0.984808 0.173648 0.173648 0.984808 88.4434 18.6618)" fill="#2962FF"/>
</mask>
<g mask="url(#mask1_6930_11792)">
<rect width="74.88" height="74.88" rx="37.44" transform="matrix(-0.993986 0.109507 0.109507 0.993986 99.7363 42.1879)" fill="#EDE7F6"/>
<rect width="7.8" height="7.8" rx="3.9" transform="matrix(-0.993986 0.109507 0.109507 0.993986 54.7344 68.3276)" fill="#6200EA"/>
<rect width="7.8" height="7.8" rx="3.9" transform="matrix(-0.993986 0.109507 0.109507 0.993986 71.707 58.5563)" fill="#6200EA"/>
<path fill-rule="evenodd" clip-rule="evenodd" d="M74.6103 72.5085C74.718 71.4626 75.6495 70.6976 76.6981 70.7975C77.7516 70.8979 78.5243 71.8333 78.4239 72.8868L76.5164 72.7051C78.4239 72.8868 78.4238 72.8879 78.4237 72.889L78.4235 72.8913L78.423 72.8963L78.4218 72.908L78.4185 72.938C78.4159 72.9609 78.4125 72.9897 78.4079 73.0239C78.3989 73.0925 78.3856 73.1833 78.3665 73.2945C78.3282 73.5169 78.2666 73.8213 78.169 74.1924C77.9738 74.9341 77.6337 75.946 77.0461 77.1009C75.8642 79.4241 73.7005 82.2855 69.7941 84.6726C65.8876 87.0597 62.3543 87.6795 59.7477 87.6714C58.4519 87.6673 57.3963 87.5083 56.6472 87.3436C56.2725 87.2612 55.9735 87.1771 55.7582 87.1097C55.6505 87.076 55.5636 87.0463 55.4984 87.0231C55.4659 87.0115 55.4387 87.0015 55.4172 86.9934L55.3889 86.9826L55.378 86.9783L55.3733 86.9764L55.3712 86.9756C55.3701 86.9752 55.3692 86.9748 56.0508 85.2621L55.3691 86.9748C54.3859 86.5834 53.906 85.4691 54.2974 84.4858C54.6869 83.5072 55.7926 83.0272 56.7724 83.4086C56.7747 83.4094 56.779 83.411 56.7855 83.4133C56.8053 83.4204 56.8449 83.4341 56.9033 83.4524C57.0203 83.489 57.2118 83.5437 57.4704 83.6006C57.9881 83.7145 58.7705 83.8359 59.7598 83.839C61.7234 83.8451 64.5487 83.3866 67.7958 81.4024C71.0428 79.4182 72.7399 77.1134 73.6303 75.3632C74.0789 74.4814 74.3278 73.7298 74.4627 73.2172C74.5301 72.9611 74.5687 72.7657 74.5895 72.645C74.5999 72.5847 74.6058 72.5432 74.6085 72.5222C74.6094 72.5155 74.61 72.5109 74.6103 72.5085C74.6103 72.5085 74.6103 72.5085 74.6103 72.5085Z" fill="#6200EA"/>
</g>
<rect x="103" y="14" width="90" height="90" rx="45" fill="#E91E63"/>
<mask id="mask2_6930_11792" style="mask-type:alpha" maskUnits="userSpaceOnUse" x="103" y="14" width="90" height="90">
<rect x="103" y="14" width="90" height="90" rx="45" fill="#2962FF"/>
</mask>
<g mask="url(#mask2_6930_11792)">
<rect x="94.8809" y="42.9959" width="86.4" height="86.4" rx="43.2" transform="rotate(-3.7131 94.8809 42.9959)" fill="#FCE4EC"/>
<rect x="151.254" y="63.6822" width="9" height="9" rx="4.5" transform="rotate(-3.7131 151.254 63.6822)" fill="#E91E63"/>
<rect x="130.01" y="55.9798" width="9" height="9" rx="4.5" transform="rotate(-3.7131 130.01 55.9798)" fill="#E91E63"/>
<path fill-rule="evenodd" clip-rule="evenodd" d="M129.51 72.4149C129.178 71.248 127.966 70.5654 126.795 70.889C125.618 71.2142 124.927 72.4319 125.252 73.6089L127.383 73.0202C125.252 73.6089 125.252 73.6101 125.253 73.6113L125.254 73.6139L125.255 73.6195L125.259 73.6325L125.269 73.666C125.276 73.6915 125.286 73.7235 125.298 73.7615C125.322 73.8376 125.355 73.9381 125.399 74.0607C125.487 74.3057 125.618 74.6393 125.803 75.0414C126.174 75.8451 126.763 76.9268 127.662 78.1214C129.471 80.5245 132.503 83.3424 137.42 85.2721C142.337 87.2019 146.476 87.1984 149.436 86.6668C150.908 86.4025 152.076 86.0104 152.894 85.6731C153.303 85.5044 153.626 85.3489 153.857 85.2292C153.973 85.1693 154.066 85.1182 154.135 85.0788C154.17 85.0591 154.199 85.0423 154.222 85.0287L154.251 85.0108L154.263 85.0037L154.268 85.0007L154.27 84.9993C154.271 84.9986 154.272 84.998 153.155 83.1884L154.272 84.998C155.311 84.3563 155.633 82.9939 154.992 81.955C154.353 80.921 153 80.5971 151.963 81.2268C151.961 81.2282 151.956 81.2309 151.949 81.2348C151.928 81.2468 151.886 81.2703 151.823 81.3028C151.698 81.3678 151.491 81.4684 151.209 81.5849C150.643 81.818 149.778 82.1127 148.655 82.3144C146.425 82.7149 143.123 82.7598 139.035 81.1558C134.948 79.5517 132.558 77.2727 131.195 75.4624C130.509 74.5503 130.076 73.7461 129.82 73.1907C129.692 72.9132 129.609 72.6989 129.561 72.5658C129.537 72.4994 129.522 72.4534 129.515 72.4302C129.512 72.4227 129.511 72.4176 129.51 72.415C129.51 72.415 129.51 72.4149 129.51 72.4149Z" fill="#E91E63"/>
</g>
<mask id="path-15-inside-1_6930_11792" fill="white">
<path d="M0 60C0 41.2223 15.2223 26 34 26H176C194.778 26 210 41.2223 210 60C210 78.7777 194.778 94 176 94H34C15.2223 94 0 78.7777 0 60Z"/>
</mask>
<path d="M0 26H210H0ZM210 60C210 80.4345 193.435 97 173 97H37C16.5655 97 0 80.4345 0 60C0 77.1208 15.2223 91 34 91H176C194.778 91 210 77.1208 210 60ZM0 94V26V94ZM210 26V94V26Z" fill="white" mask="url(#path-15-inside-1_6930_11792)"/>
</g>
</svg>
