<svg width="62" height="62" viewBox="0 0 62 62" fill="none" xmlns="http://www.w3.org/2000/svg">
<path d="M29.1001 1.77682C29.7031 -0.0567274 32.2969 -0.0567274 32.8999 1.77682L39.3465 21.3785C39.5449 21.9818 40.0182 22.4551 40.6215 22.6535L60.2232 29.1001C62.0567 29.7031 62.0567 32.2969 60.2232 32.8999L40.6215 39.3465C40.0182 39.5449 39.5449 40.0182 39.3465 40.6215L32.8999 60.2232C32.2969 62.0567 29.7031 62.0567 29.1001 60.2232L22.6535 40.6215C22.4551 40.0182 21.9818 39.5449 21.3785 39.3465L1.77682 32.8999C-0.0567274 32.2969 -0.0567274 29.7031 1.77682 29.1001L21.3785 22.6535C21.9818 22.4551 22.4551 21.9818 22.6535 21.3785L29.1001 1.77682Z" fill="#FFA000"/>
</svg>
