<svg width="21" height="21" viewBox="0 0 21 21" fill="none" xmlns="http://www.w3.org/2000/svg">
<path d="M10.2625 1.12272C10.3379 0.893534 10.6621 0.893528 10.7375 1.12273L12.7234 7.16098L13.4358 6.92666L12.7234 7.16098C12.897 7.68893 13.3111 8.10301 13.839 8.27665L14.0733 7.56419L13.839 8.27665L19.8773 10.2625C20.1065 10.3379 20.1065 10.6621 19.8773 10.7375L13.839 12.7234C13.3111 12.897 12.897 13.3111 12.7234 13.839L13.4358 14.0733L12.7234 13.839L10.7375 19.8773C10.6621 20.1065 10.3379 20.1065 10.2625 19.8773L8.27665 13.839C8.10301 13.3111 7.68893 12.897 7.16098 12.7234L6.92666 13.4358L7.16098 12.7234L1.12272 10.7375C0.893534 10.6621 0.893528 10.3379 1.12273 10.2625L7.16098 8.27665L6.92666 7.56419L7.16098 8.27665C7.68893 8.10301 8.10301 7.68893 8.27665 7.16098L7.56419 6.92666L8.27665 7.16098L10.2625 1.12272Z" fill="#6200EA" stroke="white" stroke-width="1.5"/>
</svg>
