<svg width="47" height="53" viewBox="0 0 47 53" fill="none" xmlns="http://www.w3.org/2000/svg">
<path d="M21.5602 1.72463C22.0668 -0.292557 24.9332 -0.292552 25.4398 1.72464L28.6848 14.647C28.9598 15.7423 30.0865 16.3928 31.1726 16.0834L43.9862 12.4324C45.9864 11.8625 47.4196 14.3449 45.926 15.7922L36.3574 25.0637C35.5464 25.8495 35.5464 27.1505 36.3574 27.9363L45.926 37.2078C47.4197 38.6551 45.9864 41.1375 43.9862 40.5676L31.1726 36.9166C30.0865 36.6072 28.9598 37.2577 28.6848 38.353L25.4398 51.2754C24.9332 53.2926 22.0668 53.2926 21.5602 51.2754L18.3152 38.353C18.0402 37.2577 16.9135 36.6072 15.8274 36.9166L3.01379 40.5676C1.01358 41.1375 -0.419645 38.6551 1.07402 37.2078L10.6426 27.9363C11.4536 27.1505 11.4536 25.8495 10.6426 25.0637L1.07402 15.7922C-0.419649 14.3449 1.01358 11.8625 3.01379 12.4324L15.8274 16.0834C16.9135 16.3928 18.0402 15.7423 18.3152 14.647L21.5602 1.72463Z" fill="white"/>
</svg>
