<svg width="68" height="78" viewBox="0 0 68 78" fill="none" xmlns="http://www.w3.org/2000/svg">
<path d="M32.0602 1.72464C32.5668 -0.292548 35.4332 -0.292552 35.9398 1.72464L41.3723 23.3582C41.6473 24.4534 42.774 25.1039 43.8601 24.7945L65.3115 18.6824C67.3117 18.1125 68.745 20.5949 67.2513 22.0422L51.2324 37.5637C50.4214 38.3495 50.4214 39.6505 51.2324 40.4363L67.2513 55.9578C68.745 57.4051 67.3117 59.8875 65.3115 59.3176L43.8601 53.2055C42.774 52.8961 41.6473 53.5466 41.3723 54.6418L35.9398 76.2754C35.4332 78.2925 32.5668 78.2925 32.0602 76.2754L26.6277 54.6418C26.3527 53.5466 25.226 52.8961 24.1399 53.2055L2.68848 59.3176C0.688271 59.8875 -0.744961 57.4051 0.748704 55.9578L16.7676 40.4363C17.5786 39.6505 17.5786 38.3495 16.7676 37.5637L0.748707 22.0422C-0.744958 20.5949 0.688267 18.1125 2.68848 18.6824L24.1399 24.7945C25.226 25.1039 26.3527 24.4534 26.6277 23.3582L32.0602 1.72464Z" fill="#FFA000"/>
</svg>
