<svg width="65" height="73" viewBox="0 0 65 73" fill="none" xmlns="http://www.w3.org/2000/svg">
<path d="M30.5602 1.72464C31.0668 -0.292548 33.9332 -0.292551 34.4398 1.72464L39.4348 21.6159C39.7098 22.7112 40.8365 23.3617 41.9226 23.0523L61.6465 17.4324C63.6467 16.8625 65.0799 19.3449 63.5862 20.7922L48.8574 35.0637C48.0464 35.8495 48.0464 37.1505 48.8574 37.9363L63.5862 52.2078C65.0799 53.6551 63.6467 56.1375 61.6465 55.5676L41.9226 49.9477C40.8365 49.6383 39.7098 50.2888 39.4348 51.3841L34.4398 71.2754C33.9332 73.2925 31.0668 73.2925 30.5602 71.2754L25.5652 51.3841C25.2902 50.2888 24.1635 49.6383 23.0774 49.9477L3.35355 55.5676C1.35333 56.1375 -0.0798969 53.6551 1.41377 52.2078L16.1426 37.9363C16.9536 37.1505 16.9536 35.8495 16.1426 35.0637L1.41377 20.7922C-0.079895 19.3449 1.35333 16.8625 3.35354 17.4324L23.0774 23.0523C24.1635 23.3617 25.2902 22.7112 25.5652 21.6159L30.5602 1.72464Z" fill="#FFA000"/>
</svg>
