<svg width="149" height="154" viewBox="0 0 149 154" fill="none" xmlns="http://www.w3.org/2000/svg">
<path d="M127.28 12.9979L125.938 13.6687L127.28 12.9979C126.37 11.1786 124.642 9.90757 122.634 9.58176C120.626 9.25596 118.584 9.91514 117.146 11.3534L97.5944 30.9051C96.4078 32.0917 95.7411 33.7012 95.7411 35.3794V52.3101L71.5255 76.5254C69.0545 78.9964 69.0544 83.0028 71.5255 85.4739C73.9966 87.945 78.003 87.945 80.4741 85.474L104.69 61.2587H121.62C123.299 61.2587 124.908 60.592 126.095 59.4054L145.646 39.8536C147.085 38.4154 147.744 36.3735 147.418 34.3658C147.092 32.3581 145.821 30.6294 144.002 29.7198L132.854 24.1458L127.28 12.9979ZM130.49 37.1128L118.999 48.6035H108.396V38.0003L119.887 26.5096L122.478 31.6919C123.09 32.9165 124.083 33.9094 125.308 34.5217L130.49 37.1128ZM17.1552 81C17.1552 48.331 38.8336 22.1552 71.1724 22.1552C74.667 22.1552 77.5 19.3223 77.5 15.8276C77.5 12.333 74.667 9.50006 71.1724 9.50006C31.5463 9.50006 4.5 41.6565 4.5 81C4.5 120.488 36.5116 152.5 76 152.5C115.677 152.5 144 116.787 144 77.5C144 77.0128 144.055 76.7627 144.081 76.6717C144.097 76.6476 144.115 76.6195 144.128 76.5994C144.158 76.545 144.231 76.3869 144.269 76.2814C144.322 76.0404 144.214 75.2444 143.899 74.7783C143.433 74.4603 142.635 74.35 142.393 74.4035C142.287 74.4406 142.128 74.514 142.073 74.5447C142.053 74.557 142.025 74.5752 142.001 74.5912C141.91 74.6174 141.66 74.6724 141.172 74.6724C140.244 74.6724 139.406 74.9086 138.701 75.3949C138.005 75.8744 137.537 76.5285 137.224 77.209C136.621 78.5187 136.5 80.1273 136.5 81.5C136.5 113.931 108.569 139.845 76 139.845C43.5009 139.845 17.1552 113.499 17.1552 81ZM49.7414 81C49.7414 73.5569 51.5902 66.5053 55.1872 61.3605C58.7493 56.2657 64.0409 53 71.1724 53C72.5347 53 74.2309 52.9004 75.6311 52.3542C76.3488 52.0743 77.0756 51.6444 77.6266 50.9691C78.1978 50.2691 78.5 49.402 78.5 48.4138C78.5 44.9192 75.667 42.0863 72.1724 42.0863C50.4746 42.0863 37.0862 59.7311 37.0862 81C37.0862 102.492 54.5085 119.914 76 119.914C86.8798 119.914 95.9133 114.439 102.183 106.376C108.44 98.329 112 87.6476 112 77C112 75.6538 111.923 73.9261 111.412 72.4956C111.151 71.7648 110.743 71.0103 110.079 70.432C109.386 69.8272 108.51 69.5 107.5 69.5C106.068 69.5 105.107 70.4901 104.534 71.368C103.937 72.2843 103.502 73.4537 103.184 74.5986C102.545 76.9004 102.259 79.5358 102.259 81C102.259 95.5023 90.5022 107.259 76 107.259C61.4978 107.259 49.7414 95.5023 49.7414 81Z" fill="#214ECC" stroke="#214ECC" stroke-width="3" stroke-linecap="round" stroke-linejoin="round"/>
<path fill-rule="evenodd" clip-rule="evenodd" d="M121.551 1.06462C123.137 1.32207 124.503 2.32645 125.222 3.76399L131.227 15.7733L143.236 21.7779C144.673 22.4967 145.678 23.8627 145.935 25.4492C146.193 27.0356 145.672 28.6491 144.535 29.7856L124.285 50.0356C123.348 50.9733 122.076 51.5001 120.75 51.5001H102.571L77.0353 77.0353C75.0827 78.9879 71.9169 78.9878 69.9642 77.0352C68.0116 75.0826 68.0117 71.9168 69.9643 69.9641L95.4997 44.429V26.2501C95.4997 24.924 96.0265 23.6522 96.9642 22.7145L117.214 2.46453C118.351 1.32805 119.964 0.807175 121.551 1.06462ZM105.5 41.5001H118.679L132.559 27.6198L125.264 23.9722C124.296 23.4884 123.511 22.7038 123.028 21.7361L119.38 14.4409L105.5 28.3211V41.5001ZM73.5 11.0001C38.9822 11.0001 11 38.9823 11 73.5001C11 108.018 38.9822 136 73.5 136C108.018 136 136 108.018 136 73.5001C136 70.7386 138.239 68.5001 141 68.5001C143.761 68.5001 146 70.7386 146 73.5001C146 113.541 113.541 146 73.5 146C33.4594 146 1 113.541 1 73.5001C1 33.4594 33.4594 1.00006 73.5 1.00006C76.2614 1.00006 78.5 3.23864 78.5 6.00006C78.5 8.76148 76.2614 11.0001 73.5 11.0001ZM73.5 44.7501C57.6218 44.7501 44.75 57.6219 44.75 73.5001C44.75 89.3783 57.6218 102.25 73.5 102.25C89.3782 102.25 102.25 89.3783 102.25 73.5001C102.25 70.7386 104.489 68.5001 107.25 68.5001C110.011 68.5001 112.25 70.7386 112.25 73.5001C112.25 94.9011 94.901 112.25 73.5 112.25C52.099 112.25 34.75 94.9011 34.75 73.5001C34.75 52.099 52.099 34.7501 73.5 34.7501C76.2614 34.7501 78.5 36.9886 78.5 39.7501C78.5 42.5115 76.2614 44.7501 73.5 44.7501Z" fill="#EEF3FF" stroke="#214ECC" stroke-width="2" stroke-linecap="round" stroke-linejoin="round"/>
</svg>
