<svg width="22" height="22" viewBox="0 0 22 22" fill="none" xmlns="http://www.w3.org/2000/svg">
<path d="M16.0321 5.57406C15.6415 5.96459 15.6415 6.59775 16.0321 6.98828C16.4226 7.3788 17.0558 7.3788 17.4463 6.98828L16.0321 5.57406ZM18.2115 2.51319C17.821 2.12267 17.1878 2.12267 16.7973 2.51319C16.4068 2.90372 16.4068 3.53688 16.7973 3.92741L18.2115 2.51319ZM19.0929 6.22306C19.4835 6.61358 20.1166 6.61358 20.5071 6.22306C20.8977 5.83253 20.8977 5.19937 20.5071 4.80885L19.0929 6.22306ZM12 9.02084C12 8.46856 11.5523 8.02084 11 8.02084C10.4478 8.02084 10 8.46856 10 9.02084H12ZM10 12.1161C10 12.6684 10.4478 13.1161 11 13.1161C11.5523 13.1161 12 12.6684 12 12.1161H10ZM8.70837 0.833344C8.15609 0.833344 7.70837 1.28106 7.70837 1.83334C7.70837 2.38563 8.15609 2.83334 8.70837 2.83334V0.833344ZM13.2917 2.83334C13.844 2.83334 14.2917 2.38563 14.2917 1.83334C14.2917 1.28106 13.844 0.833344 13.2917 0.833344V2.83334ZM17.4463 6.98828L19.3593 5.07523L17.9451 3.66102L16.0321 5.57406L17.4463 6.98828ZM16.7973 3.92741L17.9451 5.07523L19.3593 3.66102L18.2115 2.51319L16.7973 3.92741ZM17.9451 5.07523L19.0929 6.22306L20.5071 4.80885L19.3593 3.66102L17.9451 5.07523ZM10 9.02084V12.1161H12V9.02084H10ZM8.70837 2.83334H13.2917V0.833344H8.70837V2.83334ZM17.7917 12.3095C17.7917 16.1045 14.7431 19.1667 11 19.1667V21.1667C15.8634 21.1667 19.7917 17.1933 19.7917 12.3095H17.7917ZM11 19.1667C7.25698 19.1667 4.20837 16.1045 4.20837 12.3095H2.20837C2.20837 17.1933 6.13666 21.1667 11 21.1667V19.1667ZM4.20837 12.3095C4.20837 8.51453 7.25698 5.45239 11 5.45239V3.45239C6.13666 3.45239 2.20837 7.42578 2.20837 12.3095H4.20837ZM11 5.45239C14.7431 5.45239 17.7917 8.51453 17.7917 12.3095H19.7917C19.7917 7.42578 15.8634 3.45239 11 3.45239V5.45239Z" fill="#1E1E1E"/>
</svg>
